<svg width="35" height="28" viewBox=" -3 31 20" fill="none" xmlns="http://www.w3.org/2000/svg">
<path d="M17.7143 0C10.3776 0 4.42857 5.82111 4.42857 13H0L5.74238 18.6189L5.84571 18.8211L11.8095 13H7.38095C7.38095 7.41 12.0014 2.88889 17.7143 2.88889C23.4271 2.88889 28.0476 7.41 28.0476 13C28.0476 18.59 23.4271 23.1111 17.7143 23.1111C14.8652 23.1111 12.2819 21.97 10.4219 20.1356L8.32571 22.1867C10.7319 24.5411 14.0386 26 17.7143 26C25.051 26 31 20.1789 31 13C31 5.82111 25.051 0 17.7143 0ZM16.2381 7.22222V14.4444L22.5562 18.1133L23.619 16.3656L18.4524 13.3611V7.22222H16.2381Z" fill="#4967FF"/>
</svg>
