<svg width="43" height="43" viewBox="0 0 43 43" fill="none" xmlns="http://www.w3.org/2000/svg">
<path d="M26.3756 0.128807C25.9911 0.292128 25.5892 0.798695 25.5209 1.19354C25.4097 1.87195 25.8116 2.60196 26.4439 2.83393C26.6065 2.89405 28.5638 2.9286 32.3413 2.9286H37.9997L30.4184 10.5459C25.085 15.9046 22.7946 18.266 22.7004 18.4894C22.461 19.0907 22.5807 19.683 23.0509 20.1213C23.5038 20.5422 24.0338 20.6364 24.6063 20.4049C24.8287 20.3102 27.179 18.0089 32.5123 12.6503L40.0937 5.03294V10.7267C40.0937 16.9958 40.0767 16.7553 40.6322 17.2448C41.1793 17.7258 41.9826 17.6912 42.5641 17.1591C43.0169 16.7382 42.9999 16.9958 42.9999 8.82029C42.9999 3.65906 42.9745 1.14284 42.9061 0.979514C42.7864 0.65332 42.4189 0.266554 42.0853 0.129256C41.6834 -0.0430391 26.7601 -0.0430396 26.3756 0.128807Z" fill="black"/>
<path d="M18.3769 22.6054C18.1804 22.6911 15.4026 25.4212 10.497 30.3486L2.90789 37.963V32.2713C2.90789 26.0132 2.92486 26.2451 2.36938 25.7558C1.64333 25.1122 0.438153 25.4297 0.0961147 26.3568C-0.0320382 26.6914 -0.0320382 41.6798 0.0961147 42.0148C0.215784 42.3409 0.583274 42.7271 0.916383 42.8648C1.32674 43.0451 16.1974 43.0451 16.6073 42.8648C17.4874 42.4871 17.7781 41.3196 17.1543 40.607C16.6671 40.049 16.9065 40.066 10.6676 40.066H5.0012L12.5819 32.4431C17.9156 27.095 20.2058 24.7341 20.2996 24.5111C20.539 23.9101 20.4193 23.3177 19.9491 22.8799C19.4963 22.4592 18.9408 22.3565 18.3769 22.6054Z" fill="black"/>
</svg>
