<svg width="35" height="35" viewBox="0 0 43 43" fill="none" xmlns="http://www.w3.org/2000/svg">
  <path d="M4.49603 21.3836C4.0912 21.5566 3.66802 22.0934 3.59608 22.5118C3.47901 23.2307 3.90218 24.0043 4.56797 24.2501C4.73913 24.3138 6.79998 24.3504 10.7773 24.3504H16.7352L8.75269 32.4222C3.13718 38.1005 0.725555 40.6028 0.626345 40.8396C0.374321 41.4767 0.500333 42.1043 0.995446 42.5688C1.47222 43.0148 2.03034 43.1146 2.63313 42.8693C2.86729 42.7689 5.34191 40.3304 10.9574 34.652L18.9399 26.5803V32.6138C18.9399 39.2568 18.922 39.0019 19.5069 39.5207C20.0829 40.0303 20.9288 39.9937 21.541 39.4298C22.0178 38.9839 21.9999 39.2568 21.9999 30.5936C21.9999 25.1244 21.9731 22.4581 21.9012 22.285C21.7752 21.9394 21.3882 21.5295 21.037 21.384C20.6138 21.2015 4.90087 21.2015 4.49603 21.3836Z" fill="white" />
  <path d="M41.3492 0.141657C41.1423 0.232434 38.2175 3.12541 33.0524 8.34673L25.0617 16.4154V10.3842C25.0617 3.75276 25.0796 3.99848 24.4947 3.47996C23.7303 2.79795 22.4613 3.13444 22.1012 4.11682C21.9663 4.47137 21.9663 20.354 22.1012 20.709C22.2272 21.0545 22.6141 21.4637 22.9649 21.6096C23.3969 21.8007 39.0544 21.8007 39.486 21.6096C40.4127 21.2095 40.7187 19.9723 40.0619 19.2171C39.549 18.6259 39.801 18.6439 33.232 18.6439H27.2658L35.2476 10.5662C40.8635 4.89912 43.2749 2.39729 43.3737 2.16108C43.6257 1.52422 43.4997 0.896388 43.0046 0.432524C42.5279 -0.0132798 41.943 -0.122118 41.3492 0.141657Z" fill="white" />
</svg>
