<svg width="35" height="35" viewBox="0 0 43 43" fill="none" xmlns="http://www.w3.org/2000/svg">
  <path d="M36.7937 0.000327284C35.9916 0.00556999 35.1999 0.0758287 34.4637 0.207097C33.7276 0.338365 33.0614 0.528067 32.5033 0.765369C31.9452 1.00267 31.5061 1.28293 31.211 1.59013C30.916 1.89733 30.7708 2.22546 30.7838 2.55577V40.4848C30.7838 41.1519 31.4273 41.7917 32.5727 42.2633C33.7181 42.735 35.2716 43 36.8915 43C38.5113 43 40.0649 42.735 41.2103 42.2633C42.3557 41.7917 42.9992 41.1519 42.9992 40.4848V2.55577C43.0124 2.21868 42.8609 1.88393 42.5537 1.57143C42.2465 1.25893 41.79 0.975063 41.2111 0.736677C40.6322 0.498292 39.9428 0.31026 39.184 0.183762C38.4251 0.0572652 37.6123 -0.00511063 36.7937 0.000327284V0.000327284ZM6.01078 0.000327284C5.20867 0.00556999 4.41695 0.0758287 3.68079 0.207097C2.94463 0.338365 2.27848 0.528067 1.72038 0.765369C1.16228 1.00267 0.72313 1.28293 0.428082 1.59013C0.133033 1.89733 -0.012142 2.22546 0.000794387 2.55577V40.4848C0.000794387 41.1519 0.644299 41.7917 1.78972 42.2633C2.93514 42.735 4.48865 43 6.10852 43C7.72839 43 9.2819 42.735 10.4273 42.2633C11.5727 41.7917 12.2162 41.1519 12.2162 40.4848V2.55577C12.2295 2.21868 12.0779 1.88393 11.7708 1.57143C11.4636 1.25893 11.007 0.975063 10.4281 0.736677C9.84926 0.498292 9.15993 0.31026 8.40108 0.183762C7.64223 0.0572652 6.82933 -0.00511063 6.01078 0.000327284V0.000327284Z" fill="white" />
</svg>
