<svg width="43" height="43" viewBox="0 0 43 43" fill="none" xmlns="http://www.w3.org/2000/svg">
<path d="M1.16576 0.0979937C1.42928 0.105025 1.68275 0.204459 1.8809 0.378231L25.015 20.6685C25.527 21.1185 25.527 21.914 25.015 22.366L1.8809 42.6562C1.14966 43.3001 0 42.7808 0 41.8065V1.12557C0.000895189 0.488741 0.528061 -0.0195137 1.16676 0.000575672L1.16576 0.0979937ZM18.7678 0.0987601C18.1311 0.080077 17.601 0.589939 17.601 1.22376V12.1724L26.0098 19.5653C27.1866 20.5999 27.1866 22.4883 26.0098 23.5229L17.601 30.9158V41.8645C17.6 42.8378 18.7477 43.3611 19.4819 42.7142L42.616 22.424C43.128 21.974 43.128 21.1785 42.616 20.7265L19.4819 0.436259C19.2838 0.262487 19.0303 0.163022 18.7668 0.155991L18.7678 0.0987601Z" fill="black"/>
</svg>
