<svg width="35" height="35" viewBox="0 0 43 43" fill="none" xmlns="http://www.w3.org/2000/svg">
  <path d="M41.8342 0.0979937C41.5707 0.105025 41.3172 0.204459 41.1191 0.378231L17.985 20.6685C17.473 21.1185 17.473 21.914 17.985 22.366L41.1191 42.6562C41.8503 43.3001 43 42.7808 43 41.8065V1.12557C42.9991 0.488741 42.4719 -0.0195137 41.8332 0.000575672L41.8342 0.0979937ZM24.2322 0.0987601C24.8689 0.080077 25.399 0.589939 25.399 1.22376V12.1724L16.9902 19.5653C15.8134 20.5999 15.8134 22.4883 16.9902 23.5229L25.399 30.9158V41.8645C25.4 42.8378 24.2523 43.3611 23.5181 42.7142L0.383976 22.424C-0.127992 21.974 -0.127992 21.1785 0.383976 20.7265L23.5181 0.436259C23.7162 0.262487 23.9697 0.163022 24.2332 0.155991L24.2322 0.0987601Z" fill="white" />
</svg>
