<svg width="35" height="35" viewBox="0 0 43 43" fill="none" xmlns="http://www.w3.org/2000/svg">
<path d="M30.8 1.00002C30.5263 1.01261 30.2652 1.11848 30.06 1.30002L17.26 12.3H4.56001C3.56001 12.3 2.73001 12.8 2.10001 13.42C1.75825 13.7343 1.48302 14.1139 1.29064 14.5365C1.09826 14.959 0.992628 15.4159 0.980011 15.88V28.98C0.980011 29.99 1.48001 30.82 2.10001 31.45C2.41427 31.7918 2.79392 32.067 3.21648 32.2594C3.63903 32.4518 4.0959 32.5574 4.56001 32.57H17.26L30.06 43.57C30.2338 43.7154 30.4451 43.8087 30.6697 43.839C30.8942 43.8693 31.1227 43.8354 31.3288 43.7413C31.5349 43.6471 31.7101 43.4965 31.8342 43.307C31.9583 43.1174 32.0262 42.8966 32.03 42.67V2.07002C32.0287 1.91072 31.9958 1.75327 31.933 1.60685C31.8702 1.46043 31.7789 1.32797 31.6644 1.2172C31.5499 1.10644 31.4145 1.01957 31.2661 0.96168C31.1177 0.903788 30.9593 0.876027 30.8 0.880015V1.00002Z" fill="white"/>
</svg>
