<svg width="35" height="35" viewBox="0 0 43 43" fill="none" xmlns="http://www.w3.org/2000/svg">
  <path d="M21.2645 0.99023C21.0693 1.00222 20.8831 1.10301 20.7368 1.27586L11.6092 11.7487H2.55288C1.83979 11.7487 1.24792 12.2247 0.798668 12.815C0.554956 13.1142 0.358694 13.4757 0.221507 13.878C0.0843196 14.2803 0.00899689 14.7153 0 15.1571V27.6293C0 28.5909 0.356548 29.3812 0.798668 29.981C1.02338 30.3046 1.29438 30.5649 1.59567 30.7464C1.89696 30.9279 2.22244 31.027 2.55288 31.0378H11.6092L20.7368 41.6059C20.8607 41.7443 21.0114 41.8331 21.1716 41.8619C21.3317 41.8908 21.4946 41.8585 21.6416 41.7689C21.7886 41.6793 21.9135 41.5359 22.002 41.3554C22.0905 41.1749 22.1389 40.9647 22.1416 40.749V2.09464C22.1416 1.94217 22.1188 1.79123 22.0745 1.65072C22.0302 1.51022 21.9652 1.38298 21.8835 1.27651C21.8017 1.17004 21.7049 1.08648 21.5986 1.03078C21.4922 0.97507 21.3787 0.948342 21.2645 0.952153V0.99023ZM28.0532 7.27395C27.8011 7.2787 27.5557 7.38243 27.3475 7.57224C27.1393 7.76205 26.9775 8.02952 26.8825 8.34126C26.7874 8.65299 26.7632 8.9952 26.8129 9.32519C26.8626 9.65518 26.9839 9.95833 27.1618 10.1968C29.3913 13.1779 30.6436 17.2185 30.6436 21.4313C30.6436 25.6441 29.3913 29.6847 27.1618 32.6658C27.0245 32.8179 26.9124 33.0065 26.8327 33.2196C26.753 33.4327 26.7074 33.6657 26.6989 33.9036C26.6904 34.1416 26.7192 34.3793 26.7834 34.6015C26.8476 34.8238 26.9457 35.0258 27.0716 35.1945C27.1975 35.3633 27.3484 35.4952 27.5146 35.5817C27.6809 35.6683 27.8588 35.7076 28.037 35.6972C28.2153 35.6868 28.3899 35.627 28.5499 35.5214C28.7098 35.4158 28.8515 35.2669 28.9659 35.0841C31.6788 31.4599 33.2028 26.5457 33.2028 21.4218C33.2028 16.2979 31.6788 11.3837 28.9659 7.7595C28.8469 7.59734 28.7049 7.46839 28.5482 7.38013C28.3915 7.29187 28.2232 7.24607 28.0532 7.24538V7.27395ZM36.3251 7.60141e-05C36.0833 0.00830574 35.8482 0.107552 35.6469 0.286385C35.4455 0.465218 35.2861 0.716356 35.187 1.01087C35.0879 1.30539 35.0531 1.63129 35.0866 1.95105C35.1202 2.27081 35.2207 2.57141 35.3767 2.81822C38.6561 8.03214 40.4539 14.6228 40.4539 21.4313C40.4539 28.2399 38.6561 34.8305 35.3767 40.0444C35.2457 40.2107 35.1426 40.412 35.0739 40.6351C35.0053 40.8583 34.9727 41.0982 34.9783 41.3394C34.9839 41.5805 35.0275 41.8173 35.1064 42.0344C35.1853 42.2514 35.2976 42.4438 35.436 42.5989C35.5744 42.754 35.7357 42.8683 35.9095 42.9344C36.0833 43.0005 36.2655 43.0169 36.4444 42.9825C36.6232 42.948 36.7946 42.8636 36.9473 42.7347C37.1 42.6057 37.2306 42.4352 37.3306 42.2342C40.9927 36.405 43 29.0397 43 21.4313C43 13.823 40.9927 6.45769 37.3306 0.628436C37.2089 0.429898 37.0554 0.270378 36.8813 0.161622C36.7073 0.0528662 36.5172 -0.00234003 36.3251 7.60141e-05V7.60141e-05Z" fill="white" />
</svg>
