<svg width="245" height="154" viewBox="0 0 245 154" fill="none" xmlns="http://www.w3.org/2000/svg">
<path d="M244.729 73.6668L221.808 30.2459C221.696 30.0177 221.533 29.8175 221.333 29.6604C221.147 29.5011 220.932 29.3788 220.699 29.3L142.841 0.157591C142.611 0.0675998 142.365 0.0217602 142.117 0.022469H141.982H141.574L25.4777 28.9397C25.4777 28.9397 25.4777 28.9397 25.2967 28.9397C25.102 29.0099 24.919 29.1085 24.7536 29.2325C24.6816 29.2795 24.6135 29.3322 24.55 29.3901C24.4119 29.5172 24.2903 29.661 24.188 29.818V29.9531L0.271737 72.1579C0.112248 72.4444 0.0174793 72.7621 -0.00596795 73.0889C-0.0294152 73.4156 0.0190206 73.7435 0.135974 74.0497C0.246479 74.3579 0.423157 74.6385 0.653708 74.8719C0.884259 75.1052 1.16314 75.2858 1.47094 75.401L22.3326 82.9005V123.439C22.3328 123.902 22.4763 124.353 22.7435 124.732C23.0107 125.111 23.3886 125.398 23.8259 125.556L102.43 153.797C102.634 153.819 102.838 153.819 103.041 153.797H103.2C103.365 153.821 103.532 153.821 103.698 153.797L221.537 126.479C222.047 126.365 222.502 126.078 222.824 125.667C223.145 125.256 223.314 124.748 223.301 124.227V81.4366L243.213 76.7297C243.549 76.6504 243.862 76.4954 244.129 76.2768C244.396 76.0582 244.609 75.7817 244.751 75.4685C244.872 75.1828 244.933 74.8753 244.929 74.5653C244.925 74.2553 244.857 73.9494 244.729 73.6668ZM139.787 5.13478V43.1506C139.787 43.7479 140.025 44.3207 140.45 44.7431C140.874 45.1654 141.449 45.4027 142.05 45.4027C142.65 45.4027 143.225 45.1654 143.649 44.7431C144.074 44.3207 144.312 43.7479 144.312 43.1506V5.51763L212.011 30.809L103.403 56.4831L33.7816 31.4395L139.787 5.13478ZM27.0615 33.8718L99.8284 59.9964L76.6815 97.6969L5.52109 71.9777L27.0615 33.8718ZM26.8579 84.5446L76.8625 102.562C77.3551 102.742 77.8953 102.746 78.3906 102.573C78.8859 102.401 79.3055 102.062 79.5777 101.616L100.937 66.8204V148.55L26.8579 121.93V84.5446ZM218.799 122.673L105.462 148.933V67.8563L124.514 103.237C124.709 103.593 124.997 103.889 125.348 104.095C125.698 104.301 126.098 104.409 126.505 104.408C126.678 104.431 126.853 104.431 127.026 104.408L218.708 82.7203L218.799 122.673ZM127.772 99.5662L106.594 60.3343L218.572 33.8944L239.366 73.1938L127.772 99.5662Z" fill="#6F717B"/>
</svg>
