<svg width="22" height="19" viewBox="0 0 22 19" fill="none" xmlns="http://www.w3.org/2000/svg">
<path d="M12.5714 0C7.36476 0 3.14286 4.19196 3.14286 9.3617H0L4.07524 13.408L4.14857 13.5537L8.38095 9.3617H5.2381C5.2381 5.33617 8.51714 2.08038 12.5714 2.08038C16.6257 2.08038 19.9048 5.33617 19.9048 9.3617C19.9048 13.3872 16.6257 16.643 12.5714 16.643C10.5495 16.643 8.71619 15.8213 7.39619 14.5002L5.90857 15.9773C7.61619 17.6728 9.96286 18.7234 12.5714 18.7234C17.7781 18.7234 22 14.5314 22 9.3617C22 4.19196 17.7781 0 12.5714 0ZM11.5238 5.20095V10.4019L16.0076 13.044L16.7619 11.7853L13.0952 9.62175V5.20095H11.5238Z" fill="white"/>
</svg>
