<svg width="48" height="48" viewBox="0 0 48 48" fill="none" xmlns="http://www.w3.org/2000/svg">
<circle cx="24" cy="24" r="24" fill="black"/>
<path d="M24 0C10.7445 0 0 10.7445 0 24C0 37.2555 10.7445 48 24 48C37.2555 48 48 37.2555 48 24C48 10.7445 37.2555 0 24 0ZM36.5715 30.6015C33.21 34.47 25.6935 39.183 23.9835 39.903C22.2735 40.623 22.5255 39.444 22.596 39.039C22.6365 38.7975 22.824 37.668 22.824 37.668C22.878 37.2585 22.9335 36.624 22.7715 36.219C22.5915 35.7735 21.882 35.541 21.36 35.4285C13.6605 34.4115 7.9605 29.028 7.9605 22.6005C7.9605 15.4305 15.1485 9.5985 23.982 9.5985C32.8155 9.5985 40.0035 15.432 40.0035 22.6005C40.0035 25.47 38.8905 28.0545 36.5685 30.6L36.5715 30.6015Z" fill="#2F3137"/>
<path d="M34.6757 19.1372H30.1742C30.0047 19.1372 29.8682 19.2737 29.8682 19.4432V19.4492V26.4302V26.4362C29.8682 26.6057 30.0047 26.7422 30.1742 26.7422H34.6757C34.8452 26.7422 34.9817 26.6057 34.9817 26.4362V25.2992C34.9817 25.1312 34.8437 24.9932 34.6757 24.9932H31.6172V23.8127H34.6757C34.8452 23.8127 34.9817 23.6762 34.9817 23.5067V22.3712C34.9817 22.2032 34.8437 22.0652 34.6757 22.0652H31.6172V20.8847H34.6757C34.8452 20.8847 34.9817 20.7482 34.9817 20.5787V19.4432C34.9817 19.2752 34.8437 19.1372 34.6757 19.1372V19.1372Z" fill="#2F3137"/>
<path d="M18.0253 24.9947H14.9668V19.4447C14.9668 19.2767 14.8288 19.1387 14.6608 19.1387H13.5238C13.3543 19.1387 13.2178 19.2752 13.2178 19.4447V26.4317V26.4377C13.2178 26.6072 13.3543 26.7437 13.5238 26.7437H18.0253C18.1948 26.7437 18.3313 26.6072 18.3313 26.4377V25.3007C18.3313 25.1327 18.1933 24.9947 18.0253 24.9947V24.9947Z" fill="#2F3137"/>
<path d="M20.7345 19.1372H19.599C19.43 19.1372 19.293 19.2742 19.293 19.4432V26.4347C19.293 26.6037 19.43 26.7407 19.599 26.7407H20.7345C20.9035 26.7407 21.0405 26.6037 21.0405 26.4347V19.4432C21.0405 19.2742 20.9035 19.1372 20.7345 19.1372Z" fill="#2F3137"/>
<path d="M28.4698 19.1372H27.3328C27.1633 19.1372 27.0268 19.2737 27.0268 19.4432V23.5967L23.8273 19.2767C23.8198 19.2662 23.8108 19.2557 23.8033 19.2452H23.8018C23.7958 19.2362 23.7898 19.2302 23.7838 19.2242L23.7778 19.2197C23.7778 19.2197 23.7673 19.2107 23.7613 19.2062C23.7583 19.2047 23.7553 19.2017 23.7523 19.2002C23.7478 19.1957 23.7418 19.1927 23.7358 19.1897C23.7328 19.1882 23.7298 19.1852 23.7268 19.1837C23.7208 19.1807 23.7163 19.1777 23.7103 19.1747C23.7073 19.1732 23.7043 19.1717 23.7013 19.1702C23.6953 19.1672 23.6893 19.1642 23.6833 19.1627L23.6728 19.1597C23.6728 19.1597 23.6608 19.1552 23.6548 19.1537C23.6518 19.1537 23.6473 19.1522 23.6443 19.1507C23.6383 19.1507 23.6323 19.1477 23.6263 19.1462C23.6218 19.1462 23.6173 19.1462 23.6128 19.1447C23.6068 19.1447 23.6023 19.1432 23.5963 19.1432C23.5903 19.1432 23.5858 19.1432 23.5798 19.1432C23.5768 19.1432 23.5723 19.1432 23.5693 19.1432H22.4398C22.2703 19.1432 22.1338 19.2797 22.1338 19.4492V26.4422C22.1338 26.6117 22.2703 26.7482 22.4398 26.7482H23.5768C23.7463 26.7482 23.8828 26.6117 23.8828 26.4422V22.2902L27.0853 26.6162C27.1078 26.6477 27.1348 26.6732 27.1648 26.6927L27.1678 26.6957C27.1678 26.6957 27.1798 26.7032 27.1873 26.7077C27.1903 26.7092 27.1933 26.7107 27.1963 26.7122C27.2008 26.7152 27.2068 26.7167 27.2113 26.7197C27.2158 26.7227 27.2218 26.7242 27.2263 26.7257C27.2293 26.7257 27.2323 26.7287 27.2353 26.7287C27.2428 26.7317 27.2488 26.7332 27.2563 26.7347H27.2608C27.2863 26.7422 27.3133 26.7467 27.3403 26.7467H28.4698C28.6393 26.7467 28.7758 26.6102 28.7758 26.4407V19.4477C28.7758 19.2782 28.6393 19.1417 28.4698 19.1417V19.1372Z" fill="#2F3137"/>
</svg>
