<svg width="48" height="48" viewBox="0 0 48 48" fill="none" xmlns="http://www.w3.org/2000/svg">
<circle cx="24" cy="24" r="24" fill="black"/>
<path d="M22.1146 0H25.863C25.9106 0.114033 26.0158 0.0852112 26.1035 0.0927298C29.7016 0.413525 33.0467 1.50623 36.1726 3.32073C44.6087 8.21787 49.3202 18.2527 47.6746 27.8628C46.744 33.2963 44.3031 37.9365 40.2291 41.6445C34.6998 46.6744 28.1611 48.717 20.757 47.7784C15.5158 47.113 10.9897 44.8511 7.2175 41.147C3.39897 37.3977 1.07956 32.8602 0.260496 27.5595C0.179091 27.0307 0.214158 26.4806 0 25.9731V22.0346C0.113967 21.9882 0.087667 21.883 0.0976861 21.7953C0.184101 20.972 0.301825 20.1549 0.455868 19.3404C2.32568 9.50606 10.5 1.70172 20.4327 0.261899C20.9937 0.180447 21.5711 0.200497 22.1134 0H22.1146ZM39.3086 14.4658C38.2754 14.8493 37.2359 15.2027 36.1038 15.2691C37.2785 14.4082 38.1514 13.3406 38.6248 11.9083C37.9999 12.199 37.4426 12.4722 36.8727 12.7178C36.2991 12.9646 35.6955 13.125 35.0943 13.2904C34.7875 13.3744 34.5646 13.3406 34.3078 13.0962C31.5676 10.491 27.1054 10.8932 24.8611 13.9358C23.7978 15.3769 23.4184 16.9971 23.6801 18.7602C23.7352 19.1349 23.6638 19.2289 23.2881 19.165C22.8122 19.0835 22.3225 19.0835 21.8466 19.0033C17.7751 18.3191 14.2972 16.5059 11.4593 13.4922C11.1775 13.1927 10.9058 12.8844 10.6065 12.5536C9.93392 13.7127 9.65714 14.9145 9.75733 16.1901C9.91138 18.16 10.8093 19.7427 12.4888 21.0233C11.5357 21.0183 10.7855 20.8003 10.0742 20.4519C9.74105 20.289 9.68845 20.3655 9.71225 20.7051C9.83749 22.5496 10.614 24.0584 12.0129 25.2526C12.7718 25.9017 13.661 26.3052 14.713 26.5984C13.7462 26.8728 12.8695 26.834 11.9152 26.7287C12.991 29.448 14.9397 30.8753 17.8365 31.171C15.0775 33.2599 12.0354 34.0594 8.68529 33.8652C8.82806 34.0005 8.96833 34.0857 9.10985 34.1672C11.6209 35.6295 14.3248 36.4516 17.2303 36.602C20.6706 36.7786 23.9819 36.2173 26.9751 34.4817C33.2245 30.859 36.2303 25.3052 36.3643 18.1387C36.3705 17.7866 36.467 17.5836 36.7412 17.3693C37.7669 16.5698 38.6849 15.6613 39.37 14.5398C39.39 14.5197 39.4326 14.4884 39.4276 14.4796C39.4 14.4195 39.3537 14.4433 39.3111 14.4646L39.3086 14.4658Z" fill="#2F3137"/>
</svg>
