<svg width="139" height="70" viewBox="0 0 139 70" fill="none" xmlns="http://www.w3.org/2000/svg">
<g clip-path="url(#clip0_809_3276)">
<path d="M25.3683 0C26.9699 1.17176 28.4506 2.38634 30.058 3.40628C34.8179 6.42521 39.9309 8.5663 45.594 9.17943C46.9791 9.32931 48.3837 9.3624 49.7765 9.34877C50.59 9.34099 50.8143 9.60181 50.8124 10.4057C50.7929 19.0966 50.7851 27.7874 50.8299 36.4783C50.8494 40.27 50.9216 44.0636 49.7902 47.7327C47.4551 55.3141 43.1224 61.3305 36.0001 65.1767C32.8223 66.8935 29.5254 68.293 26.0901 69.3849C25.7448 69.4939 25.3098 69.5387 24.9743 69.4336C19.9315 67.857 15.1384 65.7412 10.8994 62.5432C6.71688 59.388 3.9136 55.1875 2.02525 50.3623C0.571912 46.6446 -0.0425852 42.7829 0.00228284 38.7829C0.107625 29.3154 0.134936 19.8498 0.172001 10.3823C0.173952 9.65437 0.34367 9.34877 1.14544 9.35461C10.2907 9.41885 18.1231 6.02035 25.0445 0.253038C25.142 0.171287 25.2474 0.0953758 25.3722 0L25.3683 0ZM4.79731 28.2526H4.76414C4.76414 32.0482 4.80316 35.8438 4.75049 39.6374C4.71342 42.2962 5.15235 44.8617 5.96583 47.3745C7.386 51.7618 9.74254 55.571 13.3456 58.4809C16.7342 61.2176 20.6884 62.9714 24.7675 64.4351C25.1069 64.5558 25.5517 64.6064 25.8814 64.4954C29.6756 63.2147 33.3626 61.6342 36.558 59.2128C43.3136 54.0917 46.1754 47.0553 46.1851 38.7401C46.189 35.692 46.0876 32.6458 46.0739 29.5976C46.0525 24.7315 46.0388 19.8674 46.0837 15.0012C46.0915 14.0864 45.7501 13.8587 44.9249 13.7653C43.4813 13.6018 42.0339 13.3876 40.6215 13.049C35.4285 11.8032 30.6647 9.58429 26.2969 6.52838C25.7078 6.11573 25.2961 6.06123 24.6738 6.47971C23.2771 7.42179 21.853 8.33662 20.3704 9.13466C15.8543 11.5638 11.1022 13.3156 5.94827 13.775C5.11529 13.849 4.77195 14.1137 4.77975 15.0188C4.82462 19.4294 4.79926 23.842 4.79926 28.2526H4.79731Z" fill="#6F717B"/>
<path d="M69.9807 29.7183C70.2811 29.9461 70.4704 30.1057 70.6771 30.2419C71.436 30.7383 71.8749 31.4371 71.8866 32.3363C71.912 34.1796 71.9451 36.0287 71.8652 37.8701C71.8008 39.3552 70.6908 40.5484 69.2121 40.6223C66.4283 40.7625 63.6368 40.7566 60.8491 40.8248C60.1839 40.8403 60.2424 40.3927 60.2424 39.9703C60.2424 37.5392 60.2424 35.11 60.2424 32.6789C60.2424 29.0488 60.2619 25.4206 60.2268 21.7905C60.219 20.9769 60.4043 20.6382 61.3017 20.6635C63.508 20.7258 65.7182 20.6635 67.9265 20.6927C70.4333 20.7238 71.6096 21.8956 71.6896 24.3812C71.7052 24.8989 71.6954 25.4186 71.7189 25.9364C71.7891 27.4546 71.5862 28.8561 69.9788 29.7222L69.9807 29.7183ZM64.382 38.0199C65.213 38.0199 65.8548 38.0258 66.4966 38.0199C67.5344 38.0083 67.8056 37.7533 67.8407 36.6964C67.8661 35.9217 67.8407 35.145 67.8329 34.3684C67.8056 31.7855 67.7373 31.7407 65.133 31.8808C64.5829 31.91 64.3781 32.1339 64.3781 32.64C64.38 34.3801 64.3781 36.1222 64.3781 38.0199H64.382ZM64.4034 29.076C65.2618 29.076 65.9816 29.1539 66.6722 29.041C66.9843 28.9904 67.4603 28.5777 67.4759 28.3052C67.5559 26.9194 67.5559 25.5218 67.47 24.1359C67.4525 23.8673 66.9375 23.4235 66.6449 23.4177C65.9153 23.4002 65.1798 23.587 64.4483 23.7019C64.4249 23.7058 64.4054 23.8206 64.4054 23.8829C64.4034 25.5841 64.4054 27.2853 64.4054 29.076H64.4034Z" fill="#6F717B"/>
<path d="M83.0282 40.8189C82.9599 40.451 82.9092 40.1727 82.837 39.7834C82.6205 39.9333 82.4449 40.0345 82.2947 40.1629C81.0676 41.1946 78.001 41.4184 76.6745 40.5464C75.6464 39.871 75.1568 38.8588 75.1412 37.6695C75.1041 34.7557 75.0904 31.8399 75.1373 28.9261C75.1743 26.6663 76.497 25.4167 78.7482 25.3739C80.7809 25.3349 80.8745 25.3622 82.796 26.5923C82.8546 25.4731 83.6817 25.6133 84.3859 25.6425C86.7035 25.7359 86.284 25.4712 86.2938 27.4838C86.3153 31.5966 86.2782 35.7095 86.3192 39.8223C86.327 40.6534 86.0617 40.9006 85.2677 40.8345C84.5322 40.7741 83.789 40.8208 83.0262 40.8208L83.0282 40.8189ZM79.0915 33.1927C79.0915 34.4871 79.0681 35.7815 79.1071 37.0739C79.1188 37.434 79.2749 38.0725 79.4407 38.0997C80.221 38.2223 81.052 38.2905 81.8109 38.125C82.0625 38.0705 82.2791 37.2647 82.2888 36.7975C82.3376 34.5027 82.3142 32.2059 82.3103 29.9091C82.3064 28.2449 82.2206 28.1651 80.5507 28.1689C80.4532 28.1689 80.3556 28.1767 80.26 28.1689C79.4095 28.0833 79.0876 28.5213 79.0915 29.3154C79.0993 30.6098 79.0935 31.9022 79.0915 33.1966V33.1927Z" fill="#6F717B"/>
<path d="M102.943 33.2064C103.021 31.4935 102.984 29.7651 103.211 28.0717C103.445 26.3276 104.627 25.4225 106.371 25.3895C107.865 25.3603 109.361 25.3622 110.856 25.3895C112.539 25.4206 113.815 26.4425 113.989 28.1242C114.176 29.9558 114.16 31.8088 114.162 33.6521C114.162 33.839 113.675 34.1816 113.407 34.1893C111.62 34.238 109.832 34.2477 108.045 34.201C107.249 34.1796 106.9 34.4249 106.985 35.2443C107.032 35.6939 106.933 36.1611 107.009 36.6029C107.102 37.1421 107.196 38.0219 107.491 38.1134C108.189 38.3314 109.026 38.2632 109.765 38.1095C109.986 38.0628 110.183 37.3465 110.181 36.9377C110.181 36.2156 110.44 35.9431 111.152 35.9801C111.897 36.019 112.647 36.0034 113.394 35.9859C113.95 35.9742 114.234 36.1533 114.205 36.7703C114.09 39.1508 113.499 41.1245 110.173 41.0506C109.069 41.0253 107.963 41.0253 106.857 41.0506C103.942 41.1148 103.099 39.3124 103.027 37.1966C102.982 35.8691 103.019 34.5378 103.019 33.2083L102.941 33.2044L102.943 33.2064ZM107.007 31.6648C107.963 31.6648 108.827 31.6804 109.691 31.6512C109.847 31.6453 110.13 31.4624 110.13 31.3631C110.116 30.3704 110.22 29.3232 109.921 28.4123C109.818 28.097 108.681 28.1203 108.015 27.9899C107.984 27.9841 107.939 27.9782 107.92 27.9938C107.614 28.2683 107.091 28.5174 107.05 28.8288C106.931 29.7145 107.009 30.6254 107.009 31.6648H107.007Z" fill="#6F717B"/>
<path d="M92.8213 36.2292C93.0216 37.5606 93.7876 38.2256 95.1193 38.2243C96.7833 38.2243 97.6163 36.7372 96.7326 35.2754C96.5882 35.036 96.1688 34.853 95.8664 34.8355C94.8306 34.7771 93.7889 34.8141 92.7491 34.7947C90.7515 34.7577 89.5518 33.9032 89.2962 31.9645C89.1128 30.5787 89.1655 29.113 89.4093 27.7349C89.6747 26.2303 90.9036 25.4167 92.4526 25.3875C93.8493 25.3602 95.2461 25.3544 96.6429 25.3875C98.7829 25.4361 100.215 27.0634 99.9689 29.185C99.9416 29.4108 99.571 29.73 99.3193 29.7709C98.7809 29.8585 98.2191 29.7709 97.667 29.7942C96.9511 29.8254 96.5726 29.7475 96.2507 28.8561C95.7748 27.5441 94.378 28.3441 93.3928 28.2332C92.7686 28.1631 92.5716 28.712 92.5462 29.3018C92.4565 31.2833 92.5599 31.402 94.5243 31.4039C95.3358 31.4039 96.1493 31.3923 96.9608 31.4195C98.7653 31.4779 100.043 32.6283 100.162 34.417C100.246 35.6667 100.236 36.928 100.158 38.1776C100.059 39.7698 98.8316 40.9532 97.2339 41.0077C95.5797 41.0642 93.9196 41.068 92.2653 41.0038C90.6988 40.9435 89.5713 39.8145 89.3528 38.2535C89.025 35.9022 88.947 36.2584 91.1358 36.2292C91.684 36.2214 92.2341 36.2292 92.8252 36.2292H92.8213Z" fill="#6F717B"/>
<path d="M135.684 64.6862C134.328 64.7232 133.154 64.8458 131.997 64.7621C130.753 64.6707 129.799 63.6896 129.768 62.4634C129.693 59.4814 129.715 56.4995 129.69 53.5156C129.686 53.0309 129.875 52.8518 130.38 52.8207C132.947 52.6572 132.945 52.6436 132.945 55.2284C132.945 57.2391 132.94 59.2498 132.947 61.2605C132.953 62.4361 133.105 62.5724 134.332 62.5724C135.548 62.5724 135.676 62.4634 135.682 61.2507C135.694 58.7865 135.714 56.3224 135.673 53.8582C135.659 53.0465 135.938 52.7545 136.744 52.8207C137.444 52.8791 138.154 52.8324 138.901 52.8324C138.936 53.2022 138.979 53.4533 138.979 53.7024C138.981 58.0469 138.985 62.3933 138.973 66.7378C138.969 67.8881 138.702 68.9879 137.571 69.5212C136.919 69.8268 136.145 69.965 135.417 69.9942C134.387 70.0331 133.343 69.9494 132.317 69.8307C130.856 69.6613 129.797 68.1412 130.08 66.7125C130.099 66.619 130.126 66.4497 130.162 66.4478C130.989 66.3777 131.818 66.2862 132.643 66.3018C132.836 66.3057 133.133 66.658 133.191 66.8974C133.439 67.8998 134.221 67.6001 134.853 67.6176C135.575 67.637 135.671 67.1076 135.676 66.5529C135.684 65.856 135.678 65.1592 135.678 64.6901L135.684 64.6862Z" fill="#6F717B"/>
<path d="M69.5186 52.8362H66.2686C66.2296 52.665 66.173 52.5151 66.1652 52.3633C66.0969 51.0864 65.4142 50.592 64.193 51.0416C63.9023 51.1487 63.5609 51.5555 63.5297 51.8533C63.44 52.7195 63.4868 53.6012 63.5004 54.4771C63.5102 55.0785 63.8652 55.3433 64.4446 55.3472C65.1918 55.3511 65.9409 55.3257 66.688 55.3647C68.4398 55.4562 69.4113 56.2231 69.5342 57.9457C69.6669 59.8065 69.6239 61.6906 69.4971 63.5534C69.4152 64.7426 68.553 65.529 67.3825 65.6283C65.8043 65.7606 64.1949 65.8171 62.6245 65.6555C61.0893 65.4979 60.3811 64.4974 60.2855 62.9052C60.1587 60.7738 60.1587 60.8128 62.2305 60.7622C63.1454 60.7388 63.6097 60.8887 63.516 61.9631C63.4263 62.9967 63.7033 63.1407 64.9089 63.1543C65.7263 63.1641 66.4305 63.1271 66.3603 62.004C66.3096 61.1962 66.3291 60.3826 66.3583 59.5729C66.3837 58.8352 66.0911 58.5218 65.3264 58.5238C64.3568 58.5257 63.3756 58.5004 62.4217 58.3505C61.1419 58.15 60.3558 57.2333 60.3109 55.933C60.2563 54.3778 60.2563 52.8207 60.2933 51.2655C60.3343 49.5954 61.1224 48.6047 62.7611 48.4334C64.1403 48.2893 65.5624 48.2835 66.9377 48.4509C68.7344 48.6689 69.3274 49.5468 69.5167 51.754C69.544 52.0732 69.5206 52.3963 69.5206 52.8401L69.5186 52.8362Z" fill="#6F717B"/>
<path d="M89.746 65.2993C88.9481 65.4667 88.2946 65.7003 87.6333 65.7256C84.9041 65.8307 83.8878 65.0327 83.761 62.333C83.6459 59.8843 83.7649 57.4162 83.9131 54.9637C84.0029 53.4572 84.9743 52.7 86.5038 52.6241C87.8186 52.5579 89.1061 52.5638 90.0581 53.6343C90.3097 53.3268 90.4892 52.8947 90.7116 52.8732C91.447 52.8012 92.1981 52.8577 92.9394 52.9219C93.0194 52.9297 93.1208 53.3073 93.1208 53.5136C93.1306 58.6659 93.1247 63.82 93.1364 68.9723C93.1364 69.4725 92.9589 69.7003 92.4595 69.6613C92.4263 69.6594 92.3951 69.6613 92.362 69.6613C90.6154 69.7496 89.744 68.9308 89.7479 67.2049C89.7479 66.5937 89.7479 65.9825 89.7479 65.2974L89.746 65.2993ZM87.0851 59.0843C87.0851 60.1529 87.1222 61.2215 87.0734 62.2882C87.0285 63.2712 87.5591 63.5106 88.398 63.5086C89.2056 63.5067 89.783 63.3471 89.7655 62.3349C89.7265 60.1997 89.7304 58.0625 89.7655 55.9272C89.7811 54.9462 89.2154 54.843 88.4448 54.8372C87.6333 54.8314 87.0285 54.9423 87.0753 55.9778C87.1222 57.0114 87.0851 58.0488 87.0851 59.0843V59.0843Z" fill="#6F717B"/>
<path d="M76.9474 52.6241C77.5639 52.6241 78.1823 52.6066 78.7987 52.628C80.3184 52.6825 81.3016 53.5448 81.4245 55.0747C81.5337 56.4274 81.4947 57.7938 81.5337 59.1525C81.5493 59.7267 81.3035 59.968 80.7202 59.9602C79.3567 59.9408 77.9911 59.9875 76.6275 59.9466C75.8589 59.9233 75.4492 60.1296 75.5643 60.9782C75.6131 61.3286 75.5721 61.6906 75.5721 62.0468C75.576 63.3432 76.5183 63.9719 77.677 63.3607C77.9755 63.203 78.1803 62.6541 78.2154 62.2648C78.2642 61.7218 78.4476 61.496 78.9801 61.533C79.1421 61.5446 79.3157 61.496 79.4659 61.5388C80.1409 61.7354 81.165 61.0191 81.4791 62.0702C81.8673 63.3665 81.126 64.91 80.0238 65.3616C79.4971 65.5777 78.9021 65.6906 78.3305 65.7275C77.4254 65.7879 76.5124 65.7509 75.6033 65.7451C73.477 65.7314 72.4431 65.0171 72.3065 62.9013C72.1388 60.295 72.209 57.6595 72.3845 55.0513C72.4996 53.3384 73.4594 52.6669 75.1917 52.6182C75.777 52.6027 76.3602 52.6163 76.9455 52.6163V52.626L76.9474 52.6241ZM75.5721 57.8133C75.8901 57.8483 76.0774 57.8853 76.2647 57.8853C78.6466 57.8698 78.1901 58.1442 78.2389 55.9681C78.2623 54.952 78.0028 54.7749 76.8479 54.7477C75.9837 54.7262 75.4765 54.989 75.5643 55.9681C75.617 56.5423 75.5741 57.1262 75.5741 57.8133H75.5721Z" fill="#6F717B"/>
<path d="M104.971 52.8304C105.001 53.2353 105.038 53.5175 105.04 53.7998C105.044 57.3968 105.018 60.9958 105.061 64.5928C105.071 65.3947 104.792 65.6264 104.051 65.5485C103.6 65.5018 103.136 65.5835 102.689 65.5232C102.404 65.4843 102.141 65.2896 101.694 65.0872C100.645 65.8502 99.2575 65.9495 97.8257 65.5855C96.5616 65.2624 95.8281 64.3884 95.8105 63.0726C95.7676 59.898 95.7812 56.7214 95.7754 53.5448C95.7754 53.4163 95.7793 53.1769 95.8066 53.173C96.6923 53.0465 97.5799 52.8966 98.4714 52.8752C98.6469 52.8713 98.9903 53.3754 98.9942 53.6479C99.0332 56.4664 99.0117 59.2868 99.0234 62.1052C99.0293 63.2867 99.2966 63.5261 100.473 63.5047C101.518 63.4853 101.782 63.2186 101.788 62.043C101.803 59.2887 101.809 56.5326 101.782 53.7784C101.774 53.0874 101.946 52.7565 102.708 52.8168C103.442 52.8752 104.183 52.8304 104.971 52.8304V52.8304Z" fill="#6F717B"/>
<path d="M125.823 65.7373C125.53 65.7373 125.238 65.749 124.947 65.7354C123.211 65.6478 122.142 64.6668 122.108 62.9364C122.04 59.3452 122.05 55.754 122.034 52.1609C122.025 50.0314 122.03 50.0684 124.2 50.0295C125.079 50.0139 125.481 50.2611 125.335 51.1701C125.304 51.3589 125.355 51.5613 125.327 51.7521C125.2 52.6085 125.554 52.9628 126.412 52.8285C127.22 52.702 127.584 52.9569 127.553 53.864C127.526 54.6971 127.442 55.2829 126.408 55.1389C125.569 55.0221 125.284 55.3744 125.314 56.2348C125.378 58.1423 125.327 60.0537 125.337 61.9631C125.343 63.3023 125.555 63.5904 126.861 63.6935C127.811 63.7694 127.463 64.4273 127.52 64.9023C127.582 65.4161 127.459 65.8074 126.8 65.747C126.478 65.7178 126.152 65.7412 125.827 65.7412V65.7334L125.823 65.7373Z" fill="#6F717B"/>
<path d="M117.048 52.8304C117.147 53.2178 117.223 53.5156 117.337 53.9594C118.138 53.0971 118.88 52.2971 120.243 52.7565C120.243 53.572 120.286 54.4401 120.21 55.2966C120.193 55.4873 119.732 55.8065 119.506 55.7832C117.588 55.5769 117.504 56.3535 117.522 57.8912C117.549 60.1607 117.512 62.4283 117.54 64.6979C117.547 65.3032 117.397 65.5485 116.728 65.5582C114.28 65.5972 114.28 65.6225 114.28 63.2089C114.28 60.1296 114.305 57.0503 114.264 53.971C114.252 53.1088 114.461 52.7 115.398 52.8207C115.934 52.8908 116.488 52.8324 117.048 52.8324V52.8304Z" fill="#6F717B"/>
<path d="M111.489 59.1622C111.489 61.0094 111.469 62.8585 111.498 64.7057C111.508 65.3266 111.323 65.5446 110.671 65.5524C108.231 65.5874 108.231 65.6108 108.231 63.1952C108.231 60.0828 108.254 56.9705 108.215 53.8581C108.205 53.0581 108.441 52.7973 109.261 52.8109C111.489 52.846 111.489 52.8109 111.489 55.0766C111.489 56.4391 111.489 57.7997 111.489 59.1622V59.1622Z" fill="#6F717B"/>
<path d="M108.062 49.683C108.062 48.6728 108.794 47.9526 109.826 47.9449C110.835 47.939 111.666 48.7682 111.66 49.7745C111.654 50.6309 110.784 51.4971 109.902 51.5244C108.907 51.5536 108.064 50.7108 108.064 49.685L108.062 49.683Z" fill="#6F717B"/>
<path d="M8.04218 17.8042C14.1989 16.7842 19.743 14.4543 24.9984 11.159V60.6785C22.7023 59.5632 20.5448 58.6133 18.4808 57.4941C12.2715 54.1287 9.03708 48.702 8.04803 41.8817C7.76712 39.9411 7.94269 37.9343 7.94464 35.9567C7.94854 30.1213 7.97195 24.2858 7.98951 18.4504C7.98951 18.2616 8.01877 18.0728 8.04218 17.8061V17.8042ZM16.8812 42.6388C17.3025 42.6388 17.7239 42.6447 18.1453 42.6388C19.2455 42.6213 19.3996 42.4715 19.2787 41.3698C19.1285 40.0209 18.9451 38.6759 18.75 37.3328C18.6564 36.6769 18.6603 36.1533 19.2416 35.6141C20.457 34.4852 20.416 32.5641 19.2845 31.332C18.1531 30.0999 16.2101 30.0025 14.8914 31.1101C13.6214 32.1748 13.3015 34.1699 14.4876 35.3494C15.3693 36.2273 15.2445 37.0584 15.0904 38.0316C14.9694 38.7966 14.8875 39.5693 14.7724 40.3362C14.4427 42.5357 14.2028 42.6953 16.8792 42.6408L16.8812 42.6388Z" fill="#6F717B"/>
<path d="M34.3758 31.9159H31.0555V29.7592H34.3465C34.5923 29.1091 34.4538 28.823 33.7554 28.8366C32.5596 28.8599 31.3638 28.8424 30.1348 28.8424V26.6877H34.446C34.487 26.2206 34.5221 25.8449 34.5591 25.4147H36.5938C36.6153 25.734 36.6523 26.0103 36.6465 26.2867C36.588 30.0473 36.5353 33.8078 36.4495 37.5683C36.4338 38.2165 36.5567 38.598 37.2239 38.9075C39.2488 39.8476 40.2145 41.9712 39.6956 44.0831C39.2079 46.0665 37.2064 47.5458 35.1288 47.4621C33.0239 47.3765 31.2662 45.8466 30.8488 43.7347C30.4488 41.7182 31.5822 39.6257 33.5994 38.7985C34.1417 38.5766 34.3172 38.308 34.3172 37.7416C34.3192 36.1533 34.3914 34.5669 34.4245 32.9786C34.4323 32.6633 34.3953 32.346 34.3738 31.9178L34.3758 31.9159ZM37.815 42.9172C37.7974 41.4865 36.6914 40.4199 35.2517 40.4413C33.9017 40.4627 32.7683 41.5897 32.7566 42.9249C32.743 44.3108 33.8978 45.4534 35.3082 45.4495C36.7226 45.4456 37.8326 44.3244 37.817 42.9152L37.815 42.9172Z" fill="#6F717B"/>
</g>
<defs>
<clipPath id="clip0_809_3276">
<rect width="138.986" height="70" fill="white"/>
</clipPath>
</defs>
</svg>
