<svg width="142" height="70" viewBox="0 0 142 70" fill="none" xmlns="http://www.w3.org/2000/svg">
<g clip-path="url(#clip0_809_3262)">
<path d="M70.9356 12.7282C72.9638 11.5404 74.8436 10.4279 76.7357 9.33581C81.9789 6.31421 87.2383 3.31706 92.4632 0.260829C93.0993 -0.112032 93.5444 -0.0672074 94.1195 0.266941C102.344 5.03467 110.575 9.79221 118.805 14.5477C120.329 15.4279 121.854 16.3081 123.396 17.1516C123.89 17.4226 124.144 17.714 124.136 18.3211C124.101 20.7315 124.146 23.1439 124.095 25.5522C124.087 25.9067 123.821 26.4079 123.522 26.5811C116.358 30.7539 109.174 34.888 101.996 39.0343C99.5354 40.4544 97.0785 41.8847 94.6194 43.3069C94.3309 43.474 94.0281 43.6166 93.5301 43.8753C93.5728 42.9809 93.5891 42.229 93.646 41.4813C93.7659 39.892 93.9549 38.3048 94.0159 36.7136C94.0484 35.8578 94.4121 35.3688 95.1133 34.9471C102.622 30.4381 110.117 25.9067 117.614 21.3774C117.801 21.2653 117.964 21.1125 118.057 20.8211C117.649 21.0188 117.232 21.196 116.836 21.414C109.25 25.5889 101.659 29.7576 94.089 33.9609C93.5037 34.2849 93.0912 34.293 92.5201 33.9629C80.0767 26.7686 67.619 19.5946 55.1694 12.4104C52.7389 11.0086 50.3327 9.55993 47.8818 8.19074C47.5506 8.00533 46.9388 7.99718 46.6137 8.18259C41.7566 10.9352 36.926 13.7327 32.0913 16.5241C30.8475 17.2433 30.8231 18.0665 32.0587 18.7592C36.8711 21.4548 41.6855 24.1463 46.5283 26.7849C46.9124 26.9947 47.6176 26.9458 48.02 26.7299C50.0421 25.6398 52.0235 24.4682 53.9989 23.2926C54.5455 22.9666 54.9642 22.9157 55.5596 23.2702C57.3257 24.3236 59.1466 25.2812 61.1097 26.3672C59.1669 27.498 57.3765 28.5493 55.5779 29.5864C53.0579 31.0412 50.5176 32.4634 48.018 33.9507C47.4449 34.293 47.0242 34.3073 46.4491 33.9874C38.879 29.7861 31.2946 25.6052 23.7143 21.4222C23.3953 21.2449 23.062 21.0921 22.6372 21.086C23.694 21.7482 24.7426 22.4206 25.8075 23.0705C32.2782 27.009 38.755 30.9393 45.2216 34.89C45.5142 35.0673 45.8943 35.379 45.9248 35.6643C46.2032 38.2213 46.4145 40.7865 46.6645 43.5779C45.2135 42.7425 43.9352 42.0131 42.663 41.2755C34.1784 36.3529 25.6917 31.4365 17.2254 26.4813C16.8779 26.2775 16.5385 25.7274 16.5263 25.3281C16.4612 22.987 16.4653 20.6418 16.5222 18.3008C16.5303 17.9279 16.825 17.4022 17.142 17.2168C26.4091 11.8277 35.729 6.53018 44.9472 1.0636C46.7112 0.0183672 47.8981 0.0998668 49.6133 1.13695C63.0729 9.27265 76.6056 17.2881 90.116 25.3403C90.6687 25.6683 91.3008 25.9006 91.7723 26.3183C92.8432 27.2678 93.774 26.9703 94.8714 26.3203C99.3241 23.6879 103.819 21.1308 108.298 18.5412C109.693 17.7364 109.699 17.2779 108.296 16.465C103.496 13.6858 98.6961 10.9067 93.8695 8.1724C93.5505 7.99107 92.9388 8.02366 92.6095 8.21111C87.9923 10.8374 83.3933 13.4943 78.8106 16.1797C78.205 16.5343 77.7558 16.5444 77.1543 16.196C75.1444 15.0347 73.104 13.9303 70.9336 12.7242L70.9356 12.7282Z" fill="#6F717B"/>
<path d="M47.9568 9.50896C49.7493 10.5318 51.3933 11.4568 53.0273 12.4002C59.061 15.8863 65.0907 19.3826 71.1265 22.8688C77.1602 26.3549 83.2 29.835 89.2358 33.3191C89.4411 33.4372 89.6301 33.5962 89.8496 33.6777C91.9021 34.4478 93.0443 35.7335 92.9183 38.1214C92.8248 39.894 93.1357 41.687 93.278 43.6349C91.644 42.665 90.1097 41.7583 88.5794 40.8435C78.8571 35.0285 69.141 29.2033 59.4106 23.4006C55.6936 21.1838 51.9583 19.0016 48.2088 16.8419C47.6256 16.5057 47.402 16.1634 47.4711 15.487C47.6642 13.5656 47.7902 11.6381 47.9589 9.50488L47.9568 9.50896Z" fill="#6F717B"/>
<path d="M10.8152 65.7579C12.1748 67.394 14.0058 67.119 15.7739 67.4348C15.5381 68.2804 15.3085 69.1055 15.0646 69.9837C13.0954 70.0652 11.1586 69.8574 9.48609 68.8549C8.62238 68.3374 8.07571 67.2963 7.36036 66.5139C7.09007 66.2184 6.78117 65.8191 6.43569 65.7539C2.23097 64.9654 -0.069537 61.5729 -0.000440566 57.284C0.0544301 53.9242 1.38962 51.2388 4.50708 49.8227C7.7729 48.3394 11.0509 48.533 13.9814 50.7457C16.099 52.3431 16.9302 54.6862 16.9221 57.2636C16.9079 60.7865 15.7129 63.7021 12.254 65.2363C11.8598 65.4116 11.4391 65.5318 10.8152 65.7559V65.7579ZM13.0771 57.5632C12.8881 56.6748 12.7905 55.7559 12.4938 54.9042C11.874 53.1194 10.4331 52.176 8.5289 52.172C6.53933 52.1679 4.87086 53.1459 4.4136 54.9756C4.07828 56.3121 3.94415 57.8117 4.18192 59.1565C4.70015 62.0762 7.35833 63.4413 10.1222 62.4409C11.8862 61.8032 12.9125 60.0489 13.075 57.5632H13.0771Z" fill="#6F717B"/>
<path d="M119.668 58.5228V49.3969H123.405V65.6479C122.479 65.6479 121.562 65.7355 120.68 65.6051C120.32 65.5521 119.969 65.0754 119.713 64.7188C117.559 61.7257 115.431 58.7164 113.289 55.7151C113.157 55.5297 112.988 55.3708 112.667 55.0081V65.5807H108.93V49.3582C110.478 49.3276 112.021 48.8977 113.232 50.5868C115.024 53.0888 117.014 55.4482 118.916 57.8688C119.099 58.101 119.268 58.3415 119.445 58.5799L119.67 58.5208L119.668 58.5228Z" fill="#6F717B"/>
<path d="M48.3429 56.7808C51.0865 58.4189 51.8059 61.3692 49.9586 63.6512C48.8713 64.996 47.2983 65.5828 45.6604 65.6357C43.1729 65.7172 40.6773 65.5705 38.1878 65.4585C37.95 65.4483 37.5354 64.9878 37.5334 64.7331C37.4948 59.8819 37.4948 55.0306 37.5293 50.1814C37.5293 49.9287 37.8707 49.4866 38.0943 49.4581C40.9862 49.1056 43.8903 48.8305 46.7578 49.6007C49.0278 50.2099 50.2288 51.8277 50.0846 53.9426C50.0155 54.945 49.7533 55.3709 48.345 56.7788L48.3429 56.7808ZM41.3154 58.4536V62.9727C42.8213 62.8016 44.2256 62.6956 45.6075 62.4634C46.6094 62.2942 47.0646 61.575 47.0545 60.5522C47.0443 59.5436 46.4854 58.912 45.5689 58.7816C44.1788 58.584 42.7644 58.5555 41.3154 58.4536ZM41.2362 55.8334C42.6709 55.6887 43.9817 55.6255 45.2641 55.4035C46.0424 55.269 46.4346 54.6333 46.4143 53.8203C46.394 53.0481 45.9835 52.4532 45.258 52.3452C44.0996 52.174 42.9148 52.1557 41.7401 52.1292C41.5755 52.1251 41.2666 52.4348 41.2585 52.6101C41.2118 53.6166 41.2362 54.6272 41.2362 55.8334V55.8334Z" fill="#6F717B"/>
<path d="M85.7608 56.8969C87.7931 57.8117 88.3601 59.0872 88.2117 61.1308C88.0512 63.3517 86.8034 64.6842 84.6593 65.2934C81.5845 66.1675 78.4935 65.8822 75.4004 65.4625C75.1992 65.436 74.8863 65.0937 74.8842 64.8961C74.8558 59.8085 74.8619 54.7188 74.8619 49.4621C76.2641 49.3582 77.6054 49.1524 78.9406 49.187C80.6883 49.2298 82.4726 49.2828 84.1696 49.6557C86.6225 50.1936 87.9577 52.4389 87.2403 54.6333C86.9741 55.4462 86.2851 56.1186 85.7608 56.8989V56.8969ZM78.6154 58.4454V62.9707C80.1559 62.7954 81.615 62.6956 83.0478 62.445C84.009 62.2779 84.4073 61.4874 84.3911 60.5624C84.3728 59.6047 83.8342 58.9181 82.8974 58.7897C81.5094 58.5982 80.101 58.5575 78.6154 58.4454ZM78.5748 55.7926C79.8978 55.6907 81.1293 55.6459 82.3487 55.489C83.1697 55.3831 83.6656 54.8187 83.7184 53.9751C83.7753 53.0705 83.2957 52.4348 82.4361 52.3105C81.172 52.1312 79.8876 52.1088 78.5768 52.0171V55.7926H78.5748Z" fill="#6F717B"/>
<path d="M46.9883 43.7469C47.2261 40.8944 47.4293 38.3028 47.6772 35.7131C47.6996 35.4788 47.9719 35.1976 48.1995 35.0652C52.7273 32.4307 57.2633 29.8105 61.8115 27.2086C62.0615 27.066 62.4943 26.9763 62.7179 27.0966C64.9147 28.2742 67.0872 29.5008 69.4202 30.7987C61.9233 35.1263 54.5645 39.3724 46.9883 43.7449V43.7469Z" fill="#6F717B"/>
<path d="M79.8242 17.28C84.2301 14.7351 88.5161 12.2596 92.9038 9.72698C93.0785 11.7685 93.2391 13.6512 93.3996 15.5318L93.5399 15.5359C93.7024 13.6532 93.865 11.7706 94.0418 9.7229C98.4437 12.2677 102.728 14.7412 107.117 17.2779C105.118 18.4372 103.26 19.5395 101.368 20.5766C101.098 20.7253 100.586 20.6683 100.297 20.5094C98.4071 19.4621 96.5232 18.3965 94.6881 17.2555C93.8427 16.7298 93.1741 16.6667 92.2921 17.227C90.4691 18.3863 88.573 19.4356 86.679 20.4747C86.366 20.6459 85.8173 20.6948 85.5206 20.5338C83.6509 19.5212 81.8219 18.4311 79.8262 17.2779L79.8242 17.28Z" fill="#6F717B"/>
<path d="M29.9833 49.3582H33.8243C33.8243 50.7987 33.8243 52.1822 33.8243 53.5656C33.8243 55.4992 33.8405 57.4328 33.8202 59.3684C33.7775 63.421 31.5522 65.7131 27.5243 65.9128C25.555 66.0106 23.663 65.8008 22.0454 64.5559C20.3972 63.2865 19.9359 61.4507 19.9074 59.4988C19.8587 56.2429 19.8912 52.9849 19.8952 49.729C19.8952 49.6333 19.9501 49.5396 19.9989 49.3786H23.6915C23.6915 50.9128 23.6915 52.3961 23.6915 53.8794C23.6915 55.4748 23.6874 57.0681 23.6955 58.6634C23.6976 59.1035 23.7098 59.5477 23.7687 59.9837C24.0207 61.8541 25.1283 62.8607 26.8597 62.8118C28.7436 62.7588 29.8939 61.6973 29.9406 59.7535C30.0138 56.7013 29.9772 53.6471 29.9853 50.5929C29.9853 50.2241 29.9853 49.8554 29.9853 49.3603L29.9833 49.3582Z" fill="#6F717B"/>
<path d="M141.429 49.5762C139.114 51.9907 136.801 54.4051 134.452 56.8582C137.415 59.3032 139.813 62.2331 141.965 65.65C140.453 65.65 139.147 65.6806 137.842 65.6235C137.586 65.6113 137.312 65.2832 137.104 65.0469C135.537 63.2763 133.995 61.4854 132.424 59.7168C132.141 59.399 131.776 59.1545 131.268 58.7246V65.5726H127.504V49.401H131.219V55.0713C132.245 54.1524 133.278 53.2437 134.288 52.3126C134.686 51.9458 135.123 51.5791 135.389 51.1227C136.391 49.4112 137.921 49.0832 139.718 49.2991C140.246 49.3623 140.789 49.3093 141.323 49.3093L141.429 49.5783V49.5762Z" fill="#6F717B"/>
<path d="M106.791 65.65C105.29 65.65 104.143 65.6826 103.001 65.6235C102.768 65.6113 102.455 65.2975 102.345 65.0489C102.018 64.3093 101.747 63.5412 101.51 62.7649C101.361 62.28 101.144 62.0457 100.595 62.0558C98.8372 62.0864 97.0773 62.0334 95.3214 62.0966C95.0003 62.1088 94.5471 62.4491 94.4089 62.7527C93.9903 63.6695 93.6936 64.6435 93.3461 65.6092H89.4238C90.0335 63.9487 90.5517 62.3472 91.198 60.8028C92.712 57.1883 94.2992 53.6043 95.8315 49.998C96.049 49.4886 96.3274 49.3052 96.8862 49.2889C99.8066 49.2074 99.8696 49.1626 101.028 51.8521C102.961 56.3448 104.804 60.8741 106.791 65.6479V65.65ZM100.37 59.1361C99.5465 57.0538 98.7823 55.1182 97.9329 52.9686C97.0813 55.1345 96.3111 57.0925 95.5084 59.1361H100.367H100.37Z" fill="#6F717B"/>
<path d="M65.4774 49.3908V52.4042H57.8991V55.6235C58.4397 55.6235 58.9945 55.6235 59.5493 55.6235C61.0064 55.6235 62.4615 55.6357 63.9186 55.6173C64.4531 55.6112 64.7437 55.7437 64.7031 56.359C64.6584 57.0599 64.6929 57.7669 64.6929 58.5595H57.9215V62.5652H66.0688V65.5725H54.1191V49.3887H65.4774V49.3908Z" fill="#6F717B"/>
<path d="M46.2061 9.72491C46.3951 11.9804 46.5841 14.0688 46.7223 16.1593C46.7365 16.3794 46.5028 16.7094 46.2935 16.8337C44.1413 18.1071 41.977 19.3582 39.8005 20.5868C39.581 20.7111 39.1867 20.76 38.9835 20.6459C37.0711 19.5782 35.1832 18.4657 33.1367 17.2799C37.5325 14.7392 41.8063 12.2697 46.2081 9.72491H46.2061Z" fill="#6F717B"/>
</g>
<defs>
<clipPath id="clip0_809_3262">
<rect width="141.963" height="70" fill="white"/>
</clipPath>
</defs>
</svg>
