<svg width="184" height="70" viewBox="0 0 184 70" fill="none" xmlns="http://www.w3.org/2000/svg">
<g clip-path="url(#clip0_809_3392)">
<path d="M0 70V0H184V70H0ZM86.8942 36.748C84.9083 35.8243 83.9154 34.2556 83.9154 32.0419C83.9154 27.5113 83.9154 22.9806 83.9184 18.45C83.9184 17.9618 83.9741 17.4737 84.0239 16.7254C84.4637 17.196 84.6718 17.3977 84.8565 17.6198C89.958 23.7552 95.0652 29.8877 100.152 36.0347C100.762 36.7713 101.389 37.2566 102.533 36.7187C102.533 36.2627 102.533 35.7395 102.533 35.2134C102.533 28.8325 102.533 22.4486 102.533 16.0677C102.533 13.9076 102.876 13.5072 105.004 12.9957C105.212 12.946 105.377 12.7034 105.893 12.2766C102.946 12.1246 100.428 12.1655 97.8916 12.4607C98.0675 12.829 98.2551 12.9664 98.4633 13.0132C100.407 13.4429 100.829 13.9281 100.844 15.8544C100.856 17.7046 100.847 19.5578 100.847 21.4081C100.847 23.384 100.847 25.357 100.847 27.71C100.263 27.0699 99.935 26.7367 99.6389 26.3772C96.0386 22.0277 92.4647 17.6549 88.8233 13.3376C88.3777 12.8086 87.6242 12.2678 86.9821 12.2298C84.7422 12.0954 82.4905 12.1684 80.2418 12.1889C79.9164 12.1889 79.5939 12.3263 78.8726 12.4929C79.4531 12.8174 79.6291 12.9664 79.8284 13.019C81.8279 13.5481 82.2443 14.0509 82.2443 15.9976C82.2443 21.6477 82.2472 27.3008 82.2443 32.951C82.2443 35.3069 82.0185 35.5758 79.761 36.1546C79.5733 36.2043 79.4268 36.4118 79.0163 36.7421H86.9L86.8942 36.748ZM143.538 37.1572C146.751 37.2039 149.911 37.4173 153.051 37.2478C156.106 37.0841 159.182 36.6953 161.777 34.7603C165.321 32.1179 165.559 26.6081 162.114 24.2083C161.032 23.4542 159.671 22.9952 158.37 22.6883C156.1 22.1563 153.726 22.0423 151.495 21.4051C148.27 20.4844 147.545 17.1814 149.87 14.7582C153.031 11.4611 159.507 12.5864 161.381 16.7429C161.565 17.1522 161.9 17.4942 162.164 17.8654L162.404 17.6169V11.8995C159.449 11.8995 156.575 11.7446 153.726 11.9434C150.852 12.1421 148.035 12.8115 145.599 14.5039C141.614 17.2691 141.963 23.0595 146.293 25.1203C147.46 25.6756 148.786 25.9445 150.067 26.2018C151.975 26.5876 153.949 26.7016 155.825 27.1897C158.774 27.9585 159.739 30.2706 158.349 32.9539C157.417 34.7603 155.857 35.8652 153.866 36.1078C150.073 36.5697 147.023 35.1052 144.619 32.1939C144.341 31.8578 143.963 31.6035 143.543 31.2323V37.1543L143.538 37.1572ZM42.5118 32.9422C42.4063 32.9773 42.2685 32.9802 42.2304 33.0416C39.838 37.0227 32.5904 37.4027 28.8582 32.9217C25.2872 28.6366 25.4602 23.9394 27.4685 19.093C27.7998 18.2921 28.2513 17.5234 28.7468 16.8072C31.9572 12.1714 38.158 12.1918 41.4095 16.816C41.6763 17.196 42.0486 17.5029 42.5499 18.0261V12.3643C39.4129 12.3643 36.3432 12.262 33.2853 12.3935C30.503 12.5134 27.9904 13.5949 25.683 15.1382C20.0978 18.8767 17.9341 27.5464 22.757 33.0533C27.1343 38.0545 35.4871 38.8204 40.5504 36.403C42.0017 35.7103 42.7904 34.6288 42.5177 32.9422H42.5118ZM62.5891 44.0058C64.5212 44.4004 64.6121 44.3361 64.6121 42.5355C64.6121 31.0043 64.6121 19.4759 64.6121 7.94471C64.6121 7.42442 64.6121 6.9012 64.6121 6.31953H62.5862V44.0058H62.5891ZM124.222 44.1022V6.39552C122.246 6.03892 122.202 6.06522 122.202 7.86872C122.202 19.4467 122.202 31.0218 122.202 42.5998C122.202 43.0733 122.252 43.5439 122.282 44.1022H124.22H124.222ZM136.184 54.2655C135.88 54.0492 135.613 53.8621 135.349 53.675C135.17 53.9644 134.848 54.2509 134.839 54.5461C134.789 56.2473 134.783 57.9485 134.839 59.6497C134.85 59.9858 135.191 60.3103 135.378 60.6406C135.598 60.2956 135.965 59.9683 136.009 59.6058C136.143 58.4512 136.07 57.2703 136.246 56.1274C136.41 55.0693 137.258 54.5666 138.272 54.6426C139.28 54.7156 139.606 55.5107 139.624 56.4197C139.644 57.5363 139.597 58.6588 139.659 59.7724C139.676 60.0706 139.981 60.3512 140.154 60.6406C140.389 60.3453 140.793 60.0676 140.823 59.752C140.922 58.6412 140.849 57.5159 140.925 56.4022C141.013 55.1453 141.893 54.5958 143.019 54.6484C144.103 54.6981 144.399 55.5575 144.397 56.5337C144.388 57.8812 144.397 59.2258 144.397 60.5733C144.567 60.6464 144.734 60.7166 144.904 60.7896C145.138 60.4623 145.54 60.1495 145.578 59.8017C145.675 58.8868 145.596 57.9572 145.619 57.0336C145.651 55.7182 145.552 54.4175 144.15 53.8183C142.822 53.2512 141.573 53.5289 140.588 54.6221C138.876 53.2629 137.835 53.2044 136.19 54.2655H136.184ZM91.4151 57.2674C92.5761 57.1359 93.5583 57.1066 94.5023 56.8991C95.8715 56.601 96.5751 55.613 96.5869 54.2626C96.5986 52.9706 95.9213 51.9212 94.6343 51.6845C93.2299 51.4273 91.7669 51.4886 90.2072 51.4039C90.2072 54.4116 90.1896 57.133 90.2336 59.8543C90.2365 60.1203 90.6294 60.3775 90.8404 60.6406C91.031 60.3716 91.3623 60.1173 91.3887 59.8309C91.4649 59.0154 91.4151 58.1911 91.4151 57.2645V57.2674ZM45.558 53.8592C44.8221 51.6377 43.2184 50.9625 41.2042 51.4945C39.1988 52.0236 37.9469 53.8767 38.0583 56.1567C38.1756 58.6208 39.451 60.3307 41.4241 60.6727C43.5262 61.0381 45.0919 60.2138 45.7632 58.1122C45.2795 58.1385 44.872 58.3285 44.4644 58.5243C43.7608 58.8634 43.0718 59.4626 42.3506 59.5035C40.2162 59.6263 39.0786 57.8228 39.448 55.1512C39.6152 53.9469 40.2015 52.9881 41.3743 52.6374C42.4854 52.3042 43.5732 52.4328 44.4175 53.4587C44.6345 53.7247 45.171 53.7335 45.558 53.8592V53.8592ZM102.682 55.4668C103.893 55.1599 104.793 54.8296 105.714 54.7653C105.978 54.7478 106.294 55.5078 106.584 55.9082C106.262 56.1245 105.963 56.4139 105.608 56.5425C105.11 56.7237 104.556 56.7354 104.051 56.905C102.905 57.2908 102.005 57.928 102.237 59.3194C102.401 60.3073 103.632 60.9065 104.96 60.6756C105.901 60.5119 106.81 59.749 107.795 60.6756C107.924 60.7984 108.511 60.4389 108.886 60.3015C108.66 60.0823 108.382 59.8923 108.226 59.6321C108.042 59.3223 107.88 58.9569 107.86 58.6032C107.807 57.7819 107.833 56.9547 107.842 56.1274C107.854 55.005 107.479 54.055 106.335 53.7481C105.089 53.4149 103.779 53.3623 102.823 54.4613C102.597 54.7186 102.703 55.2622 102.682 55.4639V55.4668ZM78.21 57.586C79.6672 57.586 80.9806 57.6445 82.2824 57.548C82.6577 57.5217 83.3027 57.057 83.3085 56.7822C83.3349 55.5048 82.8687 54.3941 81.6081 53.8183C79.9955 53.0817 78.1279 53.7072 77.3393 55.2213C76.4304 56.9663 77.0021 59.4012 78.5267 60.2898C80.1157 61.2135 82.042 60.7662 83.0124 59.0417C82.5814 59.0037 82.1475 59.0417 81.8104 59.2404C80.277 60.1553 78.7993 59.5795 78.21 57.5889V57.586ZM54.1454 57.1183C54.1395 54.8852 52.8906 53.5669 50.7972 53.5815C48.8153 53.5961 47.4608 54.9787 47.4168 57.0248C47.3728 59.2229 48.742 60.7049 50.8324 60.7195C52.8701 60.7341 54.1483 59.3457 54.1425 57.1183H54.1454ZM127.166 57.0716C127.146 54.8559 125.87 53.5435 123.774 53.5815C121.801 53.6166 120.449 55.0342 120.44 57.0716C120.432 59.2843 121.801 60.7253 123.906 60.7195C125.946 60.7107 127.187 59.3223 127.169 57.0716H127.166ZM69.4438 58.7874C70.4582 60.6201 72.2085 61.2836 73.8592 60.4681C74.5071 60.1495 75.2049 59.2434 75.2342 58.574C75.2606 58.0303 74.4074 57.3142 73.7888 56.9108C73.2523 56.56 72.4695 56.6039 71.8509 56.3379C71.5108 56.1918 71.2909 55.7708 71.0153 55.4727C71.3261 55.1979 71.6779 54.6572 71.9417 54.6952C72.8184 54.8267 73.6657 55.1658 74.8355 55.5224C75.5186 55.2389 75.1814 54.435 74.5452 54.2216C73.5044 53.8709 72.2789 53.6604 71.2352 53.8826C70.6253 54.0112 69.8543 55.0781 69.8308 55.7475C69.8103 56.3028 70.6957 57.0102 71.329 57.4311C71.8215 57.7585 72.578 57.6679 73.1467 57.9192C73.522 58.0859 73.7771 58.5301 74.0849 58.8488C73.7184 59.1147 73.3344 59.6175 72.9825 59.597C72.2467 59.5561 71.5313 59.2287 70.8013 59.0387C70.4377 58.9452 70.0595 58.8984 69.4438 58.7874ZM57.3646 53.8972C57.2033 53.7803 57.0421 53.6634 56.8808 53.5464C56.6375 53.8855 56.2153 54.21 56.1801 54.5695C56.0834 55.5808 56.1332 56.6068 56.1479 57.6269C56.1918 60.3541 57.9627 61.4736 60.446 60.3687C60.6629 60.2723 61.0411 60.208 61.1789 60.3249C62.0145 61.0322 62.3047 60.6376 62.3194 59.7841C62.3487 58.0362 62.3663 56.2853 62.293 54.5403C62.2784 54.2041 61.8239 53.8855 61.5718 53.5611C61.1848 53.9849 61.1349 54.172 61.1261 54.3561C61.0675 55.613 61.0968 56.8816 60.9356 58.1239C60.7831 59.2989 59.8361 59.6672 58.7836 59.638C57.6402 59.6058 57.3704 58.7903 57.3675 57.8228C57.3646 56.5162 57.3675 55.2067 57.3675 53.9001L57.3646 53.8972ZM116.219 55.1482C116.219 56.5425 116.18 58.0479 116.245 59.5532C116.26 59.9244 116.606 60.281 116.802 60.6435C117.013 60.2839 117.388 59.9303 117.406 59.562C117.473 58.0186 117.435 56.4694 117.435 55.2769C118.115 54.2538 119.608 55.461 119.713 53.7569C118.96 53.6955 118.256 53.637 117.497 53.5727C117.47 52.7017 117.139 51.8306 118.4 51.5822C118.816 51.5003 119.191 51.1963 119.584 50.9947C119.089 50.8251 118.579 50.4831 118.098 50.5211C116.213 50.6585 116.263 52.1931 116.175 53.3214C115.618 53.6809 115.222 53.9352 114.829 54.1895C115.225 54.4613 115.618 54.7361 116.219 55.1512V55.1482ZM114.445 59.7578L114.072 59.331C113.249 59.3837 112.096 60.1524 111.938 58.5857C111.815 57.3551 111.912 56.1011 111.912 55.0869C112.777 54.3386 114.137 55.3879 114.492 53.7715C113.553 53.6955 112.753 53.6312 111.961 53.5669C111.915 52.9355 111.876 52.4094 111.841 51.892C110.334 51.6553 110.839 52.8566 110.654 53.3594C110.126 53.6663 109.716 53.9089 109.302 54.1515C109.722 54.4584 110.141 54.7653 110.689 55.1687C110.689 55.5779 110.68 56.1596 110.689 56.7413C110.707 57.6152 110.633 58.5097 110.795 59.3603C111.041 60.6493 112.085 60.8861 113.172 60.6669C113.639 60.5733 114.023 60.0735 114.442 59.7578H114.445ZM99.6331 50.6819L99.1083 50.3311C98.8649 50.6439 98.4457 50.9362 98.4105 51.2694C98.3108 52.1814 98.3724 53.1109 98.3724 54.0346C98.3753 55.7328 98.3548 57.434 98.4017 59.1323C98.4281 60.0793 98.95 60.7458 99.9438 60.6873C100.433 60.6581 100.9 60.2547 101.375 60.0209L101.169 59.6146L99.6301 59.41V50.6848L99.6331 50.6819ZM65.9608 54.1603C65.7585 54.0404 65.4682 53.868 65.175 53.6926C65.0255 54.0083 64.7558 54.3181 64.747 54.6367C64.703 56.2911 64.6883 57.9455 64.7558 59.597C64.7704 59.9536 65.1662 60.2956 65.3891 60.6435C65.5767 60.3161 65.8904 59.9975 65.9256 59.6555C66.0047 58.8371 65.9402 58.004 65.9578 57.1768C65.9901 55.7767 66.3448 54.6659 68.1069 54.7186C68.3209 54.7244 68.5525 54.2655 68.7753 54.0229C68.5173 53.8621 68.23 53.5318 68.0072 53.5698C67.3124 53.6926 66.641 53.9527 65.9608 54.1573V54.1603ZM130.523 54.1281C130.221 53.9995 129.878 53.8563 129.538 53.713C129.429 54.0083 129.23 54.3006 129.224 54.5958C129.195 56.2911 129.177 57.9894 129.236 59.6818C129.248 60.0092 129.608 60.3249 129.808 60.6435C130.013 60.3424 130.365 60.056 130.394 59.7373C130.479 58.8721 130.385 57.9923 130.438 57.1242C130.52 55.765 130.875 54.6221 132.631 54.7186C132.836 54.7302 133.062 54.359 133.279 54.1661C133.024 53.9586 132.74 53.5494 132.517 53.5815C131.822 53.6809 131.15 53.9469 130.523 54.131V54.1281Z" fill="#6F717B"/>
<path d="M91.4746 56.3846V52.3597C92.7236 52.6607 93.8934 52.804 94.9137 53.2717C95.201 53.4032 95.3007 54.9144 95.0661 55.043C94.0458 55.6071 92.8702 55.8965 91.4746 56.3846Z" fill="#6F717B"/>
<path d="M106.546 57.434C106.546 57.9689 106.672 58.5038 106.526 58.5945C105.834 59.0183 105.089 59.3924 104.312 59.6175C104.107 59.676 103.729 59.1352 103.43 58.8721C103.984 58.4863 104.512 58.0449 105.107 57.7351C105.476 57.5422 105.948 57.5509 106.546 57.4369V57.434Z" fill="#6F717B"/>
<path d="M78.2227 56.4665C78.4396 55.0927 79.2664 54.5402 80.4597 54.6513C81.4037 54.739 82.0429 55.3002 81.9168 56.4665H78.2227Z" fill="#6F717B"/>
<path d="M52.9281 57.168C52.9135 58.7377 52.0457 59.7374 50.741 59.6847C49.5155 59.635 48.5802 58.4542 48.633 57.019C48.6858 55.5721 49.577 54.5724 50.8026 54.5899C52.1278 54.6104 52.9428 55.5955 52.9281 57.1651V57.168Z" fill="#6F717B"/>
<path d="M125.957 57.1826C125.943 58.6705 125.13 59.6555 123.893 59.6877C122.65 59.7198 121.659 58.5945 121.656 57.1476C121.653 55.6305 122.565 54.5636 123.843 54.5929C125.183 54.6221 125.972 55.5925 125.957 57.1826V57.1826Z" fill="#6F717B"/>
</g>
<defs>
<clipPath id="clip0_809_3392">
<rect width="184" height="70" fill="white"/>
</clipPath>
</defs>
</svg>
