<svg width="70" height="70" viewBox="0 0 70 70" fill="none" xmlns="http://www.w3.org/2000/svg">
<g clip-path="url(#clip0_809_3333)">
<path d="M35.4573 41.2532H30.0348C29.6645 39.7107 29.6543 38.1682 27.524 37.2984C25.4345 36.4456 24.4152 37.4377 23.2397 38.3041C21.0652 36.1059 19.0097 34.0266 16.8964 31.8929C16.8794 31.9235 16.9474 31.7638 17.0425 31.6279C18.4661 29.5996 18.5205 28.0265 16.9881 26.134C16.611 25.6686 15.7209 25.4715 15.0447 25.4239C14.1002 25.356 13.7435 24.9925 13.7401 24.0751C13.7333 21.8667 13.6144 19.6549 13.6925 17.4499C13.7095 16.9776 14.389 16.101 14.6982 16.1316C16.6212 16.3083 17.0391 15.0444 17.7696 13.6684C18.636 12.0375 18.1501 11.0319 17.0289 9.96843C16.9134 9.85971 16.876 9.66945 16.6008 9.09526C17.5657 8.22888 18.6767 7.29115 19.713 6.27528C20.7628 5.24582 21.7311 4.13482 22.6111 3.19369C23.0018 3.22087 23.1683 3.1835 23.2125 3.24126C25.0506 5.58558 26.994 4.26053 28.8694 3.34658C29.2092 3.1801 29.5252 2.53796 29.5082 2.13025C29.4436 0.383906 30.2454 -0.152909 31.8899 0.0305591C32.9941 0.152871 34.1221 0.054342 35.4573 0.054342C35.4573 1.43715 35.4199 2.60931 35.4777 3.78147C35.4981 4.17219 35.6646 4.72939 35.95 4.90606C37.1289 5.62974 40.659 4.88228 41.6273 3.78826C42.83 2.43603 45.1845 2.30013 46.5198 3.50287C47.9196 4.76676 48.0555 6.78152 46.8391 8.22888C45.6024 9.70002 43.1698 10.0704 42.086 8.53126C40.8628 6.79511 39.3645 7.04653 37.7676 7.02274C37.0983 7.01255 36.429 7.02274 35.651 7.02274C35.5321 7.82457 35.4369 8.4735 35.301 9.39085C31.1254 9.53354 27.4085 10.9265 24.9928 14.6571C23.6032 16.8043 23.0222 19.1962 23.2499 21.7716C23.7561 27.4523 27.5036 30.714 34.9001 32.0696C35.4607 32.9428 35.95 34.278 36.3679 34.2542C38.0972 34.1659 40.0644 35.2701 41.5491 33.3403C42.8776 31.6143 45.1641 31.509 46.6115 32.919C47.9671 34.2406 47.923 36.6903 46.5232 37.9338C45.0724 39.2249 42.5854 39.0244 41.471 37.3188C40.5469 35.902 39.2762 36.4049 38.121 36.3743C35.4607 36.3029 35.4607 36.3539 35.4539 39.0006C35.4539 39.6767 35.4539 40.3528 35.4539 41.2532H35.4573Z" fill="#6F717B"/>
<path d="M50.2129 53.002H40.078V50.4165H53.9672C54.4802 51.66 54.0148 52.7064 53.2605 53.7733C50.1925 58.1051 47.1687 62.4676 43.9308 67.1019H54.2322V69.9524C51.5753 69.9524 48.9864 69.9524 46.3974 69.9524C43.625 69.9524 40.8492 69.8879 38.0802 69.983C36.9318 70.0204 36.1912 69.7044 35.9635 68.5798C35.3622 65.5696 33.5173 64.5877 30.6158 65.1279C29.9057 65.2604 29.1344 65.2434 28.4141 65.1279C26.2227 64.7882 24.8909 65.4711 24.157 67.7406C23.3756 70.1461 23.1853 70.085 20.0527 69.8471C21.1196 67.3669 22.1456 64.9512 23.1989 62.5492C24.8059 58.873 26.4571 55.2172 28.0336 51.5275C28.4107 50.6407 28.8456 50.2296 29.8785 50.233C30.8944 50.2364 31.3564 50.5931 31.7471 51.5003C34.0915 56.95 36.5003 62.3691 38.8922 67.7984C39.1301 68.3386 39.3985 68.8652 39.5004 69.0759C40.258 67.7406 40.9444 66.3171 41.8243 65.026C44.4948 61.1154 47.24 57.2524 50.2163 53.002H50.2129ZM26.6032 62.2672H33.2319C32.1311 59.6918 31.105 57.2863 29.9294 54.5377C28.7505 57.2761 27.7346 59.634 26.6032 62.2672V62.2672Z" fill="#6F717B"/>
<path d="M18.374 50.4504V69.8607H15.5676V58.9409L15.126 58.8288C14.246 60.7858 13.3592 62.7428 12.4928 64.7032C11.8983 66.0452 11.4124 67.445 10.7159 68.7327C10.4339 69.2559 9.78158 69.7078 9.1972 69.915C8.24589 70.2514 7.83138 69.5379 7.48823 68.7463C6.07484 65.488 4.62069 62.2433 2.85395 59.0225V69.8267H0V50.4776C1.70558 49.866 2.58555 50.4198 3.28205 52.1458C5.04878 56.532 7.06014 60.8232 9.14284 65.5356C10.1111 63.3713 10.93 61.5604 11.7284 59.7393C12.8428 57.2014 14.0693 54.7075 14.9968 52.1016C15.6118 50.3723 16.5869 49.9544 18.3774 50.4572L18.374 50.4504Z" fill="#6F717B"/>
<path d="M37.846 13.6242C39.205 13.6242 40.5709 13.5155 41.9163 13.648C44.1281 13.8655 45.7997 12.6355 47.563 11.6808C47.9334 11.4804 48.1066 10.7669 48.2188 10.2539C48.6571 8.25269 50.4408 7.10771 52.4114 7.61395C54.3276 8.10659 55.3808 10.0262 54.8134 11.9968C54.3004 13.7771 52.2177 14.9629 50.5257 14.0795C49.1055 13.3388 48.0727 13.7262 46.9617 14.4125C45.4124 15.3706 43.7612 15.6526 41.9537 15.588C39.2424 15.4929 36.521 15.5405 33.8063 15.571C30.5209 15.605 28.1018 17.7183 28.0372 20.5587C27.9693 23.5145 30.3102 25.7501 33.6976 25.8419C36.3545 25.9132 39.0216 25.954 41.6751 25.8317C43.7849 25.7331 45.708 26.1137 47.4747 27.2485C48.3886 27.8362 49.1667 27.9382 50.2641 27.3946C52.109 26.4806 54.2291 27.5135 54.7964 29.321C55.3978 31.227 54.3582 33.2452 52.4997 33.782C50.5563 34.3426 48.7318 33.1127 48.1848 31.0266C48.0251 30.415 47.5427 29.7423 47.016 29.3957C45.1338 28.1692 43.0884 27.5848 40.7645 27.7377C38.1722 27.9076 35.5628 27.7989 32.9603 27.7683C29.1041 27.7207 26.155 24.8022 26.1176 21.0343C26.0768 17.049 28.9444 13.8349 32.7565 13.6752C34.4518 13.6038 36.1506 13.6616 37.846 13.6616V13.6242V13.6242Z" fill="#6F717B"/>
<path d="M69.4592 67.1834V69.8607H56.8066V50.3926H69.4252V52.9952H59.9358V58.4754H68.868V61.2988H59.8067C59.8067 63.1063 59.7353 64.727 59.8678 66.3306C59.895 66.6466 60.6935 67.1324 61.1487 67.1426C63.86 67.2208 66.5712 67.18 69.4626 67.18L69.4592 67.1834Z" fill="#6F717B"/>
<path d="M40.2855 19.7432C41.9265 19.7432 43.5709 19.7161 45.2119 19.75C46.7986 19.784 48.2086 19.8112 49.3672 18.2313C50.4 16.8213 52.87 17.0694 54.0626 18.34C55.2789 19.6413 55.1906 22.057 53.8757 23.2529C52.5847 24.4285 50.1486 24.4828 49.1701 23.0355C48.2528 21.6832 47.1418 21.6663 45.8167 21.6765C41.9673 21.7036 38.1144 21.7172 34.265 21.6595C33.5107 21.6493 32.1959 22.237 32.2434 20.6776C32.291 19.1555 33.5889 19.8112 34.3431 19.7772C36.3205 19.6855 38.3047 19.7466 40.2889 19.7466L40.2855 19.7432Z" fill="#6F717B"/>
</g>
<defs>
<clipPath id="clip0_809_3333">
<rect width="69.4598" height="70" fill="white"/>
</clipPath>
</defs>
</svg>
