<svg width="251" height="70" viewBox="0 0 251 70" fill="none" xmlns="http://www.w3.org/2000/svg">
<g clip-path="url(#clip0_809_3294)">
<path d="M35.1555 4.75853e-06C54.2292 4.75853e-06 69.8807 15.7483 69.8662 34.9318C69.8517 54.0812 54.1422 70.039 35.1748 70C26.0536 69.9805 18.1312 66.6866 11.277 60.5569C5.45724 55.3529 3.06456 48.1999 0 41.4026C0.106341 30.1469 1.43077 19.3151 9.89941 10.7782C16.8889 3.73243 25.2222 -0.00486786 35.1555 4.75853e-06ZM46.7902 11.2119C48.2306 12.0792 49.4052 12.6201 50.3913 13.4046C54.6594 16.7715 58.6134 20.3822 59.5173 26.2049C59.701 27.4085 60.542 28.0224 61.7021 28.1053C62.6882 28.1735 63.4374 27.6911 63.7419 26.7312C64.0948 25.6251 63.9401 24.4946 62.8187 24.0317C61.7504 23.5883 61.1849 22.8769 60.6725 21.9219C54.3549 10.1789 42.5172 4.49256 29.5 6.91425C16.5747 9.32132 6.31764 22.0827 6.7285 35.3119C6.75267 36.0427 6.27897 37.2219 7.85959 37.1634C9.27103 37.1098 9.01484 36.2133 9.00034 35.3265C8.95684 32.2177 9.51271 29.2162 10.4843 26.2634C10.8516 25.1524 11.4027 24.7188 12.5628 24.7529C14.9748 24.8162 17.3965 24.8357 19.8036 24.7139C21.3214 24.636 21.8725 25.206 21.6501 26.6581C21.3456 28.6266 21.8483 29.8009 24.1491 29.338C25.9521 28.9775 26.305 29.952 26.2035 31.5404C26.1116 32.9438 26.392 34.1717 24.1878 34.1424C19.2961 34.0791 19.3251 34.2106 19.2671 39.2441C19.2574 40.3306 19.7795 41.6121 18.8272 42.4892C16.9904 44.18 15.0425 45.7539 13.1428 47.3813C12.7561 47.7078 12.2534 48.0781 12.0456 47.3423C11.6299 45.8757 10.1169 44.716 10.958 42.8644C11.422 41.8412 11.219 40.7351 10.0638 40.1601C9.02451 39.6436 8.02877 39.7849 7.24571 40.7205C6.40464 41.7291 6.6705 42.84 7.45356 43.5661C8.34779 44.3944 8.70548 45.4323 9.14052 46.4458C15.9222 62.3159 34.5416 68.6405 49.5405 60.1427C59.4158 54.5489 65.1099 43.1811 63.7758 31.94C63.5921 30.3905 62.7075 29.874 61.881 30.7803C60.716 32.0569 59.4641 31.711 58.2073 31.7256C53.8135 31.7743 53.7458 31.7451 53.6395 27.4864C53.6057 26.1465 53.1416 25.8541 51.938 25.8931C49.6034 25.971 47.2639 25.8249 44.934 25.9467C43.5613 26.0198 43.1359 25.0842 42.609 24.212C41.9951 23.1937 42.9377 22.6674 43.5081 22.2581C46.3696 20.2165 47.3122 17.4683 46.7998 14.0672C46.679 13.2779 46.7805 12.4495 46.7805 11.2168L46.7902 11.2119Z" fill="#6F717B"/>
<path d="M220.242 45.8416C224.887 42.9083 229.242 42.343 233.326 46.4166C234.119 47.2108 234.438 46.3142 234.849 45.9537C236.29 44.6916 237.967 43.9997 239.828 43.6733C245.275 42.7182 249.558 45.7052 250.032 51.2502C250.399 55.5186 250.162 59.8357 250.24 64.1334C250.259 65.1225 249.819 65.2882 248.944 65.3662C243.951 65.8096 243.956 65.8339 243.951 60.8054C243.951 58.374 243.994 55.9376 243.917 53.5062C243.83 50.7922 242.568 49.2719 240.408 49.0867C237.827 48.8675 236.145 50.0954 235.584 52.7558C234.859 56.2056 235.294 59.709 235.289 63.1832C235.289 64.8058 234.984 65.4246 233.21 65.3905C229.005 65.3126 229.01 65.4149 229 61.2196C228.995 58.5445 229.039 55.8646 228.923 53.1944C228.812 50.5973 227.555 49.2378 225.399 49.0819C222.915 48.9065 221.204 50.1246 220.701 52.6145C219.99 56.1423 220.411 59.7285 220.392 63.2856C220.382 64.7766 220.126 65.4051 218.439 65.3856C214.084 65.3418 214.079 65.4344 214.079 61.1221C214.079 56.0936 214.142 51.065 214.045 46.0414C214.011 44.3847 214.417 43.6051 216.162 43.8633C216.79 43.9559 217.453 43.9266 218.091 43.8633C219.439 43.7366 220.493 43.9364 220.237 45.8367L220.242 45.8416Z" fill="#6F717B"/>
<path d="M144.387 29.9373C144.387 32.7001 144.344 35.2095 144.407 37.714C144.441 38.9663 144.213 39.5754 142.729 39.6046C138.128 39.6972 138.07 39.7703 138.05 35.1461C138.017 27.5351 138.113 19.9192 138.05 12.3082C138.036 10.7197 138.471 10.0863 140.056 10.3104C140.69 10.3981 141.352 10.3933 141.98 10.3104C143.396 10.1301 144.291 10.5151 143.972 12.5811C146.954 10.174 149.994 9.57466 153.267 10.364C155.582 10.9244 157.554 12.0402 159.033 14.0331C162.224 18.3356 162.026 24.826 158.492 28.8605C155.244 32.5734 149.303 33.1191 144.387 29.9373ZM144.315 21.0935C144.329 24.6262 146.48 26.9504 149.7 26.9163C152.822 26.8822 155.07 24.3436 154.997 20.9376C154.93 17.6632 152.692 15.2659 149.651 15.2074C146.524 15.1489 144.3 17.5999 144.315 21.0935V21.0935Z" fill="#6F717B"/>
<path d="M115.941 56.4736C113.93 56.4736 111.919 56.4395 109.908 56.4931C109.343 56.5077 108.492 56.0935 108.265 56.9657C108.096 57.6138 108.627 58.1595 109.058 58.6468C110.88 60.742 114.699 61.1952 117.546 59.7675C118.189 59.4459 118.74 58.2862 119.59 59.0025C120.625 59.8796 121.529 60.9467 122.331 62.0479C122.65 62.4864 121.935 62.8129 121.616 63.1052C117.7 66.7061 108.917 66.3943 104.881 62.5254C100.724 58.5396 100.521 51.83 104.422 47.1864C107.25 43.8194 112.862 42.6256 117.517 44.4041C121.471 45.9146 124.221 50.3 124.115 54.7682C124.086 55.9717 123.762 56.537 122.457 56.4882C120.286 56.4054 118.116 56.4639 115.941 56.4639V56.4736ZM118 52.6925C117.72 50.1051 116.163 48.9405 114.104 48.4533C111.876 47.927 110.015 48.7651 108.594 50.568C108.183 51.0894 107.878 51.7618 108.101 52.3611C108.342 53.0092 109.082 52.673 109.594 52.6778C112.316 52.7119 115.042 52.6925 118 52.6925V52.6925Z" fill="#6F717B"/>
<path d="M145.102 56.4736C146.228 60.2937 150.516 61.736 154.455 59.8649C155.127 59.5433 155.693 58.4275 156.5 59.0463C157.505 59.8162 158.337 60.8541 159.115 61.8773C159.622 62.5449 158.801 62.8811 158.433 63.1686C154.146 66.5112 149.443 66.2578 144.744 64.3965C140.708 62.7982 138.48 58.9001 138.567 54.3101C138.659 49.647 141.143 46.1485 145.658 44.3359C153.034 41.3685 160.671 46.3727 160.937 54.2468C161 56.1228 160.386 56.5662 158.617 56.5174C154.131 56.3956 149.646 56.4785 145.102 56.4785V56.4736ZM155.088 52.6924C154.189 49.9297 152.71 48.4094 150.158 48.3461C148.036 48.2925 146.252 49.0282 145.242 51.1186C144.73 52.1711 144.73 52.7412 146.151 52.7119C149.027 52.6535 151.908 52.6924 155.093 52.6924H155.088Z" fill="#6F717B"/>
<path d="M198.621 65.6828C191.675 65.6975 186.619 60.9905 186.629 54.5197C186.639 48.3315 191.695 43.5709 198.336 43.4978C204.818 43.4247 210.005 48.2681 210.092 54.4758C210.179 60.6982 205.089 65.6731 198.616 65.6828H198.621ZM198.322 60.474C201.459 60.4886 203.822 57.9451 203.784 54.5928C203.745 51.1966 201.43 48.7408 198.297 48.77C195.243 48.7992 193.014 51.1917 192.995 54.4661C192.976 57.8672 195.267 60.4545 198.317 60.4691L198.322 60.474Z" fill="#6F717B"/>
<path d="M190.341 29.5719C186.798 32.6612 181.607 32.9438 178.358 30.4734C176.405 28.9872 175.661 26.9456 176.086 24.4849C176.584 21.5955 178.614 20.2993 181.157 19.6172C183.506 18.9837 185.933 19.0568 188.34 19.1494C190.249 19.2225 190.061 18.2577 189.423 17.0639C188.804 15.9091 187.784 15.3195 186.508 15.1928C184.487 14.9979 182.462 14.9736 180.674 16.0943C179.344 16.9226 178.682 16.6936 178.01 15.2318C176.671 12.3229 176.57 12.3472 179.572 11.2022C182.965 9.91093 186.431 9.60882 189.959 10.5833C193.71 11.6212 195.967 14.3353 196.083 18.2577C196.204 22.2192 196.098 26.1903 196.18 30.1566C196.204 31.4089 195.851 31.9498 194.561 31.8133C193.768 31.7256 192.942 31.7013 192.154 31.8182C190.655 32.0472 190.114 31.3651 190.346 29.5817L190.341 29.5719ZM186.982 22.9744C186.107 22.9744 185.464 22.9257 184.835 22.9842C183.39 23.1206 182.1 23.5348 182.104 25.3425C182.109 27.1015 183.4 27.6034 184.802 27.8227C185.575 27.9445 186.363 27.8714 187.151 27.5937C188.915 26.9748 190.177 25.898 189.872 23.9197C189.543 21.8001 187.726 23.525 186.982 22.9744V22.9744Z" fill="#6F717B"/>
<path d="M126.518 29.6547C121.655 32.8025 117.619 32.9048 114.027 30.3174C111.359 28.3976 110.861 25.5276 110.726 22.5992C110.562 19.0373 110.711 15.4608 110.663 11.8941C110.649 10.788 110.943 10.3641 112.137 10.2958C116.908 10.0181 116.884 9.96938 116.913 14.8566C116.927 17.4488 116.855 20.0557 117.135 22.6236C117.459 25.591 118.943 26.7702 121.553 26.6191C124.106 26.4729 125.899 24.7919 126.015 22.1119C126.155 18.8716 126.14 15.6216 126.058 12.3813C126.02 10.8757 126.339 10.2666 128.016 10.2812C132.332 10.3202 132.332 10.2325 132.332 14.5691C132.332 19.5197 132.25 24.4703 132.376 29.4111C132.424 31.2773 131.975 32.1349 130.022 31.8036C129.476 31.711 128.886 31.7207 128.335 31.8036C126.904 32.0131 126.174 31.521 126.522 29.6547H126.518Z" fill="#6F717B"/>
<path d="M87.4266 17.7948C87.4266 13.8236 87.4749 9.85243 87.4024 5.88124C87.3783 4.50229 87.6248 3.89322 89.2102 3.85911C94.0487 3.75678 94.0439 3.67882 94.0439 8.60991C94.0439 13.7164 94.1793 18.8278 93.9811 23.9245C93.8941 26.1854 94.6578 26.6435 96.6928 26.5314C99.8202 26.3657 102.972 26.5996 106.099 26.4534C108.516 26.3414 107.854 28.0029 107.863 29.2211C107.868 30.3613 108.501 31.8718 106.215 31.823C100.507 31.7012 94.7931 31.7353 89.0797 31.8133C87.6006 31.8328 87.3783 31.214 87.3976 29.9422C87.4604 25.8931 87.4218 21.8391 87.4218 17.785L87.4266 17.7948Z" fill="#6F717B"/>
<path d="M169.91 54.9436C169.852 57.3945 171.031 59.2218 173.37 60.1135C175.608 60.9662 177.624 60.4204 179.321 58.676C180.186 57.7844 182.854 58.4275 184.208 59.8357C185.416 61.0929 183.956 61.7604 183.429 62.3792C180.491 65.8144 174.555 66.6087 169.586 64.377C165.564 62.5693 163.167 58.1401 163.66 53.4282C164.167 48.6043 167.44 44.9499 172.273 43.9315C176.334 43.0739 180.152 43.5661 183.26 46.5871C184.101 47.4057 185.295 48.4484 184.396 49.92C183.855 50.8019 179.848 51.1089 179.176 50.4072C177.368 48.5264 175.202 48.3022 172.974 49.2816C170.644 50.3049 169.779 52.3465 169.91 54.9436V54.9436Z" fill="#6F717B"/>
<path d="M87.378 54.739C87.378 53.6865 87.3007 52.6242 87.3974 51.5766C87.5424 49.9687 87.3249 48.9357 85.2851 49.189C83.4869 49.4132 83.9606 47.8588 84.067 46.9818C84.1733 46.0754 83.1147 44.2726 85.1159 44.4285C87.4795 44.6137 87.6246 43.376 87.3684 41.6852C87.0542 39.6046 87.7309 38.6252 89.9302 39.0491C90.3943 39.1368 90.9018 39.1271 91.3755 39.0491C93.1446 38.7665 93.9664 39.4 93.6232 41.271C93.1543 43.7999 94.1839 44.8427 96.6926 44.3603C98.7904 43.9559 98.9499 45.1058 98.9982 46.8258C99.0562 48.7456 98.4907 49.5789 96.5717 49.2232C94.1452 48.77 93.2655 49.7153 93.5845 52.1955C93.7972 53.8716 93.6038 55.5965 93.6328 57.302C93.6763 60.0842 94.7059 61.0539 97.3886 60.435C100.241 59.7772 99.3076 62.3013 99.936 63.3781C100.888 65.0007 99.0901 65.0445 98.3409 65.22C92.1586 66.6769 86.8753 64.2503 87.378 56.9268C87.4264 56.2007 87.3829 55.465 87.3829 54.739H87.378Z" fill="#6F717B"/>
<path d="M134.347 50.49C134.347 54.7877 134.304 59.0902 134.371 63.3878C134.395 64.757 134.178 65.3856 132.568 65.3856C128.073 65.3954 128.073 65.4831 128.073 60.9954C128.073 53.3697 128.15 45.7441 128.025 38.1185C127.991 36.0232 128.668 35.5408 130.616 35.6139C134.347 35.7504 134.352 35.6432 134.352 39.2976C134.352 43.0301 134.352 46.7625 134.352 50.4949L134.347 50.49Z" fill="#6F717B"/>
<path d="M171.597 21.1959C171.597 24.1876 171.543 27.1843 171.621 30.1761C171.655 31.4478 171.249 31.7987 169.982 31.8279C165.351 31.9448 165.356 31.9984 165.356 27.3451C165.356 22.4091 165.448 17.4732 165.308 12.5421C165.255 10.6661 165.854 10.2422 167.618 10.2861C171.597 10.3933 171.601 10.3007 171.601 14.4034C171.601 16.6692 171.601 18.935 171.601 21.2007L171.597 21.1959Z" fill="#6F717B"/>
<path d="M168.715 0.47753C170.871 0.57011 172.481 2.04651 172.389 3.85425C172.287 5.81792 170.455 7.45024 168.464 7.36254C166.231 7.26021 164.636 5.73021 164.703 3.74218C164.771 1.75903 166.468 0.380078 168.715 0.472658V0.47753Z" fill="#6F717B"/>
<path d="M34.2765 61.6435C27.0791 61.5948 20.2539 58.2424 14.8643 51.7862C13.8686 50.5924 13.8444 49.8323 15.106 48.8626C16.8317 47.5421 18.4848 46.1193 20.0751 44.6381C20.8485 43.9169 21.3608 43.8974 21.9989 44.716C23.6568 46.8454 26.7697 48.044 26.2284 51.5718C26.1414 52.1321 26.6537 52.4099 27.1951 52.4099C30.3322 52.4245 33.4741 52.4245 36.6111 52.4196C37.0075 52.4196 37.573 52.3758 37.5392 51.8885C37.3894 49.5009 39.1102 50.1587 40.3186 50.1685C42.1216 50.1831 43.8617 50.2757 44.9493 48.39C45.4665 47.4885 46.0852 47.8345 46.7039 48.4143C48.531 50.1198 50.3147 51.8836 52.2626 53.438C53.4807 54.4125 53.0215 54.8559 52.1176 55.5917C47.2549 59.5531 41.7445 61.6484 34.2813 61.6337L34.2765 61.6435Z" fill="#6F717B"/>
<path d="M25.8658 44.9548C23.9178 42.7913 21.0176 41.5488 21.5735 37.9041C21.7523 36.7298 21.9215 36.1889 23.2266 36.1938C24.8894 36.2036 27.021 36.9588 28.0941 35.8479C29.1623 34.7466 28.4615 32.5978 28.4035 30.9265C28.3455 29.3234 29.1817 29.1675 30.3418 29.3332C32.4638 29.645 33.5368 28.958 33.1163 26.6289C32.836 25.0891 33.5948 24.6019 35.0305 24.7529C35.828 24.8357 36.6401 24.7675 37.4425 24.7675C40.391 24.7675 42.1215 26.4534 42.194 29.4696C42.2423 31.4966 42.2713 33.5285 42.1795 35.5506C42.1167 36.988 42.5517 37.7677 44.0695 37.4753C46.5733 36.9929 46.931 38.2306 46.844 40.4232C46.6797 44.7599 43.2912 48.0489 39.0473 47.8394C37.8292 47.7809 37.6068 47.3326 37.5923 46.246C37.5681 44.565 38.356 42.3625 37.2685 41.3442C36.0939 40.243 33.8945 41.0957 32.1496 40.9787C31.6662 40.9495 31.1828 40.9787 30.6995 40.9787C27.9249 40.9787 26.3121 42.3024 25.8609 44.9499L25.8658 44.9548Z" fill="#6F717B"/>
<path d="M35.4166 8.61481C36.4413 8.70251 37.1567 8.7756 37.877 8.82433C44.2429 9.24825 45.4659 10.8026 44.4604 17.2101C44.1994 18.8619 40.1585 22.4433 38.4908 22.4871C37.7706 22.5066 37.0359 22.4092 36.3253 22.5066C34.0487 22.8087 32.5889 22.3458 33.0819 19.5343C33.4203 17.6048 31.9992 17.6681 30.7859 17.8192C28.9008 18.0579 28.1467 17.3563 28.4222 15.4365C28.5383 14.6471 28.4416 13.8236 28.4416 13.0148C28.4416 10.4225 29.7467 9.02736 32.3569 8.8292C33.4735 8.74637 34.5949 8.67815 35.4118 8.62455L35.4166 8.61481Z" fill="#6F717B"/>
<path d="M57.7333 34.0255C62.1899 34.0255 62.1029 34.0108 61.4794 38.6106C60.8172 43.4686 58.9417 47.7467 55.9883 51.6156C55.1956 52.6535 54.7219 52.6973 53.7841 51.7813C52.0585 50.0905 50.1782 48.5653 48.3946 46.933C47.9209 46.4945 46.8816 45.9634 47.7323 45.2276C49.5788 43.6245 49.1776 41.5537 49.0713 39.5997C48.9746 37.8456 49.5981 37.2463 51.2513 37.4996C52.8754 37.7481 53.9436 37.3778 53.6149 35.3654C53.4313 34.2496 54.1273 33.9914 55.0747 34.0255C55.9593 34.0596 56.8439 34.0303 57.7333 34.0303V34.0255Z" fill="#6F717B"/>
<path d="M12.2431 22.4969C15.3802 17.0347 19.4115 13.3218 24.6947 10.9585C25.8983 10.4225 26.2802 10.7003 26.1835 11.9672C26.1303 12.6883 26.0916 13.4338 26.1883 14.1452C26.5508 16.7277 26.053 18.3698 22.8917 17.8192C21.287 17.5414 21.5625 18.9496 21.6833 19.7975C22.012 22.0925 21.0694 22.7259 18.9088 22.531C16.8496 22.3458 14.7663 22.492 12.2383 22.492L12.2431 22.4969Z" fill="#6F717B"/>
<path d="M47.8828 35.1608C45.5755 35.1608 44.4219 33.9394 44.4219 31.4966C44.4219 28.2466 44.4219 28.2173 48.3372 28.2563C52.0011 28.2904 51.4307 27.6765 51.4404 32.3152C51.4452 35.6968 51.8851 35.1023 47.8828 35.1608V35.1608Z" fill="#6F717B"/>
<path d="M30.8342 23.6809C30.7521 27.5498 31.4723 27.0235 27.064 27.0235C23.4145 27.0235 23.9704 27.5498 23.9317 23.2716C23.9027 20.0703 23.9317 20.0703 28.0984 20.0752C29.9255 20.0752 30.8391 21.2771 30.8391 23.6809H30.8342Z" fill="#6F717B"/>
<path d="M31.8202 50.2025C29.5677 50.2025 28.4414 48.9422 28.4414 46.4214C28.4414 43.2737 28.4414 43.2396 32.1875 43.2834C35.895 43.3273 35.3198 42.6987 35.3391 47.2887C35.3536 50.7337 35.6581 50.1489 31.8202 50.2025Z" fill="#6F717B"/>
</g>
<defs>
<clipPath id="clip0_809_3294">
<rect width="250.25" height="70" fill="white"/>
</clipPath>
</defs>
</svg>
