<svg width="43" height="70" viewBox="0 0 43 70" fill="none" xmlns="http://www.w3.org/2000/svg">
<g clip-path="url(#clip0_809_3354)">
<path d="M0 56.692V44.2276C2.59394 44.3635 5.20814 44.185 7.68049 44.692C12.9596 45.775 13.4338 51.7638 10.927 54.5828C9.69687 55.9659 8.07161 56.6129 6.25991 56.6757C4.20097 56.7467 2.13797 56.692 0 56.692V56.692ZM2.81078 54.3577C3.9821 54.3577 5.09871 54.4104 6.20722 54.3455C7.79803 54.2522 9.16188 52.9827 9.44153 51.4414C9.77996 49.5756 9.06663 47.9328 7.59335 47.1743C6.06131 46.3875 4.43402 46.791 2.81078 46.6754V54.3577V54.3577Z" fill="#6F717B"/>
<path d="M35.9632 31.1974C34.5162 31.7815 33.2091 32.396 31.8433 32.8138C31.284 32.9861 30.5889 32.7671 29.9667 32.6677C25.1477 31.9011 20.3286 31.1284 15.5156 30.3253C15.236 30.2787 14.8692 30.0049 14.7679 29.7494C13.1568 25.7075 11.5923 21.6453 9.98933 17.6014C9.65698 16.7638 10.4108 16.4697 10.6844 15.7457C11.3613 17.2708 11.9713 18.6397 12.5731 20.0127C13.5398 22.2152 14.5145 24.4176 15.4528 26.6323C15.6372 27.0683 15.9453 27.2082 16.3465 27.2853C19.7835 27.9546 23.2184 28.6238 26.6554 29.2931C29.6182 29.8711 32.5789 30.4511 35.5396 31.0311C35.641 31.0514 35.7362 31.1061 35.9652 31.1974H35.9632Z" fill="#6F717B"/>
<path d="M12.7732 13.1012C13.8716 15.0319 14.9862 16.8429 15.9447 18.7331C16.5831 19.9925 17.416 20.68 18.8366 21.0349C23.6536 22.2355 28.4281 23.6146 33.2228 24.9044C33.6889 25.0302 33.9888 25.2532 34.1895 25.6893C34.5279 26.4234 34.9068 27.1414 35.3324 27.9972C34.9008 27.9262 34.5725 27.8897 34.2543 27.8167C28.4787 26.4701 22.7052 25.1133 16.9256 23.7809C16.4291 23.6673 16.1251 23.4523 15.9002 22.992C14.6741 20.4731 13.4501 17.9503 12.1531 15.4679C11.7802 14.752 11.7782 14.2227 12.3396 13.669C12.4774 13.5332 12.5787 13.3608 12.7712 13.1053L12.7732 13.1012Z" fill="#6F717B"/>
<path d="M15.1261 9.77112C16.0421 10.9575 16.9419 12.0547 17.7626 13.2107C18.3057 13.9753 18.9663 14.4539 19.8621 14.7601C23.4652 15.985 27.0481 17.2647 30.6289 18.5546C30.943 18.6682 31.2713 18.95 31.4335 19.2421C31.9948 20.2541 32.4873 21.3066 33.0445 22.4221C32.848 22.3916 32.7102 22.3876 32.5845 22.3491C27.8648 20.8848 23.143 19.4266 18.4334 17.936C18.0727 17.8225 17.6917 17.5365 17.4769 17.2242C16.3136 15.5247 15.2072 13.7866 14.0602 12.077C13.8251 11.7262 13.8332 11.4605 14.0926 11.1441C14.433 10.7243 14.7451 10.2822 15.1261 9.77517V9.77112Z" fill="#6F717B"/>
<path d="M35.7532 56.6879H33.0762V47.2818H35.6012C35.6235 47.582 35.6478 47.8781 35.6762 48.2553C35.8505 48.1397 35.9883 48.0566 36.1159 47.9572C37.5933 46.8215 39.9846 46.8195 41.397 47.9511C42.082 48.5007 42.5319 49.2308 42.5805 50.0805C42.7041 52.2648 42.7325 54.455 42.8014 56.6839H40.017C40.017 56.4567 40.017 56.2255 40.017 55.9964C40.017 54.5463 40.0312 53.0942 40.0109 51.6442C39.9906 50.2468 39.3401 49.4965 38.1708 49.464C36.7766 49.4255 35.8545 50.2327 35.7998 51.6259C35.7451 53.0516 35.7654 54.4814 35.7532 55.9112C35.7532 56.1485 35.7532 56.3878 35.7532 56.692V56.6879Z" fill="#6F717B"/>
<path d="M31.0579 52.7657H23.9773C24.1475 54.7268 27.2947 55.3535 29.0152 53.8081C29.4854 54.305 29.9596 54.8018 30.4459 55.3149C29.8035 56.0633 29.0253 56.4892 28.1276 56.6717C26.1254 57.0814 24.2306 56.8927 22.6438 55.4589C21.282 54.2299 20.9254 52.644 21.2861 50.8999C21.659 49.0929 22.7897 47.9065 24.5366 47.363C27.163 46.5457 29.6981 47.5962 30.7296 49.9122C31.1208 50.7883 31.2261 51.7212 31.0579 52.7636V52.7657ZM28.5106 51.1493C28.3586 49.8534 27.4021 49.0949 26.0788 49.1659C24.8345 49.2348 23.9874 50.0116 23.9611 51.1493H28.5126H28.5106Z" fill="#6F717B"/>
<path d="M9.02204 18.1287C9.78198 20.3048 10.5338 22.4647 11.2877 24.6246C12.2037 27.2468 13.1278 29.865 14.0255 32.4913C14.1755 32.9294 14.4045 33.0977 14.8625 33.1545C18.6439 33.6149 22.4214 34.1016 26.1988 34.5843C26.3913 34.6086 26.5818 34.6613 26.9385 34.7364C25.7225 35.2414 24.5918 35.5882 23.5866 36.158C21.9715 37.0747 20.3138 36.6529 18.6581 36.5312C17.2173 36.4237 15.7805 36.2412 14.3396 36.1357C13.7357 36.0911 13.4419 35.8478 13.2595 35.2535C12.0537 31.3232 10.8094 27.407 9.5773 23.4848C9.22266 22.3592 8.91869 21.2134 8.49312 20.1142C8.17495 19.2948 8.3087 18.6864 9.01596 18.1287H9.02204Z" fill="#6F717B"/>
<path d="M29.2613 14.4113C26.9328 13.4865 24.6469 12.4319 22.2657 11.6734C20.1865 11.0103 18.7274 9.68188 17.4001 8.08581C17.2602 7.91748 17.1184 7.75118 16.9238 7.52404C17.4548 6.78381 17.9959 6.02937 18.5268 5.28711C18.6119 5.30536 18.6666 5.29928 18.6889 5.32361C20.2635 7.05354 22.3691 7.92965 24.4807 8.66989C26.4626 9.36754 27.8062 10.5134 28.4912 12.4948C28.708 13.1235 29.0829 13.6974 29.3849 14.2977L29.2592 14.4113H29.2613Z" fill="#6F717B"/>
<path d="M20.2102 47.1297V49.5512C19.9832 49.5634 19.7501 49.5776 19.5191 49.5877C18.133 49.6425 17.2778 50.3563 17.1582 51.7456C17.0549 52.9685 17.1035 54.2035 17.0873 55.4325C17.0832 55.826 17.0873 56.2215 17.0873 56.6676H14.4609V47.2757H16.9292C16.9515 47.6286 16.9738 47.9673 17.0042 48.45C17.9182 47.5029 18.9578 47.0932 20.2081 47.1318L20.2102 47.1297Z" fill="#6F717B"/>
<path d="M14.002 63.8875C14.9909 63.7394 15.0638 63.7577 15.307 64.1937C16.4905 63.565 17.674 63.6664 18.3671 64.4533C19.0682 65.2483 19.1473 66.6477 18.5434 67.5177C17.8746 68.479 16.8229 68.6635 15.2685 68.0551V70H14.002V63.8875V63.8875ZM17.6274 66.1001C17.6233 65.3375 17.1208 64.7859 16.4459 64.8021C15.767 64.8204 15.2503 65.3903 15.2543 66.1123C15.2604 66.8363 15.7954 67.4143 16.4561 67.4102C17.137 67.4061 17.6314 66.8525 17.6274 66.1001V66.1001Z" fill="#6F717B"/>
<path d="M16.079 39.1656C14.9097 39.6402 13.7425 40.1168 12.5164 40.6157C12.0402 38.8229 11.5802 37.0909 11.1181 35.3569C9.85157 30.5971 8.58094 25.8393 7.33463 21.0734C7.26371 20.7996 7.38327 20.4751 7.41367 20.175L7.67103 20.1811C8.04594 21.4932 8.4249 22.8054 8.79778 24.1195C10.1231 28.7962 11.4545 33.4709 12.7596 38.1536C12.8934 38.6343 13.1021 38.831 13.6047 38.8411C14.4315 38.8573 15.2563 38.9466 16.0811 39.0054L16.077 39.1656H16.079Z" fill="#6F717B"/>
<path d="M8.13867 67.7428C8.28458 67.4386 8.4163 67.1668 8.50952 66.9741C9.24718 67.1303 9.91593 67.2946 10.5948 67.4041C10.8177 67.4406 11.0954 67.3879 11.2879 67.2743C11.4642 67.1709 11.6466 66.9376 11.6648 66.745C11.679 66.5929 11.4824 66.3292 11.3223 66.2684C10.7306 66.0473 10.1105 65.9074 9.51062 65.7066C8.57843 65.3923 8.19947 64.8731 8.25621 64.0274C8.29674 63.4332 8.58248 62.9748 9.10735 62.7112C10.3354 62.0967 11.5432 62.2366 12.7956 62.8308C12.6436 63.1918 12.5139 63.5041 12.4389 63.6846C11.6689 63.5934 11.0082 63.4514 10.3516 63.4676C10.0902 63.4737 9.83892 63.8307 9.58155 64.0294C9.79028 64.2505 9.95848 64.5648 10.2158 64.6703C10.7569 64.8954 11.3507 64.9927 11.91 65.1793C12.5322 65.3862 12.9658 65.7796 13.0266 66.4874C13.0894 67.2236 12.7916 67.7488 12.1512 68.1078C11.0467 68.7284 9.14382 68.5783 8.13867 67.7428V67.7428Z" fill="#6F717B"/>
<path d="M34.5777 66.4854H31.2603C31.5136 67.4771 32.4235 67.684 33.6942 67.0431C33.8928 67.254 34.0974 67.4751 34.3021 67.6941C33.53 68.5986 31.9676 68.7305 30.8854 68.0044C29.9025 67.3453 29.5925 66.1488 30.1194 65.0536C30.6442 63.9666 31.9716 63.4798 33.2058 63.922C34.2535 64.2972 34.8249 65.3254 34.5757 66.4874L34.5777 66.4854ZM31.1772 65.6478H33.4408C33.2463 64.9989 32.8613 64.7149 32.2614 64.7413C31.7001 64.7656 31.3333 65.0414 31.1772 65.6478Z" fill="#6F717B"/>
<path d="M22.5657 67.972C21.8949 68.5297 21.1796 68.5865 20.4338 68.3147C19.8096 68.0876 19.4915 67.5663 19.5523 66.9336C19.6131 66.2968 20.0062 65.9378 20.6 65.8405C21.2201 65.7391 21.8544 65.7127 22.4806 65.6539C22.4441 64.7129 21.6599 64.5222 20.1379 65.1144C20.0103 64.8711 19.8785 64.6237 19.7509 64.3803C20.5635 63.6259 22.3549 63.4738 23.1453 64.1836C23.4837 64.4857 23.737 65.007 23.8039 65.4612C23.9174 66.2339 23.8688 67.035 23.8465 67.8219C23.8404 68.0085 23.7066 68.2944 23.5587 68.3553C23.1514 68.5195 22.7886 68.3573 22.5657 67.9699V67.972ZM22.5292 66.4611C22.0814 66.4895 21.6254 66.4793 21.1877 66.5645C21.0337 66.5949 20.8249 66.8565 20.8229 67.0167C20.8188 67.183 20.9952 67.4284 21.1573 67.5116C21.8443 67.8584 22.5677 67.3372 22.5313 66.4611H22.5292Z" fill="#6F717B"/>
<path d="M29.3659 64.9299C29.0883 65.0799 28.8046 65.2341 28.529 65.3841C27.6393 64.7189 26.9219 64.6703 26.4538 65.2341C26.0242 65.7512 26.0809 66.6537 26.5713 67.0999C27.1124 67.5927 27.7285 67.5014 28.4864 66.8058C28.7782 66.9782 29.0741 67.1526 29.3659 67.325C28.841 68.3005 27.8237 68.6696 26.6281 68.3552C25.4851 68.0551 24.8225 67.1668 24.861 65.9824C24.8934 64.9136 25.6473 64.0497 26.7294 63.8347C28.0061 63.5832 28.9221 63.9463 29.3659 64.9278V64.9299Z" fill="#6F717B"/>
<path d="M24.3754 4.6564C23.0643 3.95876 21.7531 3.26111 20.373 2.52696C21.0175 1.62651 21.5748 0.849765 22.1848 -0.00201416C22.9751 1.54133 23.7391 3.03194 24.5031 4.52255L24.3754 4.65438V4.6564Z" fill="#6F717B"/>
</g>
<defs>
<clipPath id="clip0_809_3354">
<rect width="42.8" height="70" fill="white"/>
</clipPath>
</defs>
</svg>
