<svg width="49" height="70" viewBox="0 0 49 70" fill="none" xmlns="http://www.w3.org/2000/svg">
<g clip-path="url(#clip0_809_3381)">
<path d="M32.7103 15.3908C37.651 16.7129 38.4217 21.5661 37.7434 25.451C37.069 29.3089 34.4157 31.2784 30.9164 32.1965C26.5211 33.3484 22.0738 34.3071 17.6477 35.3431C16.6823 35.5692 15.7188 35.8494 14.738 35.9461C14.2351 35.9944 13.4971 35.8494 13.2331 35.5054C12.9518 35.142 12.8535 34.224 13.1117 33.9205C14.9307 31.779 14.4663 29.2567 14.4374 26.8136C14.3642 20.8587 14.2409 14.9038 14.1735 8.94689C14.1619 7.85486 13.7939 6.95418 13.158 6.10761C12.1675 4.78945 12.4778 3.70901 14.079 3.2954C17.085 2.52035 20.1122 1.81101 23.1471 1.15773C25.3322 0.688057 27.5366 0.127547 29.7525 0.00964644C33.5582 -0.191364 36.5102 2.58413 37.044 6.4014C37.5912 10.3192 36.3599 13.3556 32.7103 15.3908ZM25.4883 13.9316C25.4883 13.4039 25.4883 13.0212 25.4883 12.6405C25.4883 10.8062 25.5249 8.96815 25.4517 7.13586C25.4363 6.73963 25.0278 6.35887 24.8004 5.97232C24.4535 6.19072 23.9622 6.32602 23.781 6.64106C21.4707 10.6806 19.1892 14.7375 16.9347 18.808C16.2391 20.0643 16.7536 20.8452 18.1969 20.8529C19.4359 20.8587 20.6749 20.8529 21.9852 20.8529C21.9852 23.0408 21.9775 25.0954 21.989 27.1499C21.9929 27.7723 21.8137 28.5435 22.6461 28.7696C23.5325 29.0112 23.6577 28.1473 23.9564 27.6409C24.8235 26.1777 25.6328 24.6818 26.4672 23.1974C27.7717 20.8742 29.0897 18.5587 30.3769 16.2277C31.2363 14.6699 30.8027 13.9335 29.0608 13.9316C27.9104 13.9316 26.76 13.9316 25.4844 13.9316H25.4883Z" fill="#6F717B"/>
<path d="M34.2065 47.8637C34.2065 47.0616 34.2027 46.2595 34.2065 45.4574C34.2104 44.9239 34.4281 44.6282 35.0197 44.6379C37.9775 44.6881 37.3763 44.2687 37.4167 46.8993C37.4514 49.1529 37.4244 51.4065 37.4244 53.6602C37.4244 54.5943 36.9755 55.0621 36.0775 55.0634C34.2701 55.0634 34.2759 55.0634 34.1969 53.2717C34.1853 53.0262 34.1217 52.7711 34.0292 52.543C33.9599 52.371 33.8057 52.2318 33.6824 52.0849C33.1159 51.4065 32.5455 50.7281 31.7882 49.8274C31.7882 51.4162 31.7574 52.7228 31.7998 54.0255C31.8248 54.8256 31.5262 55.1001 30.7284 55.0788C28.1945 55.0093 28.5915 55.3958 28.5703 52.947C28.551 50.5 28.5838 48.0531 28.5549 45.6062C28.5472 44.9065 28.7784 44.6804 29.4875 44.6205C30.6302 44.5219 31.4491 44.8969 32.1274 45.8034C32.6958 46.5629 33.3683 47.2452 33.9945 47.9623L34.2065 47.8656V47.8637Z" fill="#6F717B"/>
<path d="M7.22092 49.1471C8.40404 49.3984 8.76438 50.1966 8.82796 51.2036C8.85109 51.5554 8.85879 51.9091 8.85687 52.2628C8.84338 54.2497 8.05913 55.0383 6.05128 55.0614C4.76989 55.0769 3.48849 55.0653 2.2071 55.0653C0.747781 55.0653 0.0181241 54.3373 0.0181241 52.8813C0.0181241 50.5039 0.0470278 48.1246 0.0027088 45.7492C-0.0127065 44.9297 0.203108 44.5876 1.076 44.6302C2.3863 44.6939 3.70238 44.634 5.01461 44.6514C6.02045 44.6649 7.10531 44.6939 7.59281 45.7512C8.09767 46.8413 8.08032 47.9894 7.22092 49.149V49.1471ZM3.31314 52.6957C4.12437 52.5623 4.86045 52.4966 5.54643 52.2763C5.65819 52.2396 5.64856 51.2075 5.53102 51.1707C4.84118 50.9581 4.10125 50.9059 3.31314 50.788V52.6957V52.6957ZM3.32663 48.8784C3.976 48.6639 4.49819 48.5789 4.89899 48.3121C5.04544 48.2136 4.99919 47.4404 4.87201 47.3883C4.39992 47.193 3.85653 47.1679 3.32663 47.0771V48.8784V48.8784Z" fill="#6F717B"/>
<path d="M45.0776 47.9043C45.0776 47.108 45.0911 46.3098 45.0737 45.5134C45.0603 44.9239 45.2549 44.6224 45.9062 44.636C48.7407 44.6939 48.2011 44.2591 48.2377 46.8645C48.2705 49.2476 48.2223 51.6307 48.257 54.0139C48.2686 54.7773 48.0759 55.2006 47.2338 55.0653C47.1394 55.0498 47.0411 55.0634 46.9448 55.0634C45.7565 55.0634 45.1335 54.4771 45.0757 53.3045C45.0641 53.0861 45.0603 52.8213 44.9389 52.6628C44.2471 51.7602 43.5226 50.8827 42.6169 50.0768C42.6169 51.4162 42.5919 52.7556 42.6266 54.0931C42.6439 54.787 42.4185 55.0866 41.6901 55.073C39.1061 55.0267 39.3797 55.3533 39.3739 52.8484C39.3701 50.6585 39.3489 48.4687 39.3913 46.2788C39.4028 45.7454 39.4818 45.0689 39.8094 44.721C40.2064 44.2977 41.956 44.7055 42.3896 45.1829C43.2258 46.1068 44.0409 47.0519 44.8656 47.9874L45.0757 47.9024L45.0776 47.9043Z" fill="#6F717B"/>
<path d="M37.0167 64.7911C37.0167 66.1421 36.9974 67.4931 37.0244 68.8422C37.0379 69.482 36.8433 69.7854 36.1477 69.768C33.344 69.7004 33.8238 70.1604 33.793 67.4468C33.7679 65.0636 33.8065 62.6786 33.7756 60.2973C33.766 59.5803 34.0358 59.3638 34.7275 59.3155C35.8182 59.2382 36.6429 59.5494 37.3115 60.4442C37.9127 61.2502 38.6237 61.9731 39.4928 62.6476C39.4928 61.8243 39.5121 61.0009 39.487 60.1794C39.4677 59.5629 39.7125 59.3174 40.3387 59.3271C43.1231 59.3677 42.6047 59.0623 42.6317 61.5227C42.6587 63.9697 42.6221 66.4185 42.6491 68.8654C42.6568 69.5245 42.4564 69.8434 41.7704 69.7622C41.6124 69.7429 41.4505 69.7603 41.2887 69.7603C39.5583 69.7603 39.5718 69.7603 39.4812 68.0459C39.4658 67.7502 39.3579 67.4139 39.1826 67.18C38.5525 66.3412 37.8742 65.5372 37.2152 64.7196L37.0167 64.793V64.7911Z" fill="#6F717B"/>
<path d="M23.2252 64.6268C23.2252 65.4947 23.2599 66.3625 23.2175 67.2284C23.1501 68.5871 22.547 69.3873 21.2328 69.6985C19.5641 70.0928 17.8742 70.1372 16.2113 69.6115C14.9472 69.2114 14.3576 68.4789 14.3268 67.1549C14.2882 65.4522 14.2921 63.7474 14.3229 62.0446C14.348 60.6511 14.9684 59.8007 16.3192 59.4489C18.0149 59.0063 19.7337 58.9715 21.4313 59.5069C22.52 59.8509 23.179 60.5641 23.2175 61.7393C23.2484 62.7018 23.2233 63.6662 23.2233 64.6288H23.2272L23.2252 64.6268ZM20.0324 64.5727H20.0285C20.0285 63.9968 20.042 63.4189 20.0246 62.8429C19.9996 61.9403 19.3406 61.9982 18.7201 61.9963C18.0977 61.9963 17.5543 62.062 17.5717 62.9009C17.5929 63.8924 17.5717 64.8858 17.5755 65.8793C17.5794 66.9713 17.8087 67.1955 18.8223 67.1994C19.699 67.2033 20.1248 66.8341 20.0381 65.916C19.9957 65.4715 20.0304 65.0192 20.0304 64.5708L20.0324 64.5727Z" fill="#6F717B"/>
<path d="M13.7115 47.3728V48.5035C14.5208 48.5035 15.3147 48.5363 16.1067 48.4938C16.7792 48.4571 17.0605 48.7141 17.0027 49.3829C16.9776 49.6709 16.9796 49.9627 17.0027 50.2507C17.0509 50.8363 16.7753 51.0722 16.2146 51.0644C15.4168 51.0548 14.621 51.0625 13.752 51.0625V52.3401C14.9351 52.3401 16.0835 52.3691 17.2301 52.3285C17.9411 52.3033 18.2552 52.5604 18.1569 53.2775C18.1531 53.3084 18.1569 53.3412 18.1569 53.3741C18.1672 54.5003 17.6212 55.0634 16.519 55.0634C14.8195 55.0634 13.118 55.0402 11.4185 55.075C10.7383 55.0885 10.4338 54.9068 10.4416 54.1588C10.4743 51.2944 10.4743 48.43 10.4416 45.5676C10.4338 44.8254 10.7344 44.6263 11.4146 44.6359C13.3705 44.663 15.3282 44.6649 17.2859 44.6359C17.9604 44.6243 18.1897 44.8717 18.1704 45.5386C18.1145 47.5197 18.417 47.3805 16.3861 47.3747C15.5267 47.3728 14.6673 47.3747 13.7154 47.3747L13.7115 47.3728Z" fill="#6F717B"/>
<path d="M30.1534 66.9694C30.2999 66.9945 30.3307 67.0042 30.3615 67.0061C32.0553 67.0873 32.3867 67.5144 31.9956 69.2365C31.9474 69.4472 31.5832 69.7294 31.3597 69.7352C29.4347 69.7739 27.5058 69.7777 25.5809 69.7313C25.3439 69.7255 24.9469 69.3912 24.9161 69.1708C24.8274 68.5156 24.8833 67.8391 24.8833 67.0815C25.5443 67.0467 26.1069 67.0177 26.7409 66.9848V62.2901C26.6754 62.2553 26.6233 62.205 26.5674 62.2012C24.891 62.0852 24.4652 61.5112 24.9161 59.8567C24.9758 59.6402 25.3477 59.3658 25.5809 59.36C27.5058 59.3194 29.4347 59.3136 31.3597 59.3619C31.5851 59.3677 31.8029 59.7562 32.0206 59.9727C32.0379 59.9881 32.0225 60.0345 32.0264 60.0674C32.133 61.3701 31.5087 62.0949 30.1534 62.2418V66.9674V66.9694Z" fill="#6F717B"/>
<path d="M24.9558 52.2763C25.2371 52.2917 25.4317 52.3343 25.6148 52.3072C26.6226 52.1564 26.8827 52.6222 26.8365 53.5732C26.7671 55.0595 26.8191 55.0614 25.345 55.0614C23.7399 55.0614 22.1348 55.0344 20.5297 55.073C19.8437 55.0904 19.5913 54.816 19.6433 54.1704C19.651 54.0738 19.6433 53.9771 19.6433 53.8805C19.6343 52.8922 20.1173 52.3665 21.0923 52.3033C21.2157 52.2956 21.3371 52.255 21.524 52.2144V47.5661C21.4392 47.5332 21.3294 47.4713 21.2118 47.4501C20.7205 47.3612 19.8726 47.4018 19.7994 47.1814C19.5874 46.5417 19.6395 45.7937 19.6973 45.0979C19.7107 44.9278 20.1462 44.6669 20.3909 44.663C22.2851 44.6282 24.1793 44.6495 26.0715 44.6417C26.6014 44.6398 26.7883 44.8891 26.8211 45.4071C26.9405 47.2607 26.954 47.2587 24.95 47.5274V52.2743L24.9558 52.2763Z" fill="#6F717B"/>
<path d="M5.40248 64.4529C5.40248 63.585 5.35238 62.7133 5.41211 61.8494C5.50075 60.5873 6.23105 59.6847 7.46813 59.5494C9.05397 59.3754 10.6629 59.3696 12.2604 59.3754C12.4877 59.3754 12.7151 59.8374 12.9386 60.0886C12.954 60.106 12.9386 60.1505 12.9425 60.1833C13.0234 61.5092 12.4074 62.1728 11.0946 62.1741C8.22926 62.1818 8.6763 61.9538 8.67245 64.5688C8.66666 67.0969 8.26972 67.0447 11.0792 67.0293C11.1427 67.0293 11.2083 67.0293 11.2718 67.0293C12.9425 67.0293 13.3568 67.5763 12.9059 69.252C12.8538 69.4472 12.5937 69.7294 12.4319 69.7275C10.7689 69.7081 9.09251 69.7603 7.45078 69.5496C6.09038 69.3738 5.50268 68.5465 5.41404 67.1549C5.35623 66.2581 5.40248 65.3555 5.40248 64.4548V64.4529Z" fill="#6F717B"/>
</g>
<defs>
<clipPath id="clip0_809_3381">
<rect width="48.2576" height="70" fill="white"/>
</clipPath>
</defs>
</svg>
