<svg width="395" height="70" viewBox="0 0 395 70" fill="none" xmlns="http://www.w3.org/2000/svg">
<g clip-path="url(#clip0_809_3340)">
<path d="M41.0115 35.3077C40.4258 38.9304 38.2784 40.963 35.3849 40.8247C32.1218 40.6657 29.8837 38.3496 29.7373 34.9482C29.4793 29.1615 34.3669 23.9072 40.4258 23.4578C46.924 22.9738 52.5088 27.4815 53.0247 33.6277C53.8684 43.6731 45.899 52.4188 35.7474 52.5778C25.8468 52.7368 17.6195 44.3852 17.9123 34.478C18.3516 19.4687 30.9714 7.82619 45.6829 8.84248C61.3914 9.92791 72.4076 22.8287 70.6855 38.1353C68.7332 55.4815 55.2628 68.9422 38.8849 69.9171C20.2481 71.0232 5.11124 60.4316 1.02549 42.7052C-2.04928 29.4035 1.86217 17.7057 12.1463 8.70421C22.5559 -0.414803 34.7225 -2.19159 47.8513 2.54421C44.5394 2.86223 41.1858 2.95902 37.9158 3.53976C20.2062 6.67162 8.40913 24.9511 13.1015 41.8479C15.6045 50.8701 24.9892 59.2217 37.8879 58.2331C47.4469 57.5003 56.713 49.2178 58.5677 39.6356C61.0289 26.9353 52.5506 18.8464 43.9329 17.678C37.1698 16.7585 31.5292 19.1368 27.4016 24.4395C23.9782 28.8366 22.514 33.8766 24.6476 39.359C26.6904 44.6064 31.9615 47.3442 37.9297 46.4247C42.7546 45.685 46.9519 40.8869 47.2935 35.7294C47.5027 32.5975 45.2227 29.6731 42.2456 29.2583C39.0523 28.8089 36.6747 30.7171 35.6916 34.7269L41.0115 35.3146V35.3077Z" fill="#6F717B"/>
<path d="M107.421 50.2894C103.642 51.4163 101.467 50.4069 99.8978 46.8603C97.0671 40.4583 93.7274 34.2706 90.5898 28.0069C90.4086 27.6474 90.1088 27.3432 89.6835 26.7832V50.4277H85.6953V20.5195C89.1466 19.4756 91.3219 20.0702 92.9535 23.7689C96.0073 30.6687 99.7026 37.2919 103.265 44.2953C103.265 37.2504 103.293 30.565 103.251 23.8795C103.238 21.204 104.053 19.5793 107.421 20.3329V50.2894V50.2894Z" fill="#6F717B"/>
<path d="M192.582 50.3032C188.824 51.3126 186.746 50.5244 185.178 47.0262C182.145 40.2578 178.477 33.7659 174.796 26.6311V50.483H170.703V20.6992C175.528 19.3926 175.807 19.5101 177.926 23.7205C181.078 29.9842 184.229 36.2479 187.388 42.5047C187.674 43.0716 188.029 43.597 188.35 44.1432C188.35 37.2504 188.35 30.5165 188.35 23.7827C188.35 21.1625 189.215 19.4963 192.589 20.402V50.3032H192.582Z" fill="#6F717B"/>
<path d="M289.35 50.0958C286.045 51.4301 284.776 50.7042 284.672 46.9294C284.581 43.5901 284.672 40.2509 284.574 36.9116C284.518 35.0104 284.846 32.722 281.876 32.5906C279.352 32.48 277.177 34.6855 277.149 37.4163C277.107 41.6613 277.135 45.9131 277.135 50.4553H272.575C272.575 46.0445 272.61 41.6958 272.561 37.3472C272.54 35.3008 272.763 32.9225 269.828 32.6045C267.346 32.3348 264.996 34.8514 264.989 37.5822C264.968 41.8203 264.989 46.0514 264.989 50.5106H260.701V28.0415C262.542 28.885 263.992 29.5487 265.819 30.3921C271.069 27.3916 272.805 27.4538 276.779 31.2425C279.568 29.044 282.734 27.1358 286.255 29.0163C289.734 30.8761 289.364 34.5887 289.364 37.9348C289.364 41.9378 289.364 45.9408 289.364 50.0958H289.35Z" fill="#6F717B"/>
<path d="M164.12 36.3032C163.924 37.6375 163.806 39.9605 163.206 42.1521C161.575 48.0978 157.161 51.3402 151.284 51.1951C145.664 51.0568 141.216 47.7037 140.107 41.8064C139.382 37.9417 139.243 33.7936 139.814 29.9081C140.783 23.3195 145.929 19.4064 152.155 19.6553C158.354 19.9042 162.92 24.2805 163.778 30.8691C163.973 32.3486 163.973 33.8489 164.127 36.3032H164.12ZM159.33 35.439C158.876 32.9017 158.73 30.4681 157.977 28.2281C157.106 25.6356 155.418 23.7067 152.239 23.5407C149.227 23.3817 146.863 24.3842 145.769 27.122C143.649 32.4039 143.503 37.8242 145.552 43.203C146.668 46.1412 148.941 47.4133 152.058 47.282C155.118 47.1575 157.057 45.4153 157.907 42.719C158.653 40.3477 158.89 37.8173 159.337 35.439H159.33Z" fill="#6F717B"/>
<path d="M120.711 37.2573V46.556H134.872C135.214 49.4736 134.049 50.6489 131.379 50.6074C127.321 50.5452 123.263 50.5728 119.205 50.6074C117.086 50.6281 115.831 49.6533 115.817 47.5654C115.761 38.6123 115.796 29.6593 115.796 20.4296H133.959V24.2183H120.872V33.1575H131.581V37.2573H120.711V37.2573Z" fill="#6F717B"/>
<path d="M300.596 50.1096C300.596 52.322 300.54 54.4997 300.61 56.6706C300.7 59.5605 299.424 60.6805 296.398 59.9684V27.9585C298.176 28.7743 299.557 29.4034 301.161 30.1363C303.894 28.2627 307.366 26.9007 310.503 29.2928C314.736 32.5215 314.917 37.5062 314.22 42.2558C313.16 49.4736 309.43 51.5407 300.589 50.1165L300.596 50.1096ZM300.596 40.2716C300.596 40.7141 300.693 41.5299 300.582 42.3111C300.184 45.042 301.265 46.6943 304.054 47.116C306.92 47.5516 308.635 45.9545 308.949 43.4726C309.311 40.6173 309.423 37.5684 308.795 34.7891C308.147 31.8923 305.762 31.3254 303.078 32.6805C299.85 34.3121 300.686 37.2573 300.596 40.2785V40.2716Z" fill="#6F717B"/>
<path d="M209.077 36.2686C209.077 27.3225 212.068 22.0958 217.674 20.2429C223.628 18.2726 230.615 21.356 231.688 26.7141C231.939 27.9516 231.005 30.1778 229.952 30.7447C227.986 31.8025 227.498 30.1708 227.066 28.318C226.438 25.5802 224.632 23.6721 221.474 23.5546C218.392 23.4439 216.447 24.958 215.352 27.682C213.47 32.3625 213.54 37.1674 214.969 41.8755C216.363 46.4454 220.414 48.1185 224.939 46.3279C225.901 45.9476 226.752 45.1802 227.728 44.9867C228.753 44.7862 229.876 45.0627 230.949 45.1249C230.636 46.162 230.656 47.6829 229.952 48.16C222.046 53.518 211.497 52.2113 209.579 40.7625C209.279 38.9511 209.161 37.1121 209.07 36.2686H209.077Z" fill="#6F717B"/>
<path d="M363.486 41.0667C363.215 46.48 366.233 48.5195 371.735 46.8049C373.777 46.1689 375.318 45.6988 375.73 48.7269C371.776 51.2504 367.509 52.2805 363.082 50.1926C359.108 48.319 358.348 44.4612 358.397 40.5412C358.425 38.2805 358.578 35.9022 359.324 33.8005C360.997 29.0923 366.227 26.9491 371.003 28.6706C374.809 30.0464 377.598 35.5012 376.322 39.5388C376.099 40.237 374.705 40.8662 373.778 40.9906C372.069 41.2257 370.312 41.0597 368.576 41.0597C366.966 41.0597 365.348 41.0597 363.5 41.0597L363.486 41.0667ZM371.776 37.6029C371.532 32.9847 370.075 31.3323 366.945 31.6918C364.358 31.9891 363.082 34.2637 363.675 37.6029H371.783H371.776Z" fill="#6F717B"/>
<path d="M235.628 39.5457C235.712 31.7264 239.937 27.4538 246.756 28.2973C251.713 28.9126 254.509 32.639 254.858 39.1032C255.22 45.92 251.504 50.877 245.794 51.2089C239.574 51.5684 235.551 46.9432 235.628 39.5457ZM240.209 39.4627C240.55 41.2533 240.488 43.1407 241.296 44.5442C242.056 45.8508 243.702 47.3926 245.013 47.4479C246.365 47.5032 248.443 46.1896 249.043 44.9244C250.723 41.3708 250.779 37.4578 248.82 33.9664C248.199 32.8602 246.247 31.9407 244.908 31.9476C243.723 31.9476 242.07 33.0953 241.471 34.1945C240.634 35.7363 240.585 37.6928 240.202 39.4627H240.209Z" fill="#6F717B"/>
<path d="M337.423 28.8711C337.423 33.3857 337.395 37.9694 337.437 42.5462C337.451 44.0257 337.73 45.5052 337.751 46.9916C337.765 48.1047 337.57 49.2247 337.465 50.3378C336.294 49.9161 335.095 49.5565 333.972 49.038C333.616 48.8721 333.47 48.2775 333.233 47.8904C332.201 48.5748 331.56 49.0588 330.862 49.4598C324.845 52.9442 320.348 50.6904 319.839 43.7837C319.518 39.4282 319.435 35.0449 319.484 30.6825C319.491 29.9358 320.662 29.1961 321.296 28.4563C322.286 29.3274 324.016 30.1156 324.12 31.0835C324.483 34.5057 324.26 37.9832 324.322 41.4331C324.364 43.7975 323.834 46.6805 327.502 46.8119C330.507 46.9156 332.647 44.4612 332.661 41.2602C332.675 38.2667 332.661 35.2662 332.661 32.2726C332.67 29.521 334.258 28.3849 337.423 28.8642V28.8711Z" fill="#6F717B"/>
<path d="M345.211 32.1551L340.721 31.5121C342.317 29.839 343.28 28.8227 344.242 27.8133C345.992 26.0504 343.544 21.1072 349.743 22.1511V28.484H355.007C355.402 30.5396 353.719 31.7933 349.959 32.2449C349.959 36.5106 349.708 40.8593 350.14 45.1457C350.245 46.1758 352.615 46.9847 353.947 47.8973L354.637 47.2405C354.77 48.2084 354.909 49.1694 355.084 50.4553C353.571 50.5383 352.323 50.642 351.075 50.6696C346.675 50.7664 345.274 49.439 345.218 45.0005C345.169 40.8662 345.204 36.7319 345.204 32.1551H345.211Z" fill="#6F717B"/>
<path d="M387.177 50.4899H382.666C382.666 46.2726 382.736 42.2765 382.631 38.2874C382.582 36.3585 382.129 34.4435 381.99 32.5076C381.906 31.2978 382.073 30.0741 382.129 28.8504C383.287 29.3136 384.486 29.7076 385.588 30.2815C386.041 30.5165 386.278 31.1595 386.187 31.042C388.962 29.9427 391.535 28.9126 394.54 27.7234C394.847 31.1111 394.575 32.7151 391.591 32.9432C388.648 33.1644 387.163 35.121 387.17 38.1076C387.184 42.1106 387.17 46.1205 387.17 50.4899H387.177Z" fill="#6F717B"/>
</g>
<defs>
<clipPath id="clip0_809_3340">
<rect width="394.638" height="70" fill="white"/>
</clipPath>
</defs>
</svg>
