<svg width="58" height="70" viewBox="0 0 58 70" fill="none" xmlns="http://www.w3.org/2000/svg">
<g clip-path="url(#clip0_809_3413)">
<path d="M4.49786 0H51.8894V47.3792C51.466 47.4038 51.022 47.4491 50.5781 47.4491C35.6072 47.4491 20.6362 47.4326 5.6694 47.4573C4.69518 47.4573 4.41976 47.1983 4.42387 46.2118C4.45676 31.2038 4.44443 16.1959 4.44854 1.18386C4.44854 0.805684 4.48142 0.423395 4.49786 0V0ZM30.1934 16.0315V31.1668C32.3022 31.1668 34.3246 31.1751 36.3471 31.1668C37.0582 31.1668 37.7735 31.1668 38.4764 31.0887C42.2047 30.6612 44.8972 27.9194 45.1438 24.3432C45.411 20.4545 43.3639 17.3428 39.4917 16.6357C36.4868 16.089 33.3627 16.2165 30.1934 16.0356V16.0315ZM12.5753 16.2781C12.7438 16.7097 12.8712 17.0674 13.0233 17.4168C14.6635 21.2232 16.3201 25.0173 17.9479 28.8279C18.9714 31.2203 18.9467 31.2038 21.5858 31.1833C22.2353 31.1792 22.5189 30.9284 22.7532 30.3694C23.8261 27.8208 24.9359 25.2886 26.0294 22.7524C26.9502 20.6148 27.8668 18.4773 28.8493 16.1959C27.8833 16.1959 27.0735 16.2329 26.2719 16.1836C25.6512 16.1466 25.3223 16.3603 25.0798 16.9481C24.0439 19.4351 22.9587 21.9015 21.89 24.372C21.5611 25.1365 21.2158 25.8929 20.7842 26.8548C19.6003 24.0965 18.5192 21.5644 17.434 19.0405C16.5927 17.0783 15.0978 16.1329 12.9493 16.2041C12.8794 16.2041 12.8096 16.2288 12.5753 16.2781V16.2781Z" fill="#6F717B"/>
<path d="M30.2578 69.7205V56.8665C33.1147 57.0597 35.9552 56.9611 38.66 57.516C41.6772 58.1326 43.3009 61.0141 42.9885 64.204C42.7048 67.0979 40.3576 69.4615 37.25 69.6876C34.9604 69.8561 32.6502 69.7205 30.2578 69.7205V69.7205ZM33.1887 67.3939C34.2739 67.3939 35.2276 67.4103 36.1853 67.3856C36.5348 67.3774 36.8924 67.2993 37.2336 67.213C38.9929 66.7526 40.0288 65.4043 40.0535 63.5586C40.0822 61.5609 39.1943 60.1098 37.3815 59.7152C36.0333 59.4233 34.6028 59.4932 33.1887 59.4028V67.3939Z" fill="#6F717B"/>
<path d="M20.9647 56.8706C25.6344 56.8706 28.8365 60.7757 27.7308 65.0631C26.3249 70.4974 19.452 71.2167 16.258 68.3434C14.1287 66.4279 13.4422 63.5833 14.4575 60.9772C15.44 58.4573 17.9516 56.8706 20.9647 56.8665V56.8706ZM24.9643 63.4929C24.9808 61.1334 23.3365 59.374 21.0551 59.3165C18.7737 59.2589 16.965 61.0758 16.965 63.423C16.965 65.7989 18.7079 67.5624 21.0387 67.5418C23.2543 67.5213 24.9438 65.7784 24.9602 63.4929H24.9643Z" fill="#6F717B"/>
<path d="M57.6554 69.778C56.862 69.778 56.192 69.7369 55.5261 69.7903C54.8396 69.8479 54.5478 69.5519 54.2888 68.9353C53.2981 66.5676 53.9723 67.102 51.4319 67.0362C50.4371 67.0116 49.4423 67.0773 48.4517 67.0157C47.757 66.9746 47.4528 67.2746 47.202 67.8707C46.2977 70.0164 46.1086 70.0945 43.5312 69.6383C44.0574 68.4585 44.5712 67.2993 45.0851 66.1401C46.31 63.386 47.5556 60.6401 48.7518 57.8736C49.0107 57.2735 49.3272 57.0145 50.0096 57.0186C52.0033 57.0309 52.0033 56.998 52.8007 58.778C54.2723 62.0788 55.7481 65.3796 57.2156 68.6846C57.3553 69.0011 57.4745 69.3258 57.6554 69.7698V69.778ZM50.5563 59.9002C49.8205 61.6677 49.1875 63.1928 48.5298 64.7713H52.5829C51.9128 63.1599 51.288 61.6636 50.5522 59.9002H50.5563Z" fill="#6F717B"/>
<path d="M8.36535 69.6835C8.18448 69.7287 8.11871 69.7575 8.04883 69.7575C6.33058 69.8534 5.13439 69.1094 4.46024 67.5254C3.07907 64.3027 1.68556 61.0882 0.29617 57.8654C0.201626 57.6476 0.131745 57.4215 -0.00390625 57.0474C0.986757 57.0474 1.87054 56.9816 2.72967 57.0844C2.99275 57.1173 3.2846 57.5653 3.42436 57.886C4.50135 60.3524 5.54134 62.8393 6.59777 65.3139C6.68821 65.5276 6.81564 65.725 7.02117 66.1072C8.02827 63.7765 8.9655 61.6102 9.90272 59.448C9.9315 59.3822 9.94794 59.3124 9.97672 59.2466C10.6536 57.6489 11.9252 56.9378 13.7914 57.1132C11.9704 61.3307 10.1699 65.4989 8.36124 69.6753L8.36535 69.6835Z" fill="#6F717B"/>
<path d="M33.6621 28.314V18.987C35.2447 19.0733 36.7862 18.9993 38.2619 19.2747C40.5063 19.694 41.8176 21.6877 41.6244 23.9979C41.4107 26.5218 39.8856 28.1414 37.4686 28.2976C36.2354 28.3798 34.994 28.3099 33.6662 28.3099L33.6621 28.314Z" fill="#6F717B"/>
</g>
<defs>
<clipPath id="clip0_809_3413">
<rect width="57.6558" height="70" fill="white"/>
</clipPath>
</defs>
</svg>
