<svg width="94" height="70" viewBox="0 0 94 70" fill="none" xmlns="http://www.w3.org/2000/svg">
<g clip-path="url(#clip0_809_3399)">
<path d="M17.804 7.03009C16.8092 5.89399 15.829 4.77555 14.8117 3.61698C13.1834 5.41901 11.5841 7.17932 9.99608 8.94926C7.85346 11.3386 5.72696 13.744 3.57467 16.1253C3.12325 16.6243 2.87981 17.1234 2.88787 17.8294C2.92657 20.9842 2.90561 24.139 2.90561 27.2937C2.90561 27.4815 2.9185 27.6692 2.90399 27.8553C2.81532 28.9112 2.25266 29.4921 1.37563 29.4472C0.553402 29.4038 0.0213749 28.7877 0.0165383 27.7767C0.000416301 24.0298 -0.0189301 20.2862 0.0391092 16.5441C0.0471702 16.0194 0.363162 15.4016 0.725908 14.994C4.84348 10.3501 8.99651 5.73674 13.1463 1.12014C13.4494 0.783157 13.7638 0.434947 14.1394 0.192643C14.7472 -0.198893 15.5082 0.0241541 16.1208 0.718971C18.4924 3.40838 20.8559 6.10581 23.2242 8.79682C25.0266 10.846 26.8162 12.908 28.6509 14.9282C29.2974 15.6391 29.6359 16.3628 29.6198 17.3577C29.5634 20.7788 29.6005 24.2015 29.5972 27.6243C29.5972 28.9722 29.1168 29.4536 27.7497 29.4536C21.5185 29.4568 15.2857 29.4568 9.05455 29.4536C7.79864 29.4536 7.27468 28.9593 7.26823 27.7189C7.25372 24.8851 7.23276 22.0513 7.2908 19.2175C7.30209 18.6815 7.52941 18.03 7.88731 17.6417C10.5104 14.7806 13.1947 11.974 15.8548 9.14664C16.4949 8.46626 17.122 7.76984 17.804 7.02849V7.03009ZM26.6937 26.5363C26.6937 23.4473 26.705 20.4306 26.6743 17.417C26.6711 17.1443 26.4422 16.8362 26.2455 16.6067C24.9186 15.0694 23.5724 13.5482 22.2279 12.0254C21.4056 11.0947 20.5737 10.1736 19.7289 9.23168C17.1123 12.0254 14.6441 14.8111 12 17.4219C10.6474 18.7569 9.90257 20.0984 10.1234 22.0385C10.2911 23.5099 10.1573 25.0151 10.1573 26.5347H26.6921L26.6937 26.5363Z" fill="#6F717B"/>
<path d="M0.0680185 69.7031V56.3732C0.798347 56.3732 1.48676 56.3572 2.17517 56.3764C4.31779 56.4342 6.48298 56.3347 8.59657 56.6139C11.1632 56.9525 12.3756 59.1701 11.3357 61.2915C11.0552 61.8627 10.5328 62.3169 10.0991 62.8496C10.2185 62.9138 10.4006 63.0133 10.5844 63.1112C11.9225 63.8252 12.4481 64.971 12.3353 66.4344C12.2273 67.8305 11.4598 68.7804 10.1685 69.2378C9.42202 69.5025 8.6127 69.6903 7.82433 69.7127C5.40925 69.7801 2.99256 69.7512 0.575863 69.7545C0.421091 69.7545 0.267932 69.724 0.0664062 69.7031H0.0680185ZM3.1441 67.5416C4.78371 67.4678 6.354 67.4486 7.913 67.3041C8.74651 67.2271 9.22695 66.5853 9.2479 65.8471C9.26886 65.0993 8.82551 64.3997 8.00973 64.3131C6.4072 64.143 4.78855 64.1237 3.1441 64.0403V67.54V67.5416ZM3.16345 61.9671C4.67247 61.8611 6.11056 61.8274 7.52607 61.6349C8.27252 61.5322 8.59335 60.8855 8.54498 60.1329C8.49662 59.3916 8.0323 58.9102 7.34389 58.8412C5.97513 58.7032 4.59347 58.6823 3.16345 58.6101V61.9671V61.9671Z" fill="#6F717B"/>
<path d="M40.5294 47.185V39.1424H43.5539V52.5188C42.7801 52.5188 42.0336 52.5525 41.2952 52.498C41.0808 52.4819 40.8487 52.2412 40.6907 52.0503C38.7028 49.6658 36.7262 47.2716 34.7497 44.8775C34.6497 44.7571 34.5707 44.6191 34.4804 44.4907C34.4192 44.518 34.3563 44.5437 34.295 44.571V52.4771H31.2754V39.0846C32.0202 39.0846 32.7731 39.0124 33.5002 39.1167C33.8291 39.1649 34.1596 39.5211 34.3998 39.8116C36.2813 42.0757 38.1418 44.3592 40.0103 46.633C40.1248 46.7726 40.2586 46.8977 40.5294 47.185V47.185Z" fill="#6F717B"/>
<path d="M75.047 64.4864V56.439H78.0634V69.7513C77.2912 69.7513 76.5205 69.785 75.758 69.7304C75.5435 69.7144 75.3082 69.4721 75.1469 69.2795C73.2816 67.0378 71.4292 64.7849 69.5703 62.5367C69.3688 62.2944 69.156 62.0602 68.8142 61.6686V69.6999H65.7559V56.3797C66.5668 56.3797 67.339 56.346 68.1065 56.4005C68.3177 56.415 68.5466 56.6637 68.7062 56.8563C70.6183 59.1638 72.5191 61.4809 74.4231 63.7948C74.573 63.9761 74.7374 64.1462 75.0454 64.488L75.047 64.4864Z" fill="#6F717B"/>
<path d="M38.8404 64.4928V56.4374H41.8342V69.7529C41.0604 69.7529 40.3139 69.7866 39.5723 69.732C39.3563 69.716 39.116 69.4849 38.958 69.2939C36.9573 66.8885 34.9695 64.4703 32.9768 62.0569C32.9123 61.9799 32.843 61.9077 32.6511 61.6959V69.6935H29.625V56.3764C30.3795 56.3764 31.126 56.3363 31.8644 56.3989C32.103 56.4198 32.3641 56.6701 32.5383 56.8803C34.4003 59.1252 36.2463 61.3814 38.0971 63.6343C38.2809 63.8573 38.4744 64.0708 38.8387 64.4928H38.8404Z" fill="#6F717B"/>
<path d="M46.8516 52.368V39.0814C47.2885 39.0814 47.706 39.0734 48.1236 39.0814C50.2936 39.1312 52.4959 38.9675 54.6288 39.2772C60.7665 40.1726 61.6048 46.6923 58.9689 49.9466C57.8291 51.3539 56.3007 52.2043 54.5627 52.3215C52.0332 52.4916 49.4827 52.3648 46.8516 52.3648V52.368ZM49.9357 50.0188C51.2658 49.961 52.5233 49.9626 53.7679 49.8375C55.4414 49.6706 56.7021 48.512 57.0971 46.9122C57.5421 45.115 56.9149 43.3097 55.4946 42.3774C53.7631 41.2413 51.8333 41.7323 49.9341 41.628V50.0188H49.9357Z" fill="#6F717B"/>
<path d="M0.925781 39.1199H3.93899V44.3158H10.0831V39.1248H13.1608V52.4739H10.1379V47.0277H3.97446V52.4675H0.925781V39.1199V39.1199Z" fill="#6F717B"/>
<path d="M57.9648 69.7561C56.7218 69.7561 55.7045 69.7834 54.6904 69.7368C54.4502 69.7256 54.1632 69.5106 53.9956 69.31C52.8106 67.8963 51.6514 66.4601 50.481 65.0336C50.3488 64.8731 50.1988 64.7271 50.1166 64.6388C47.8982 65.7236 48.1191 67.7053 48.2722 69.6903H45.1816V56.439H48.2352V62.6186C49.6942 61.099 51.0162 59.7864 52.264 58.4096C54.2422 56.2288 54.2583 56.1935 57.2022 56.3829C57.2732 56.3877 57.3425 56.4246 57.5392 56.4856C55.7109 58.4481 53.9343 60.356 52.0851 62.3394C54.0004 64.756 55.9141 67.1694 57.9664 69.7561H57.9648Z" fill="#6F717B"/>
<path d="M90.4283 62.8929H93.2706C93.2706 64.6212 93.2803 66.3221 93.2561 68.023C93.2545 68.1931 93.0868 68.4178 92.9304 68.5205C90.0914 70.3915 85.5498 70.6964 82.7929 68.2268C80.4794 66.1552 79.9587 63.5364 80.9034 60.7042C81.7869 58.0549 83.8634 56.6492 86.5897 56.2545C89.0612 55.8966 91.3457 56.3459 93.219 58.1432C93.2948 58.217 93.3593 58.3036 93.4947 58.4593C92.8514 59.0562 92.2146 59.6451 91.5472 60.2645C89.9769 58.785 88.1906 58.4015 86.185 59.138C84.5422 59.743 83.4313 61.5932 83.6442 63.3583C83.9086 65.5567 85.2128 67.0988 87.1201 67.2592C88.0036 67.333 88.9128 67.126 89.8092 67.0298C90.3606 66.9704 90.4525 66.6045 90.438 66.1151C90.409 65.0544 90.4283 63.9937 90.4283 62.8929V62.8929Z" fill="#6F717B"/>
<path d="M14.6657 52.5237C15.4428 50.7858 16.1473 49.2068 16.8534 47.6278C18.0191 45.0219 19.1992 42.4223 20.3374 39.8035C20.5728 39.2612 20.8856 39.1392 21.4611 39.0493C23.2216 38.7782 24.0713 39.4505 24.7371 41.1161C26.2574 44.924 28.0502 48.6259 29.7962 52.5172C28.7289 52.5172 27.7552 52.5381 26.7846 52.4948C26.6298 52.4884 26.4396 52.2107 26.3509 52.0198C26.0607 51.3908 25.8463 50.7248 25.5239 50.1135C25.4078 49.8936 25.0692 49.6593 24.829 49.6545C23.0572 49.616 21.2838 49.6192 19.512 49.6545C19.2943 49.6593 18.9993 49.8824 18.8848 50.0846C18.6236 50.5467 18.385 51.0409 18.2593 51.5528C18.0513 52.3969 17.5547 52.6231 16.7422 52.5365C16.1102 52.4691 15.4653 52.5237 14.6641 52.5237H14.6657ZM24.3405 47.2379C23.6215 45.5081 22.954 43.9034 22.2043 42.1014C21.4547 43.9115 20.7759 45.5482 20.0762 47.2379H24.3405Z" fill="#6F717B"/>
<path d="M28.0391 69.7561C27.0298 69.7561 26.1189 69.7818 25.2113 69.7352C25.0162 69.7256 24.7582 69.4913 24.6615 69.2972C24.3568 68.6762 24.1488 68.0054 23.828 67.394C23.7103 67.171 23.3814 66.9255 23.1444 66.9191C21.3726 66.8805 19.5992 66.8822 17.8258 66.9191C17.6081 66.9239 17.3034 67.1582 17.197 67.3652C16.8923 67.9557 16.6408 68.5783 16.4215 69.2073C16.2748 69.6245 16.0588 69.7946 15.6009 69.7721C14.7996 69.7352 13.9952 69.7625 13.1133 69.7625C13.1681 69.5298 13.1826 69.3533 13.2503 69.1993C15.0237 65.2261 16.8181 61.2626 18.5674 57.2799C18.8624 56.6059 19.23 56.4085 19.9748 56.3315C21.5516 56.1678 22.3528 56.6781 22.9703 58.2106C24.4842 61.9687 26.2463 65.6273 27.9085 69.3277C27.9504 69.4223 27.9697 69.5266 28.0374 69.7545L28.0391 69.7561ZM22.6704 64.5394C21.9482 62.8111 21.2678 61.1824 20.5197 59.3916C19.7717 61.1968 19.0929 62.8304 18.3852 64.5394H22.6704Z" fill="#6F717B"/>
<path d="M65.5377 52.4579C65.5377 51.0683 65.5667 49.7316 65.5215 48.3981C65.507 47.9697 65.3797 47.4995 65.162 47.132C63.5966 44.4892 61.994 41.8687 60.3125 39.0911C61.4298 39.0911 62.4293 39.0574 63.4224 39.12C63.6256 39.1328 63.8448 39.4858 63.9899 39.7233C65.0508 41.4547 66.0939 43.1958 67.2111 45.0492C68.0801 43.6146 69.0216 42.3213 69.6858 40.8995C70.3839 39.4056 71.3625 38.7573 72.986 39.0799C73.2133 39.1248 73.4568 39.0863 73.8099 39.0863C73.6438 39.4024 73.5374 39.6351 73.4068 39.8517C71.9268 42.2988 70.4291 44.7363 68.9733 47.1978C68.7572 47.5637 68.6508 48.0403 68.6363 48.4703C68.5928 49.7781 68.6202 51.0875 68.6202 52.4611H65.5377V52.4579Z" fill="#6F717B"/>
<path d="M62.4416 69.7272H59.459V56.4374H62.4416V69.7272Z" fill="#6F717B"/>
</g>
<defs>
<clipPath id="clip0_809_3399">
<rect width="93.4965" height="70" fill="white"/>
</clipPath>
</defs>
</svg>
