<svg width="136" height="70" viewBox="0 0 136 70" fill="none" xmlns="http://www.w3.org/2000/svg">
<g clip-path="url(#clip0_809_3371)">
<path d="M87.1913 32.2684C86.0608 32.3356 84.9269 32.4061 83.4364 32.4968C84.328 33.6116 85.0783 34.545 85.8286 35.4818L85.6166 35.6732C84.7115 34.9211 83.8065 34.1723 82.6558 33.2187C82.5616 34.7633 82.4842 36.0157 82.4101 37.2682L82.1107 37.2917C81.9896 36.0527 81.8651 34.817 81.717 33.3093C80.5933 34.2462 79.5973 35.0789 78.6014 35.9083L78.3827 35.7236C79.2104 34.7364 80.0381 33.7492 81.0441 32.5505C78.6418 32.3524 76.5658 31.8017 74.7119 33.7996C73.0969 35.5423 71.132 36.9626 69.2747 38.5643C62.2662 32.5001 55.3755 26.5367 48.3064 20.4188C49.9955 18.3672 51.6475 16.3592 53.2995 14.3546C53.9758 13.5353 54.7261 12.763 55.3048 11.8799C55.6043 11.4199 55.6076 10.7685 55.4159 9.99616C53.8951 11.3158 52.3709 12.6354 50.8501 13.9516L50.48 13.6226C51.7888 12.1317 53.0943 10.6375 54.6016 8.91831C52.3406 8.73363 50.2949 8.56574 48.2459 8.40121L48.2324 7.99827C50.2815 7.84046 52.3305 7.68264 54.6117 7.50804C53.1347 5.7922 51.8157 4.26105 50.5002 2.72989L50.803 2.41761C52.3204 3.72044 53.8412 5.02662 55.5706 6.51413C55.7557 4.1536 55.9206 2.07512 56.0821 -0.00335693H56.4589C56.6238 2.09527 56.7886 4.19389 56.9737 6.52084C58.767 4.97961 60.3888 3.58613 62.0105 2.19264L62.2931 2.46462C60.9069 4.06965 59.5207 5.67804 57.7846 7.68936C60.2542 7.68936 62.347 7.68936 64.4364 7.68936C69.0896 7.68936 73.7429 7.64235 78.3928 7.73301C79.1532 7.74644 80.1289 8.18295 80.6168 8.75378C83.8805 12.5649 87.0365 16.4666 90.2766 20.3953C88.1805 22.2286 86.1785 24.0049 84.1429 25.7476C82.2722 27.3493 82.0535 28.0981 82.9081 30.7406C83.8973 29.8978 84.8495 29.0852 85.805 28.2727L86.0372 28.4842C85.2162 29.4546 84.3953 30.425 83.4195 31.5801C84.873 31.711 86.0439 31.8151 87.2115 31.9192L87.1913 32.2684V32.2684ZM84.688 21.2549C84.6342 21.1407 84.577 21.0265 84.5231 20.9124C82.4606 20.9124 80.3981 20.8788 78.339 20.9392C77.9352 20.9527 77.3161 21.2347 77.1849 21.5537C76.1318 24.0821 75.1729 26.6475 74.187 29.2028L74.436 29.3505C77.8545 26.6508 81.2729 23.9545 84.6914 21.2549H84.688ZM53.5048 20.9661C57.2866 23.9377 60.6949 26.6105 64.0999 29.2867L64.3523 29.0483C63.3059 26.3654 62.2595 23.6825 61.203 20.9661H53.5014H53.5048ZM78.0631 10.9196C75.7819 12.8671 73.7698 14.5863 71.6232 16.4196C73.4805 17.2624 75.146 18.0179 76.9528 18.8372C77.3397 16.0838 77.6761 13.683 78.0631 10.9196V10.9196ZM66.9531 16.3894C64.793 14.5493 62.8214 12.8704 60.8497 11.1915L60.5065 11.5038C60.9809 12.2123 61.4553 12.9208 61.987 13.7099H60.9103C61.1593 15.3888 61.4015 17.0307 61.664 18.8272C63.4371 18.0112 65.079 17.2557 66.9531 16.3928V16.3894ZM79.4762 29.8005C78.7663 30.4183 78.1438 30.9589 77.4272 31.5801H81.1652C80.4654 30.8447 80.028 30.3814 79.4762 29.8005V29.8005ZM81.8079 27.7354C81.0374 28.4305 80.563 28.8603 79.9573 29.4076C80.5832 29.928 81.0879 30.3478 81.8079 30.9455V27.7354Z" fill="#6F717B"/>
<path d="M14.0644 63.1803C16.2783 65.3427 18.4956 67.5051 20.9417 69.8925C18.1289 70.047 15.9318 70.2552 13.9702 67.9685C11.6251 65.2286 8.71468 62.9688 6.04654 60.5008L6.46712 59.7453C7.7524 59.7453 9.03768 59.7453 10.323 59.7453C12.0591 59.7453 13.802 59.8057 15.5314 59.6983C15.9587 59.6714 16.7023 59.1207 16.7124 58.7917C16.8032 55.7327 16.7662 52.667 16.7662 49.504H3.99413V69.8489H0.0541658C0.0541658 69.3284 0.0541658 68.7475 0.0541658 68.1633C0.0541658 63.9123 0.155104 59.658 0.00706119 55.4137C-0.0602311 53.5166 0.336793 52.0358 1.91816 50.9411C2.37238 50.6255 2.80642 50.283 3.25055 49.9539L3.03858 49.4838C2.13686 49.4368 1.23178 49.3932 0.195479 49.3395V46.2402C0.545399 46.1999 0.96934 46.1059 1.39328 46.1059C6.43683 46.0958 11.4804 46.0824 16.5239 46.1059C19.293 46.116 20.5413 47.355 20.5615 50.0681C20.5817 52.8651 20.5884 55.6622 20.5615 58.4592C20.5312 61.582 19.5252 62.5658 16.4264 62.5893C15.7265 62.596 15.0267 62.5893 14.3302 62.5893L14.0779 63.1803H14.0644Z" fill="#6F717B"/>
<path d="M72.7354 67.0921V69.9799C71.8539 69.9799 70.9858 69.9799 70.1178 69.9799C66.7532 69.9799 63.3919 69.9966 60.0273 69.9765C57.0664 69.9597 55.8552 68.7677 55.8249 65.8061C55.7913 62.7841 55.7879 59.7621 55.8283 56.7401C55.8653 54.2217 57.1337 52.9424 59.6639 52.9021C62.7459 52.8517 65.8313 52.8517 68.9132 52.9021C71.5747 52.9457 72.5167 54.2351 72.8801 56.8441C73.2906 59.7889 71.3829 61.1824 69.6669 62.8177C69.5189 62.9587 69.2665 63.0628 69.0613 63.0661C66.1105 63.0829 63.1631 63.0762 59.9735 63.0762C61.3933 61.1723 62.6988 59.8393 65.0978 60.2221C66.4571 60.4403 67.8769 60.2624 69.3977 60.2624V55.7831H59.2837V67.0955H72.7321L72.7354 67.0921Z" fill="#6F717B"/>
<path d="M114.951 52.8887C116.462 52.8887 117.976 52.8585 119.487 52.8988C122.014 52.9659 123.396 54.2016 123.467 56.6763C123.561 59.8595 123.568 63.0494 123.454 66.2292C123.363 68.7442 122.017 69.9362 119.467 69.9698C116.388 70.0101 113.309 70.0101 110.231 69.9698C107.714 69.9362 106.402 68.6133 106.378 66.1184C106.348 63.046 106.348 59.9703 106.378 56.8979C106.405 54.2016 107.714 52.9256 110.416 52.892C111.926 52.8719 113.437 52.8887 114.951 52.892V52.8887ZM109.847 55.8637V67.1291C112.986 67.1291 116.001 67.1526 119.012 67.0989C119.386 67.0922 120.065 66.6624 120.069 66.4173C120.139 62.9251 120.116 59.433 120.116 55.8637H109.847Z" fill="#6F717B"/>
<path d="M102.529 52.8887C101.049 55.2089 99.2589 56.1357 96.7388 55.82C95.0969 55.6152 93.4079 55.7831 91.6448 55.7831V67.1392C94.3399 67.1392 96.9575 67.1392 99.5786 67.1392C102.139 67.1392 102.176 67.1929 101.601 69.9564C98.2226 69.9564 94.8143 70.0403 91.4127 69.9228C89.5621 69.859 88.2768 68.4689 88.2365 66.6321C88.1625 63.2206 88.1591 59.8057 88.2365 56.3942C88.2802 54.346 89.5756 52.9861 91.6045 52.9223C94.7403 52.8215 97.8828 52.892 101.022 52.892C101.456 52.892 101.89 52.892 102.533 52.892L102.529 52.8887Z" fill="#6F717B"/>
<path d="M51.7944 53.117C50.5226 55.2794 48.6754 56.1054 46.1755 55.8234C44.5336 55.6387 42.8513 55.7898 41.0983 55.7898V67.1257H51.1316V69.8556C47.5651 69.8556 43.9986 69.9732 40.4456 69.8019C38.77 69.7213 37.7472 68.4823 37.7169 66.7329C37.6597 63.271 37.6193 59.8024 37.69 56.3405C37.7303 54.3258 38.8878 53.023 40.8998 52.9491C44.4764 52.8182 48.0631 52.9189 51.6464 52.9323C51.7103 52.9323 51.7709 53.0801 51.7978 53.1136L51.7944 53.117Z" fill="#6F717B"/>
<path d="M30.5642 69.9396H27.3106V66.7967C27.3106 63.9459 27.5798 61.0649 27.2366 58.2578C26.8799 55.3399 28.6026 53.9497 30.5642 52.2272V69.9429V69.9396Z" fill="#6F717B"/>
<path d="M135.213 66.2325V69.8522H131.078V66.2325H135.213Z" fill="#6F717B"/>
<path d="M30.5636 49.7659H27.4277V46.2201H30.5636V49.7659Z" fill="#6F717B"/>
</g>
<defs>
<clipPath id="clip0_809_3371">
<rect width="135.214" height="70" fill="white"/>
</clipPath>
</defs>
</svg>
