<svg width="215" height="70" viewBox="0 0 215 70" fill="none" xmlns="http://www.w3.org/2000/svg">
<g clip-path="url(#clip0_809_3317)">
<path d="M93.5748 3.42666C93.6067 2.94624 93.6327 2.66261 93.6414 2.37899C93.7051 0.526755 94.2172 0.0144964 96.1095 0.00870812C101.269 -0.00286835 106.428 2.57687e-05 111.587 2.57687e-05C113.372 2.57687e-05 115.154 0.0173905 116.939 2.57687e-05C120.224 -0.0260213 120.36 0.0868493 120.698 3.42666C121.187 3.42666 121.702 3.42666 122.214 3.42666C128.675 3.42666 135.136 3.42377 141.598 3.42666C143.713 3.42666 144.265 3.97365 144.265 6.06031C144.265 13.2464 144.265 20.4325 144.257 27.6186C144.257 29.9281 143.782 30.394 141.456 30.394C118.551 30.394 95.6466 30.394 72.742 30.394C70.4156 30.394 69.97 29.9454 69.97 27.6041C69.97 20.5135 69.9671 13.4229 69.97 6.33525C69.97 3.81447 70.3693 3.42666 72.9156 3.42377C79.232 3.42377 85.5484 3.42377 91.8648 3.42377H93.572L93.5748 3.42666ZM117.159 3.48454H97.102V26.9906H117.159V3.48454ZM140.753 27.0137V6.95169H120.675V27.0137H140.753ZM73.474 26.979H93.5575V6.9488H73.474V26.9819V26.979Z" fill="#6F717B"/>
<path d="M63.2683 52.2909V55.0519C65.6149 53.3588 68.0223 52.4703 70.774 52.6353C73.7918 52.8147 75.2964 54.1316 75.4585 57.1646C75.6031 59.9053 75.5337 62.6576 75.5713 65.4041C75.5916 66.9409 74.9926 68.7874 77.4115 69.3749C77.0238 69.4183 76.6361 69.4964 76.2484 69.4993C74.657 69.5138 73.0656 69.5138 71.4771 69.5022C69.6629 69.4906 69.252 69.1289 69.2288 67.3229C69.1912 64.3333 69.2288 61.3437 69.2086 58.3541C69.2028 57.5842 69.1594 56.8115 69.0552 56.0504C68.8961 54.8869 68.0686 54.2907 67.0269 54.5223C65.8898 54.774 64.7961 55.321 63.7718 55.8999C63.4535 56.0822 63.3002 56.7855 63.2944 57.2543C63.2539 60.2439 63.3146 63.2336 63.2539 66.2203C63.2249 67.6008 63.1728 68.8713 64.9841 69.3025H55.2072C55.2187 69.181 55.2158 69.0189 55.239 69.016C56.8188 68.7411 56.9866 67.6876 56.9461 66.3042C56.8564 63.1728 56.9056 60.0384 56.923 56.9041C56.9317 55.5034 57.2471 53.9608 54.75 54.0418L55.0567 53.4428C57.7303 53.0694 60.4038 52.6932 63.2683 52.2909V52.2909Z" fill="#6F717B"/>
<path d="M187.485 52.2012C187.192 51.7237 186.808 51.2809 186.625 50.7657C185.899 48.6935 184.965 46.8124 182.531 46.4043C181.594 46.248 180.535 46.0917 179.675 46.3753C178.712 46.6966 177.549 47.3333 177.135 48.1639C176.562 49.3187 176.791 50.7976 177.951 51.7063C179.001 52.5311 180.182 53.1997 181.348 53.8653C183.223 54.9419 185.184 55.8796 187.016 57.0228C190.497 59.1934 191.596 63.8992 189.172 66.9323C188.28 68.0465 186.796 68.9437 185.41 69.3488C181.359 70.5354 177.303 69.9653 173.353 68.6427C173.026 68.5327 172.612 67.9712 172.638 67.65C172.766 66.0698 173.012 64.4954 173.26 62.9268C173.292 62.7213 173.587 62.5592 173.761 62.3769C173.958 62.6113 174.233 62.811 174.343 63.0802C174.855 64.3565 175.205 65.7109 175.824 66.9294C177.045 69.3344 181.889 69.5572 183.764 68.1333C185.297 66.9699 185.303 64.261 183.639 62.7734C182.829 62.0499 181.834 61.5116 180.87 60.982C179.27 60.0992 177.586 59.3641 176.015 58.4293C171.877 55.9693 170.891 50.074 174.227 47.258C175.231 46.4101 176.666 45.8862 177.983 45.6287C181.244 44.992 184.487 45.2843 187.65 46.3927C188.445 46.6705 188.7 47.096 188.558 47.8919C188.315 49.2579 188.113 50.6326 187.893 52.0044L187.482 52.1925L187.485 52.2012Z" fill="#6F717B"/>
<path d="M168.439 62.895V69.4183H148.431C148.483 69.2012 148.503 68.9639 148.547 68.9581C150.531 68.7671 150.404 67.3808 150.393 65.9193C150.346 60.2295 150.346 54.5368 150.393 48.8469C150.404 47.5793 150.387 46.5085 148.752 46.4419C148.671 46.439 148.578 46.3493 148.523 46.2769C148.468 46.2075 148.454 46.1062 148.361 45.8573H167.944V52.2678L167.669 52.4269C167.429 52.1115 167.128 51.8279 166.963 51.4777C166.576 50.6529 166.437 49.6341 165.864 48.9945C165.106 48.1437 164.099 47.151 163.075 46.986C161.113 46.6705 159.064 46.8934 156.932 46.8934V56.8492C159.2 56.8492 161.495 56.826 163.786 56.8694C164.238 56.8781 164.683 57.1328 165.129 57.2717C165.088 57.4569 165.051 57.6421 165.01 57.8274H156.9V68.66C159.241 68.5182 161.553 68.5848 163.783 68.1883C165.875 67.815 166.57 65.8962 167.206 64.0873C167.383 63.5838 167.753 63.1468 168.034 62.6779L168.436 62.8979L168.439 62.895Z" fill="#6F717B"/>
<path d="M15.5581 69.3286H5.4368C5.45995 69.1578 5.45706 68.9957 5.4831 68.9899C7.12079 68.689 7.27415 67.6008 7.25389 66.1508C7.17577 60.2266 7.22206 54.2994 7.22206 48.3752C7.22206 47.8571 7.22206 47.3391 7.22206 46.7516C5.3037 46.5519 3.60235 46.7602 2.54045 48.2681C1.60587 49.5965 1.01271 51.1651 0 52.5803V45.7704H21.0123V52.5716C19.473 50.7773 19.4353 48.0018 16.8833 47.122C15.9603 46.8037 14.9534 46.7342 13.7642 46.5084V48.3028C13.7642 53.9868 13.7323 59.6738 13.7873 65.3578C13.8018 66.828 12.8961 68.8597 16.0326 68.9176L15.561 69.3228L15.5581 69.3286Z" fill="#6F717B"/>
<path d="M119.557 58.9705C119.557 55.2226 119.586 51.4748 119.514 47.7269C119.505 47.3391 118.912 46.9252 118.527 46.5982C118.29 46.3985 117.934 46.3406 117.63 46.219L117.702 45.8544H122.801C122.346 46.1843 122.112 46.4882 121.846 46.52C120.706 46.6532 120.544 47.3362 120.549 48.3346C120.581 55.321 120.567 62.3074 120.567 69.2938C119.545 69.8437 119.129 69.1347 118.677 68.524C114.274 62.565 109.875 56.6002 105.472 50.6412C104.931 49.909 104.375 49.1884 103.487 48.4938C103.487 48.9742 103.487 49.4547 103.487 49.938C103.487 55.24 103.478 60.542 103.492 65.8469C103.495 67.2188 102.917 68.9379 105.683 68.8395C105.535 68.9928 105.388 69.1433 105.24 69.2967H100.66C100.66 69.1954 100.648 69.0305 100.66 69.0276C102.546 68.715 102.451 67.3577 102.439 65.9048C102.387 60.2642 102.396 54.6236 102.425 48.9858C102.431 47.7356 102.552 46.5229 100.804 46.4216C100.744 46.4187 100.668 46.2914 100.64 46.2075C100.611 46.1264 100.634 46.0251 100.634 45.7241C103.432 45.7241 106.241 45.6981 109.051 45.7618C109.36 45.7676 109.708 46.2653 109.954 46.5953C112.835 50.4502 115.7 54.3168 118.57 58.1804C118.796 58.4843 119.033 58.7766 119.268 59.0776L119.563 58.9734L119.557 58.9705Z" fill="#6F717B"/>
<path d="M209.116 69.343H198.459C198.349 69.2359 198.236 69.1289 198.126 69.0218C201.118 68.7324 200.366 66.6746 200.374 65.0308C200.403 59.4857 200.386 53.9434 200.386 48.3983C200.386 47.8774 200.386 47.3593 200.386 46.7573C198.439 46.5432 196.706 46.7718 195.615 48.3346C194.683 49.6688 194.075 51.2287 193.002 52.5571V45.7849H214.188V52.9073C213.783 52.4501 213.531 52.2677 213.418 52.0217C213.028 51.1477 212.73 50.2274 212.31 49.3649C211.43 47.5503 209.561 46.465 207.62 46.6908C207.327 46.7255 206.867 47.2696 206.867 47.5793C206.824 54.1836 206.862 60.788 206.812 67.3924C206.801 68.851 208.169 68.4632 209.113 69.3372L209.116 69.343Z" fill="#6F717B"/>
<path d="M45.4686 67.7397C43.3709 69.4762 41.1863 70.0116 38.8137 69.8032C36.6233 69.6093 35.5325 68.7295 35.1592 66.9641C34.676 64.6835 35.3271 62.484 37.2194 61.7691C39.3403 60.9704 41.6579 60.6896 43.8946 60.2121C44.3546 60.1137 44.8465 60.1513 45.5265 60.1137C45.4455 58.7245 45.4744 57.3759 45.2661 56.0677C45.0548 54.7509 44.0335 53.9955 42.7719 54.1518C40.8217 54.392 38.9091 54.913 36.9127 55.3297C36.93 55.295 36.985 54.9419 37.1818 54.8204C40.761 52.6237 44.6006 51.9783 48.6427 53.1823C50.7029 53.7958 51.5651 55.515 51.6635 57.4974C51.8053 60.3337 51.7358 63.1844 51.7416 66.0264C51.7445 67.4271 51.4002 69.0189 53.9059 68.906L53.6368 69.3141C53.3243 69.3778 53.0119 69.4906 52.6994 69.4964C51.0617 69.5138 49.4211 69.5022 47.7834 69.508C46.6434 69.5138 45.4484 69.6209 45.4657 67.7397H45.4686ZM45.4802 61.1932C41.1892 61.2887 41.0648 63.4217 41.2991 66.2377C41.3802 67.2245 42.0485 67.7744 43.0902 67.6905C44.1839 67.6008 45.321 67.3345 45.4426 66.0582C45.5988 64.4491 45.4802 62.8168 45.4802 61.1932V61.1932Z" fill="#6F717B"/>
<path d="M124.277 45.7965H134.364C134.399 45.9065 134.43 46.0165 134.465 46.1264C133.91 46.3406 133.354 46.5548 132.529 46.8702C134.471 51.5761 136.41 56.2761 138.522 61.3958C140.466 56.2906 142.263 51.579 144.083 46.8066C143.365 46.5663 142.795 46.3753 142.225 46.1843C142.251 46.0657 142.28 45.947 142.306 45.8283H146.927C146.875 46.0309 146.852 46.2682 146.809 46.2711C145.055 46.4303 144.757 47.8426 144.262 49.1363C141.754 55.6857 139.228 62.2293 136.67 68.7584C136.491 69.2186 136.01 69.5601 135.672 69.9566C135.365 69.5717 134.948 69.2302 134.769 68.7932C131.965 62.0065 129.225 55.1908 126.366 48.4244C125.953 47.4433 125.004 46.685 124.28 45.7965H124.277Z" fill="#6F717B"/>
<path d="M98.6555 45.8168C98.5861 46.0888 98.5745 46.2509 98.5369 46.2567C96.5346 46.575 96.7863 48.0568 96.795 49.4923C96.8269 54.7885 96.8008 60.0848 96.8124 65.3781C96.8153 66.9062 96.1845 68.7584 98.6005 69.3344H88.4792C88.4995 69.1578 88.4966 68.9986 88.5226 68.9929C90.2558 68.6716 90.305 67.459 90.2876 66.0206C90.2269 60.3423 90.2471 54.6612 90.2732 48.9829C90.279 47.7385 90.3947 46.5229 88.6471 46.413C88.5516 46.4072 88.4763 46.1293 88.3027 45.8197H98.6526L98.6555 45.8168Z" fill="#6F717B"/>
<path d="M31.1245 52.2822C31.1245 56.3571 31.1245 60.2063 31.1245 64.0555C31.1245 64.5388 31.1158 65.0192 31.1245 65.5026C31.1592 66.9843 30.5284 68.7758 32.8461 69.3517H22.936C22.9475 69.2446 22.9418 69.0797 22.9678 69.0768C24.6894 68.7642 24.8283 67.5921 24.7791 66.1161C24.6836 63.1294 24.756 60.1398 24.7473 57.1501C24.7444 55.7002 25.2478 53.9492 22.502 54.0274L22.8202 53.4601C25.5025 53.0781 28.1876 52.699 31.1187 52.2822H31.1245Z" fill="#6F717B"/>
<path d="M27.9456 50.3547C25.923 50.375 24.6904 49.3273 24.6644 47.5648C24.6412 45.7878 25.8536 44.7199 27.8848 44.7286C29.9536 44.7344 31.1399 45.7444 31.1515 47.5098C31.1631 49.31 30.0057 50.3374 27.9427 50.3576L27.9456 50.3547Z" fill="#6F717B"/>
<path d="M106.962 23.6565C106.435 23.6565 105.802 23.8417 105.408 23.6131C104.783 23.2484 103.932 22.6349 103.892 22.0792C103.854 21.5351 104.636 20.5424 105.197 20.4296C106.427 20.1807 107.775 20.2096 109.016 20.4411C109.563 20.5453 110.376 21.4657 110.327 21.9403C110.266 22.5423 109.549 23.2542 108.935 23.5726C108.409 23.8446 107.63 23.6305 106.962 23.6305V23.6565V23.6565Z" fill="#6F717B"/>
<path d="M127.411 23.6739C126.885 23.6739 126.355 23.7028 125.831 23.6681C124.795 23.5986 124.084 23.1124 124.052 22.0011C124.02 20.9418 124.729 20.4035 125.655 20.3167C126.792 20.2096 127.958 20.2038 129.092 20.3283C130.001 20.4267 130.736 20.9505 130.672 22.0271C130.611 23.0516 129.94 23.5494 128.985 23.6623C128.467 23.7231 127.935 23.6739 127.408 23.6739H127.411Z" fill="#6F717B"/>
<path d="M86.8534 23.6362C86.2314 23.6362 85.5109 23.8359 85.0132 23.587C84.4171 23.286 83.6649 22.6262 83.6301 22.0792C83.5954 21.5467 84.3072 20.5743 84.8222 20.473C86.1098 20.2241 87.5016 20.1864 88.7863 20.4238C89.336 20.5251 90.0449 21.5004 90.0767 22.111C90.1028 22.5944 89.2839 23.2889 88.6908 23.5841C88.1931 23.8301 87.4755 23.6362 86.8534 23.6362V23.6362Z" fill="#6F717B"/>
</g>
<defs>
<clipPath id="clip0_809_3317">
<rect width="214.188" height="70" fill="white"/>
</clipPath>
</defs>
</svg>
