<svg width="156" height="26" viewBox="0 0 156 26" fill="none" xmlns="http://www.w3.org/2000/svg">
<path d="M13 0L15.9187 8.98278H25.3637L17.7225 14.5344L20.6412 23.5172L13 17.9656L5.35879 23.5172L8.27747 14.5344L0.636266 8.98278H10.0813L13 0Z" fill="#FFC700"/>
<path d="M46.4287 0L49.3474 8.98278H58.7924L51.1512 14.5344L54.0699 23.5172L46.4287 17.9656L38.7875 23.5172L41.7062 14.5344L34.065 8.98278H43.51L46.4287 0Z" fill="#FFC700"/>
<path d="M78 0L80.9187 8.98278H90.3637L82.7225 14.5344L85.6412 23.5172L78 17.9656L70.3588 23.5172L73.2775 14.5344L65.6363 8.98278H75.0813L78 0Z" fill="#FFC700"/>
<path d="M111.428 0L114.346 8.98278H123.791L116.15 14.5344L119.069 23.5172L111.428 17.9656L103.787 23.5172L106.705 14.5344L99.064 8.98278H108.509L111.428 0Z" fill="#FFC700"/>
<path d="M143 0L145.919 8.98278H155.364L147.723 14.5344L150.641 23.5172L143 17.9656L135.359 23.5172L138.277 14.5344L130.636 8.98278H140.081L143 0Z" fill="#FFC700"/>
</svg>
