<svg width="230" height="48" viewBox="0 0 230 48" fill="none" xmlns="http://www.w3.org/2000/svg">
<g clip-path="url(#clip0_729_208)">
<path d="M80.0296 0.78752C79.0377 0.237298 77.9156 -0.0347767 76.7819 1.27777e-06H63.3584V18.566H68.279V11.4586H76.7819C77.8971 11.4822 79.0003 11.2249 79.9902 10.7104C80.8517 10.2562 81.573 9.57548 82.0765 8.7416C82.5597 7.86097 82.8104 6.87165 82.8048 5.86713C82.8198 4.85768 82.5758 3.86125 82.0962 2.97295C81.6387 2.05596 80.9195 1.29535 80.0296 0.78752ZM68.22 4.35109H76.7228C77.0168 4.33923 77.3045 4.43755 77.5298 4.62676C77.628 4.73564 77.7031 4.86334 77.7505 5.0021C77.7978 5.14086 77.8165 5.28778 77.8054 5.43398V5.96554C77.8161 6.10871 77.7971 6.25255 77.7497 6.38805C77.7023 6.52356 77.6275 6.64782 77.5298 6.75306C77.4256 6.85897 77.2991 6.9404 77.1595 6.99148C77.02 7.04255 76.8708 7.06203 76.7228 7.04843H68.22V4.35109Z" fill="#4967FF"/>
<path d="M91.5437 0H86.623V18.566H105.695V14.1952H91.5437V0Z" fill="#4967FF"/>
<path d="M123.803 13.0336C123.814 13.1874 123.793 13.3416 123.742 13.4871C123.692 13.6326 123.612 13.7664 123.508 13.8803C123.406 13.9897 123.28 14.0748 123.14 14.1293C123.001 14.1838 122.851 14.2063 122.701 14.1952H115.655C115.505 14.2063 115.355 14.1838 115.216 14.1293C115.076 14.0748 114.95 13.9897 114.848 13.8803C114.744 13.7664 114.664 13.6326 114.614 13.4871C114.563 13.3416 114.542 13.1874 114.553 13.0336V0H109.632V12.7383C109.626 13.7506 109.863 14.7496 110.321 15.6522C110.764 16.5321 111.446 17.269 112.289 17.7785C113.292 18.3198 114.417 18.5911 115.556 18.566H122.603C123.735 18.5913 124.855 18.3198 125.85 17.7785C126.695 17.2716 127.378 16.5339 127.819 15.6522C128.286 14.7529 128.523 13.7517 128.508 12.7383V0H123.803V13.0336Z" fill="#4967FF"/>
<path d="M149.568 7.87527C148.592 7.31864 147.483 7.0395 146.36 7.06804H138.782C138.637 7.08005 138.491 7.05981 138.355 7.00874C138.219 6.95768 138.096 6.87707 137.994 6.77273C137.888 6.6724 137.804 6.5499 137.75 6.41385C137.695 6.2778 137.671 6.13152 137.679 5.98521V5.45365C137.67 5.30896 137.692 5.1639 137.743 5.02814C137.793 4.89237 137.873 4.76894 137.975 4.66607C138.076 4.56738 138.196 4.49032 138.328 4.43956C138.46 4.38879 138.601 4.36539 138.742 4.37076H145.828C146.123 4.35492 146.412 4.45373 146.635 4.64643C146.736 4.75435 146.814 4.88136 146.865 5.02003C146.915 5.15869 146.938 5.30618 146.93 5.45365V6.41836H151.851V5.78832C151.854 4.78889 151.618 3.80328 151.162 2.91385C150.71 2.04049 150.03 1.30574 149.194 0.787481C148.21 0.235159 147.094 -0.0371817 145.966 -3.75356e-05H138.723C137.611 -0.0311843 136.51 0.233832 135.534 0.767834C134.692 1.25189 134.008 1.96999 133.566 2.83508C133.11 3.70321 132.873 4.66982 132.877 5.65049C132.877 6.64502 133.099 7.62702 133.526 8.52502C133.967 9.40673 134.65 10.1444 135.495 10.6513C136.477 11.2105 137.593 11.4897 138.723 11.4585H146.261C146.409 11.4489 146.557 11.4701 146.696 11.521C146.835 11.5718 146.962 11.6512 147.068 11.7539C147.17 11.8648 147.249 11.9952 147.3 12.1373C147.351 12.2793 147.372 12.4302 147.363 12.5808V13.0926C147.373 13.2403 147.352 13.3885 147.301 13.5275C147.25 13.6665 147.171 13.7933 147.068 13.8999C146.962 14.0036 146.836 14.0836 146.696 14.1345C146.557 14.1854 146.409 14.2061 146.261 14.1952H138.506C138.359 14.2049 138.211 14.1836 138.072 14.1328C137.933 14.0819 137.806 14.0026 137.699 13.8999C137.507 13.6765 137.408 13.3872 137.424 13.0926V12.1279H132.503V12.7383C132.498 13.7506 132.734 14.7496 133.192 15.6522C133.646 16.5244 134.326 17.2587 135.16 17.7785C136.155 18.3215 137.275 18.5931 138.408 18.566H146.281C147.387 18.5974 148.481 18.3323 149.45 17.7982C150.286 17.3064 150.968 16.5902 151.418 15.7309C151.861 14.8516 152.09 13.8803 152.087 12.8958C152.097 11.8939 151.874 10.9034 151.438 10.0016C151.03 9.12868 150.381 8.39073 149.568 7.87527Z" fill="#4967FF"/>
<path d="M170.215 0.374084H166.593V18.4282H184.642V15.1797H170.215V0.374084Z" fill="#4967FF"/>
<path d="M201.432 0.354355H194.228C193.505 0.328021 192.784 0.446861 192.108 0.703863C191.432 0.960864 190.814 1.35083 190.291 1.85068C189.791 2.37209 189.401 2.9902 189.147 3.66726C188.894 4.34431 188.781 5.06607 188.815 5.78834V18.4282H192.417V11.0254H203.242V18.4282H206.884V5.78834C206.918 5.06607 206.805 4.34431 206.552 3.66726C206.298 2.9902 205.908 2.37209 205.408 1.85068C204.881 1.34502 204.257 0.951696 203.573 0.69449C202.89 0.437283 202.161 0.321534 201.432 0.354355ZM203.223 7.75716H192.397V5.45367C192.389 5.20769 192.431 4.96255 192.518 4.73266C192.606 4.50278 192.739 4.29273 192.909 4.11482C193.084 3.94795 193.291 3.8183 193.518 3.73371C193.745 3.64912 193.986 3.61132 194.228 3.62261H201.432C201.67 3.61172 201.909 3.64979 202.132 3.73443C202.356 3.81908 202.559 3.94851 202.731 4.11482C202.897 4.29432 203.026 4.50507 203.111 4.73489C203.195 4.9647 203.233 5.20905 203.223 5.45367V7.75716Z" fill="#4967FF"/>
<path d="M228.81 10.7301C228.39 10.0521 227.781 9.51149 227.059 9.17475C227.588 8.79889 228.009 8.28943 228.279 7.69813C228.562 7.08115 228.704 6.40827 228.692 5.7293C228.741 5.00728 228.636 4.28308 228.382 3.60522C228.129 2.92735 227.734 2.31151 227.223 1.79885C226.712 1.2862 226.098 0.888589 225.422 0.632688C224.745 0.376787 224.021 0.268471 223.299 0.315025H210.998V18.3692H224.008C224.731 18.4119 225.454 18.3013 226.131 18.0446C226.809 17.7879 227.424 17.3909 227.937 16.8797C228.45 16.3684 228.849 15.7544 229.108 15.078C229.367 14.4017 229.48 13.6781 229.44 12.9549C229.445 12.1686 229.227 11.3972 228.81 10.7301ZM214.619 3.70141H223.299C223.535 3.68844 223.771 3.72562 223.992 3.81046C224.212 3.8953 224.412 4.02586 224.579 4.19362C224.747 4.36423 224.88 4.56742 224.968 4.79079C225.056 5.01416 225.097 5.25308 225.09 5.49305V6.04432C225.096 6.28107 225.053 6.51644 224.965 6.73624C224.877 6.95605 224.745 7.15575 224.578 7.3232C224.41 7.49066 224.211 7.62243 223.991 7.71056C223.771 7.7987 223.536 7.84134 223.299 7.83596H214.619V3.70141ZM225.819 13.5455C225.829 13.7843 225.791 14.0227 225.707 14.2461C225.622 14.4696 225.493 14.6734 225.326 14.845C225.15 15.01 224.943 15.1384 224.716 15.2229C224.49 15.3074 224.249 15.3462 224.008 15.3372H214.619V11.1829H224.008C224.249 11.1686 224.491 11.2057 224.717 11.2916C224.944 11.3776 225.149 11.5105 225.32 11.6816C225.491 11.8528 225.624 12.0582 225.71 12.2845C225.796 12.5108 225.833 12.7527 225.819 12.9943V13.5455Z" fill="#4967FF"/>
<path d="M67.7472 40.2231V45.0468C67.7472 46.2477 67.4914 46.8384 66.7238 47.1928C65.6298 47.5955 64.46 47.7502 63.299 47.6456C63.15 46.8713 62.8915 46.1222 62.5313 45.4208H64.7555C65.0704 45.4208 65.1885 45.3224 65.1885 45.027V40.7744L62.8856 41.306L62.1968 38.9631L65.1885 38.3724V34.7498H62.3936V32.4856H65.0901V28.548H67.7472V32.4856H70.1289V34.7498H67.7472V37.7621L69.4203 37.4077L69.7549 39.6325L67.7472 40.2231ZM82.1156 38.1165C81.3924 40.4201 80.0267 42.4692 78.179 44.023C79.8446 44.7794 81.6063 45.3028 83.4146 45.5783C82.7716 46.2708 82.2041 47.0298 81.7219 47.8425C79.6469 47.4332 77.6525 46.6884 75.8171 45.6374C73.8698 46.6525 71.7893 47.3882 69.6368 47.8228C69.2861 47.0258 68.8435 46.2726 68.318 45.5783C70.1349 45.3127 71.9045 44.789 73.5733 44.023C72.3073 42.8992 71.2423 41.5675 70.4241 40.0853L71.2704 39.8294H69.9517V37.5455H79.793L80.2654 37.4274L82.1156 38.1165ZM70.7784 37.2699C70.2565 36.6135 69.6548 36.0249 68.9872 35.5176C71.6641 34.4151 71.9987 32.9385 71.9987 31.58V29.2961H80.0292V33.7654C80.0292 34.3757 80.0292 34.612 80.3835 34.612H81.6235C82.0469 34.6083 82.4689 34.5621 82.8831 34.4742C82.8831 35.0845 83.0013 35.9311 83.0997 36.443C82.6327 36.5746 82.1472 36.6278 81.6628 36.6005H80.1473C77.9232 36.6005 77.4311 35.7342 77.4311 33.6669V31.5012H74.5968C74.6859 32.7495 74.3597 33.9921 73.6691 35.0356C72.9784 36.079 71.962 36.8646 70.7784 37.2699ZM73.1403 39.8294C73.8778 40.959 74.8269 41.935 75.9352 42.7038C76.9866 41.9194 77.8812 40.9443 78.5727 39.8294H73.1403Z" fill="#E23965"/>
<path d="M99.9682 32.3084C101.97 33.5747 104.315 34.1871 106.68 34.0607C106.08 34.6381 105.569 35.3016 105.164 36.0296C103.043 35.8998 100.999 35.1842 99.2596 33.9622C98.3935 34.8679 96.504 35.6751 92.6856 36.0492C92.432 35.5722 92.1285 35.1234 91.7802 34.7104H85.7573V32.84H92.6068V34.1001C96.9567 33.6866 97.5275 32.7613 97.5275 32.0131V31.6981H96.1694C95.7106 32.3503 95.1754 32.9452 94.5751 33.47C93.9569 32.9935 93.2983 32.5719 92.6068 32.21C93.818 31.2624 94.7387 29.9935 95.264 28.548L97.6259 29.0205C97.5217 29.3304 97.3967 29.633 97.252 29.9262H103.708L104.121 29.8277L105.952 30.3396C105.374 31.4939 104.675 32.5829 103.865 33.5882L101.779 32.8794C102.062 32.4996 102.324 32.1053 102.566 31.6981H100.047V32.3281L99.9682 32.3084ZM100.578 44.4167C102.665 45.1058 104.908 45.9327 106.247 46.5234L103.806 47.8425C101.895 46.9026 99.9222 46.0935 97.9015 45.4208L99.2793 44.4167H92.8824L94.8507 45.2436C92.6007 46.4084 90.2228 47.307 87.7649 47.9212C87.1646 47.2655 86.5058 46.6658 85.7967 46.1296C87.9209 45.7924 90.0005 45.2178 91.9967 44.4167H88.7294V36.0492H103.944V44.4167H100.578ZM92.0557 31.4422H86.1509V29.6505H92.0557V31.4422ZM91.3078 38.4118H101.149V37.5258H91.3078V38.4118ZM91.3078 40.676H101.149V39.79H91.3078V40.676ZM91.3078 42.9795H101.149V42.0542H91.3078V42.9795Z" fill="#E23965"/>
<path d="M129.826 34.4348V36.187H125.772L125.594 37.7818H112.525L112.761 36.187H109.179V34.4348H113.017L113.254 32.8597H126.126L125.968 34.4348H129.826ZM123.803 45.0468C125.772 45.539 127.74 46.0706 129.157 46.4643L127.307 47.9803C125.673 47.4093 123.016 46.6021 120.398 46.0115L121.323 45.0861H117.17L118.528 45.9918C116.047 46.9839 113.447 47.6458 110.793 47.9606C110.373 47.3609 109.898 46.8008 109.376 46.2871C111.378 46.0325 113.353 45.6043 115.281 45.0074H111.994V38.3528H126.834V45.0468H123.803ZM112.21 33.9032H109.789V30.3199H118.076C117.887 29.8925 117.67 29.4781 117.426 29.0796L119.788 28.4889C120.192 29.0652 120.542 29.6783 120.831 30.3199H129.137V33.9032H126.598V32.21H112.191L112.21 33.9032ZM114.71 40.2231H124.177V39.6128H114.71V40.2231ZM114.71 42.0345H124.177V41.3848H114.71V42.0345ZM114.71 43.8458H124.177V43.1764H114.71V43.8458ZM115.084 36.5808H118.076L118.174 35.9114H115.143L115.084 36.5808ZM115.419 34.1001L115.32 34.6907H118.312V34.1001H115.419ZM123.292 36.5808V35.9114H120.379L120.28 36.5808H123.292ZM123.528 34.1001H120.654V34.6907H123.508L123.528 34.1001Z" fill="#E23965"/>
<path d="M131.972 46.0115C132.429 44.57 132.739 43.0857 132.897 41.5816L134.235 42.0147C134.108 43.5202 133.838 45.0101 133.428 46.4643L131.972 46.0115ZM145.572 41.877C145.438 42.4173 145.274 42.9497 145.08 43.4717C145.854 43.8801 146.575 44.3826 147.226 44.968L145.907 46.5431C145.398 46.0869 144.859 45.6659 144.293 45.283C143.786 46.2527 143.121 47.131 142.325 47.8819C141.787 47.4066 141.215 46.9722 140.612 46.5824C140.564 46.7438 140.491 46.8966 140.396 47.0353C140.249 47.2339 140.06 47.397 139.842 47.5128C139.624 47.6287 139.383 47.6942 139.136 47.7047C138.481 47.7649 137.823 47.7649 137.168 47.7047C137.116 47.0735 136.942 46.4584 136.656 45.8933C137.076 45.9158 137.496 45.9158 137.916 45.8933C138.022 45.9106 138.13 45.8996 138.23 45.8616C138.33 45.8236 138.419 45.7599 138.487 45.6768C138.706 45.1122 138.813 44.5104 138.802 43.9049L138.014 44.1805C137.786 43.271 137.483 42.382 137.109 41.5225L138.054 41.2272C138.362 41.8665 138.632 42.524 138.861 43.1961C138.861 42.5463 138.861 41.7194 138.959 40.735H133.054V29.2764H140.927V31.2453H138.605V32.6038H140.573V33.2338C142.911 32.1229 144.939 30.4526 146.478 28.3708L148.879 29.119C148.739 29.3432 148.588 29.56 148.426 29.7686C149.971 30.9532 151.691 31.8898 153.524 32.5447C153.078 33.2379 152.74 33.9947 152.52 34.7892C151.796 34.4511 151.093 34.0697 150.414 33.6472V35.0057H143.722V33.982L142.148 34.8679C141.697 34.3471 141.196 33.8722 140.652 33.4503V34.5726H138.683V35.7932H140.652V37.5849H138.683V38.8843H141.203C141.203 38.8843 141.203 39.4159 141.203 39.6522C141.241 41.9142 141.07 44.1749 140.691 46.4053C142.072 45.0986 142.991 43.3779 143.309 41.5029L145.572 41.877ZM135.613 41.877C135.731 43.0583 135.79 44.5939 135.79 45.6374L134.609 45.7555C134.636 44.4943 134.597 43.2325 134.491 41.9754L135.613 41.877ZM135.219 31.3831V32.7416H136.636V31.3831H135.219ZM136.636 34.5529H135.219V35.7736H136.636V34.5529ZM135.219 38.8646H136.636V37.5652H135.219V38.8646ZM136.932 41.6604C137.23 42.772 137.447 43.9037 137.581 45.0468L136.459 45.2633C136.331 44.1274 136.12 43.0022 135.829 41.8966L136.932 41.6604ZM141.793 36.0886H146.655V41.1091H141.793V36.0886ZM143.545 39.5341H144.785V37.5652H143.486L143.545 39.5341ZM149.588 33.2338C148.702 32.6431 147.836 32.0131 147.068 31.3831C146.403 32.0708 145.671 32.6908 144.883 33.2338H149.588ZM151.261 41.8573C151.1 42.6656 150.883 43.4616 150.611 44.2395C151.531 44.7816 152.412 45.3869 153.249 46.0509L151.674 47.7243C151.063 47.1575 150.404 46.6437 149.706 46.1887C149.33 46.8235 148.881 47.4117 148.367 47.9409C147.75 47.434 147.092 46.9796 146.399 46.5824C147.767 45.2089 148.628 43.4107 148.84 41.4832L151.261 41.8573ZM147.324 36.187H152.383V41.1091H147.423L147.324 36.187ZM149.076 39.6325H150.513V37.6637H149.076V39.6325Z" fill="#E23965"/>
<path d="M176.159 45.1452V47.3109H156.024V45.1452H164.625V43.3929H158.012V41.2863H164.625V39.7112H167.4V41.2863H174.348V43.3929H167.4V45.1452H176.159ZM158.622 34.2182H156.083V30.2805H164.822C164.65 29.8522 164.446 29.4375 164.212 29.0402L166.849 28.3511C167.246 28.9769 167.589 29.6356 167.873 30.3199H175.962V34.2576H173.561V35.9114H170.865C172.224 36.8655 173.495 37.9395 174.663 39.1206L172.538 40.4397C172.165 39.976 171.757 39.5416 171.317 39.1403C161.161 39.8884 159.941 39.9672 159.016 40.3019C158.811 39.5756 158.555 38.865 158.248 38.1756C158.838 38.0582 159.391 37.8017 159.862 37.4274C160.593 36.9726 161.29 36.466 161.948 35.9114H158.622V34.2182ZM158.72 32.525V33.7653H173.207V32.525H158.72ZM169.408 37.4668C169.014 37.1321 168.601 36.8367 168.227 36.5611L169.349 35.872H165.413C164.572 36.5782 163.691 37.2356 162.775 37.8408L169.408 37.4668Z" fill="#E23965"/>
<path d="M27.9294 1.26004H22.9497V23.7047H27.9294V1.26004Z" fill="#4967FF"/>
<path d="M27.1633 22.9522L23.6421 19.43L-0.00406257 43.083L3.51711 46.6052L27.1633 22.9522Z" fill="#E23965"/>
<path d="M45.3882 23.7047V18.7236H22.95V23.7047H45.3882Z" fill="#4967FF"/>
<path d="M22.95 41.1682H27.9297L27.9297 18.7235H22.95L22.95 41.1682Z" fill="#E23965"/>
<path d="M5.47168 18.7236V23.7047H27.9098V18.7236H5.47168Z" fill="#E23965"/>
</g>
<defs>
<clipPath id="clip0_729_208">
<rect width="229.44" height="48" fill="white"/>
</clipPath>
</defs>
</svg>
